<mxfile host="65bd71144e" pages="5">
    <diagram name="Project Creation High-level" id="TXwF2NEqy8AtYEFD0URE">
        <mxGraphModel dx="1082" dy="900" grid="0" gridSize="10" guides="1" tooltips="1" connect="1" arrows="1" fold="1" page="0" pageScale="1" pageWidth="850" pageHeight="1100" math="0" shadow="0">
            <root>
                <mxCell id="0"/>
                <mxCell id="1" parent="0"/>
                <mxCell id="sES-NTD_tcXgopmh5hOD-2" value="" style="rounded=0;whiteSpace=wrap;html=1;" parent="1" vertex="1">
                    <mxGeometry x="-62" y="-136" width="721" height="442" as="geometry"/>
                </mxCell>
                <mxCell id="gG5i1_UGI-loqMqlaokO-1" value="" style="group" parent="1" vertex="1" connectable="0">
                    <mxGeometry x="10" y="-50" width="600" height="320" as="geometry"/>
                </mxCell>
                <mxCell id="gG5i1_UGI-loqMqlaokO-2" value="MANAGEMENT&lt;br&gt;REPOSITORY" style="rounded=0;whiteSpace=wrap;html=1;fillColor=#dae8fc;strokeColor=#6c8ebf;" parent="gG5i1_UGI-loqMqlaokO-1" vertex="1">
                    <mxGeometry x="240" y="40" width="120" height="60" as="geometry"/>
                </mxCell>
                <mxCell id="gG5i1_UGI-loqMqlaokO-3" style="edgeStyle=orthogonalEdgeStyle;rounded=0;orthogonalLoop=1;jettySize=auto;html=1;entryX=0.5;entryY=1;entryDx=0;entryDy=0;" parent="gG5i1_UGI-loqMqlaokO-1" source="gG5i1_UGI-loqMqlaokO-4" target="gG5i1_UGI-loqMqlaokO-2" edge="1">
                    <mxGeometry relative="1" as="geometry"/>
                </mxCell>
                <mxCell id="gG5i1_UGI-loqMqlaokO-4" value="Project Controller" style="rounded=0;whiteSpace=wrap;html=1;fillColor=#d5e8d4;strokeColor=#82b366;" parent="gG5i1_UGI-loqMqlaokO-1" vertex="1">
                    <mxGeometry x="240" y="160" width="120" height="60" as="geometry"/>
                </mxCell>
                <mxCell id="gG5i1_UGI-loqMqlaokO-5" value="PROJECT&lt;br&gt;A" style="rounded=0;whiteSpace=wrap;html=1;fillColor=#f8cecc;strokeColor=#b85450;" parent="gG5i1_UGI-loqMqlaokO-1" vertex="1">
                    <mxGeometry y="260" width="120" height="60" as="geometry"/>
                </mxCell>
                <mxCell id="gG5i1_UGI-loqMqlaokO-6" style="edgeStyle=orthogonalEdgeStyle;rounded=0;orthogonalLoop=1;jettySize=auto;html=1;" parent="gG5i1_UGI-loqMqlaokO-1" source="gG5i1_UGI-loqMqlaokO-4" target="gG5i1_UGI-loqMqlaokO-5" edge="1">
                    <mxGeometry relative="1" as="geometry"/>
                </mxCell>
                <mxCell id="gG5i1_UGI-loqMqlaokO-7" value="PROJECT&lt;br&gt;B" style="rounded=0;whiteSpace=wrap;html=1;fillColor=#f8cecc;strokeColor=#b85450;" parent="gG5i1_UGI-loqMqlaokO-1" vertex="1">
                    <mxGeometry x="160" y="260" width="120" height="60" as="geometry"/>
                </mxCell>
                <mxCell id="gG5i1_UGI-loqMqlaokO-8" style="edgeStyle=orthogonalEdgeStyle;rounded=0;orthogonalLoop=1;jettySize=auto;html=1;" parent="gG5i1_UGI-loqMqlaokO-1" source="gG5i1_UGI-loqMqlaokO-4" target="gG5i1_UGI-loqMqlaokO-7" edge="1">
                    <mxGeometry relative="1" as="geometry"/>
                </mxCell>
                <mxCell id="gG5i1_UGI-loqMqlaokO-9" value="PROJECT&lt;br&gt;C" style="rounded=0;whiteSpace=wrap;html=1;fillColor=#f8cecc;strokeColor=#b85450;" parent="gG5i1_UGI-loqMqlaokO-1" vertex="1">
                    <mxGeometry x="320" y="260" width="120" height="60" as="geometry"/>
                </mxCell>
                <mxCell id="gG5i1_UGI-loqMqlaokO-10" style="edgeStyle=orthogonalEdgeStyle;rounded=0;orthogonalLoop=1;jettySize=auto;html=1;" parent="gG5i1_UGI-loqMqlaokO-1" source="gG5i1_UGI-loqMqlaokO-4" target="gG5i1_UGI-loqMqlaokO-9" edge="1">
                    <mxGeometry relative="1" as="geometry"/>
                </mxCell>
                <mxCell id="gG5i1_UGI-loqMqlaokO-11" value="PROJECT&lt;br&gt;D" style="rounded=0;whiteSpace=wrap;html=1;fillColor=#f8cecc;strokeColor=#b85450;" parent="gG5i1_UGI-loqMqlaokO-1" vertex="1">
                    <mxGeometry x="480" y="260" width="120" height="60" as="geometry"/>
                </mxCell>
                <mxCell id="gG5i1_UGI-loqMqlaokO-12" style="edgeStyle=orthogonalEdgeStyle;rounded=0;orthogonalLoop=1;jettySize=auto;html=1;" parent="gG5i1_UGI-loqMqlaokO-1" source="gG5i1_UGI-loqMqlaokO-4" target="gG5i1_UGI-loqMqlaokO-11" edge="1">
                    <mxGeometry relative="1" as="geometry"/>
                </mxCell>
                <mxCell id="gG5i1_UGI-loqMqlaokO-13" value="control plane&lt;br&gt;monitors repository" style="text;html=1;align=center;verticalAlign=middle;resizable=0;points=[];autosize=1;strokeColor=none;fillColor=none;" parent="gG5i1_UGI-loqMqlaokO-1" vertex="1">
                    <mxGeometry x="170" y="110" width="130" height="40" as="geometry"/>
                </mxCell>
                <mxCell id="gG5i1_UGI-loqMqlaokO-14" value="control plane&lt;br&gt;creates project&lt;br&gt;resources" style="text;html=1;align=center;verticalAlign=middle;resizable=0;points=[];autosize=1;strokeColor=none;fillColor=none;" parent="gG5i1_UGI-loqMqlaokO-1" vertex="1">
                    <mxGeometry x="94" y="197" width="97" height="55" as="geometry"/>
                </mxCell>
                <mxCell id="gG5i1_UGI-loqMqlaokO-15" style="edgeStyle=orthogonalEdgeStyle;rounded=0;orthogonalLoop=1;jettySize=auto;html=1;" parent="gG5i1_UGI-loqMqlaokO-1" source="gG5i1_UGI-loqMqlaokO-16" target="gG5i1_UGI-loqMqlaokO-2" edge="1">
                    <mxGeometry relative="1" as="geometry"/>
                </mxCell>
                <mxCell id="gG5i1_UGI-loqMqlaokO-16" value="" style="shadow=0;dashed=0;html=1;strokeColor=none;fillColor=#4495D1;labelPosition=center;verticalLabelPosition=bottom;verticalAlign=top;align=center;outlineConnect=0;shape=mxgraph.veeam.portal_admin;" parent="gG5i1_UGI-loqMqlaokO-1" vertex="1">
                    <mxGeometry x="20" y="45.599999999999994" width="44.4" height="48.8" as="geometry"/>
                </mxCell>
                <mxCell id="gG5i1_UGI-loqMqlaokO-17" value="Project manifest commited&lt;br&gt;to MGMT Repository&amp;nbsp;" style="text;html=1;align=center;verticalAlign=middle;resizable=0;points=[];autosize=1;strokeColor=none;fillColor=none;" parent="gG5i1_UGI-loqMqlaokO-1" vertex="1">
                    <mxGeometry x="66" y="10" width="159" height="41" as="geometry"/>
                </mxCell>
                <mxCell id="gG5i1_UGI-loqMqlaokO-18" value="MPAS Project Creation" style="text;html=1;align=center;verticalAlign=middle;resizable=0;points=[];autosize=1;strokeColor=none;fillColor=none;fontStyle=1;fontSize=24;" parent="1" vertex="1">
                    <mxGeometry x="-48" y="-118" width="280" height="40" as="geometry"/>
                </mxCell>
            </root>
        </mxGraphModel>
    </diagram>
    <diagram id="-gGA06OzTQv3ZnLz8JmU" name="Project Creation Detail">
        <mxGraphModel dx="1914" dy="1228" grid="0" gridSize="10" guides="1" tooltips="1" connect="1" arrows="1" fold="1" page="0" pageScale="1" pageWidth="850" pageHeight="1100" math="0" shadow="0">
            <root>
                <mxCell id="0"/>
                <mxCell id="1" parent="0"/>
                <mxCell id="tyZvs1cqWmHK9Q_lpbi--1" value="" style="rounded=0;whiteSpace=wrap;html=1;" parent="1" vertex="1">
                    <mxGeometry x="-104" y="-135" width="1164" height="801" as="geometry"/>
                </mxCell>
                <mxCell id="tyZvs1cqWmHK9Q_lpbi--2" value="MPAS Project Onboarding" style="text;html=1;align=center;verticalAlign=middle;resizable=0;points=[];autosize=1;strokeColor=none;fillColor=none;fontStyle=1;fontSize=24;" parent="1" vertex="1">
                    <mxGeometry x="-95" y="-125" width="316" height="41" as="geometry"/>
                </mxCell>
                <mxCell id="tyZvs1cqWmHK9Q_lpbi--3" style="edgeStyle=orthogonalEdgeStyle;rounded=0;orthogonalLoop=1;jettySize=auto;html=1;" parent="1" source="tyZvs1cqWmHK9Q_lpbi--26" target="tyZvs1cqWmHK9Q_lpbi--24" edge="1">
                    <mxGeometry relative="1" as="geometry"/>
                </mxCell>
                <mxCell id="tyZvs1cqWmHK9Q_lpbi--4" style="edgeStyle=orthogonalEdgeStyle;rounded=0;orthogonalLoop=1;jettySize=auto;html=1;dashed=1;" parent="1" source="tyZvs1cqWmHK9Q_lpbi--5" target="tyZvs1cqWmHK9Q_lpbi--38" edge="1">
                    <mxGeometry relative="1" as="geometry">
                        <Array as="points">
                            <mxPoint x="753" y="385"/>
                            <mxPoint x="-12" y="385"/>
                        </Array>
                    </mxGeometry>
                </mxCell>
                <mxCell id="tyZvs1cqWmHK9Q_lpbi--5" value="Repository&lt;br&gt;CR" style="rounded=0;whiteSpace=wrap;html=1;fillColor=#f8cecc;strokeColor=#b85450;" parent="1" vertex="1">
                    <mxGeometry x="693" y="293" width="120" height="60" as="geometry"/>
                </mxCell>
                <mxCell id="tyZvs1cqWmHK9Q_lpbi--6" style="edgeStyle=orthogonalEdgeStyle;rounded=0;orthogonalLoop=1;jettySize=auto;html=1;" parent="1" source="tyZvs1cqWmHK9Q_lpbi--7" target="tyZvs1cqWmHK9Q_lpbi--9" edge="1">
                    <mxGeometry relative="1" as="geometry"/>
                </mxCell>
                <mxCell id="tyZvs1cqWmHK9Q_lpbi--7" value="" style="shadow=0;dashed=0;html=1;strokeColor=none;fillColor=#4495D1;labelPosition=center;verticalLabelPosition=bottom;verticalAlign=top;align=center;outlineConnect=0;shape=mxgraph.veeam.portal_admin;" parent="1" vertex="1">
                    <mxGeometry x="-34" y="-24.400000000000006" width="44.4" height="48.8" as="geometry"/>
                </mxCell>
                <mxCell id="tyZvs1cqWmHK9Q_lpbi--8" style="edgeStyle=orthogonalEdgeStyle;rounded=0;orthogonalLoop=1;jettySize=auto;html=1;" parent="1" source="tyZvs1cqWmHK9Q_lpbi--9" target="tyZvs1cqWmHK9Q_lpbi--13" edge="1">
                    <mxGeometry relative="1" as="geometry">
                        <mxPoint x="250" y="20" as="targetPoint"/>
                    </mxGeometry>
                </mxCell>
                <mxCell id="tyZvs1cqWmHK9Q_lpbi--9" value="Project CR" style="rounded=0;whiteSpace=wrap;html=1;fillColor=#f8cecc;strokeColor=#b85450;" parent="1" vertex="1">
                    <mxGeometry x="70" y="-30" width="120" height="60" as="geometry"/>
                </mxCell>
                <mxCell id="tyZvs1cqWmHK9Q_lpbi--10" style="edgeStyle=orthogonalEdgeStyle;rounded=0;orthogonalLoop=1;jettySize=auto;html=1;" parent="1" source="tyZvs1cqWmHK9Q_lpbi--12" target="tyZvs1cqWmHK9Q_lpbi--17" edge="1">
                    <mxGeometry relative="1" as="geometry"/>
                </mxCell>
                <mxCell id="tyZvs1cqWmHK9Q_lpbi--11" value="" style="edgeStyle=orthogonalEdgeStyle;rounded=0;orthogonalLoop=1;jettySize=auto;html=1;" parent="1" source="tyZvs1cqWmHK9Q_lpbi--12" target="tyZvs1cqWmHK9Q_lpbi--38" edge="1">
                    <mxGeometry relative="1" as="geometry"/>
                </mxCell>
                <mxCell id="tyZvs1cqWmHK9Q_lpbi--12" value="Git Controller" style="rounded=0;whiteSpace=wrap;html=1;fillColor=#d5e8d4;strokeColor=#82b366;" parent="1" vertex="1">
                    <mxGeometry x="84" y="421" width="120" height="60" as="geometry"/>
                </mxCell>
                <mxCell id="tyZvs1cqWmHK9Q_lpbi--13" value="" style="shape=cylinder3;whiteSpace=wrap;html=1;boundedLbl=1;backgroundOutline=1;size=15;" parent="1" vertex="1">
                    <mxGeometry x="254" y="-40" width="60" height="80" as="geometry"/>
                </mxCell>
                <mxCell id="tyZvs1cqWmHK9Q_lpbi--14" value="" style="shape=cylinder3;whiteSpace=wrap;html=1;boundedLbl=1;backgroundOutline=1;size=15;" parent="1" vertex="1">
                    <mxGeometry x="285" y="525" width="60" height="80" as="geometry"/>
                </mxCell>
                <mxCell id="tyZvs1cqWmHK9Q_lpbi--15" style="edgeStyle=orthogonalEdgeStyle;rounded=0;orthogonalLoop=1;jettySize=auto;html=1;" parent="1" source="tyZvs1cqWmHK9Q_lpbi--17" target="tyZvs1cqWmHK9Q_lpbi--40" edge="1">
                    <mxGeometry relative="1" as="geometry"/>
                </mxCell>
                <mxCell id="tyZvs1cqWmHK9Q_lpbi--16" value="" style="edgeStyle=orthogonalEdgeStyle;rounded=0;orthogonalLoop=1;jettySize=auto;html=1;" parent="1" source="tyZvs1cqWmHK9Q_lpbi--17" target="tyZvs1cqWmHK9Q_lpbi--14" edge="1">
                    <mxGeometry relative="1" as="geometry"/>
                </mxCell>
                <mxCell id="tyZvs1cqWmHK9Q_lpbi--17" value="create&lt;br&gt;repo" style="rhombus;whiteSpace=wrap;html=1;" parent="1" vertex="1">
                    <mxGeometry x="275" y="411" width="80" height="80" as="geometry"/>
                </mxCell>
                <mxCell id="tyZvs1cqWmHK9Q_lpbi--18" style="edgeStyle=orthogonalEdgeStyle;rounded=0;orthogonalLoop=1;jettySize=auto;html=1;" parent="1" source="tyZvs1cqWmHK9Q_lpbi--20" target="tyZvs1cqWmHK9Q_lpbi--13" edge="1">
                    <mxGeometry relative="1" as="geometry"/>
                </mxCell>
                <mxCell id="tyZvs1cqWmHK9Q_lpbi--19" style="edgeStyle=orthogonalEdgeStyle;rounded=0;orthogonalLoop=1;jettySize=auto;html=1;" parent="1" source="tyZvs1cqWmHK9Q_lpbi--20" target="tyZvs1cqWmHK9Q_lpbi--23" edge="1">
                    <mxGeometry relative="1" as="geometry"/>
                </mxCell>
                <mxCell id="tyZvs1cqWmHK9Q_lpbi--20" value="Flux Source&amp;nbsp;Controller" style="rounded=0;whiteSpace=wrap;html=1;fillColor=#dae8fc;strokeColor=#6c8ebf;" parent="1" vertex="1">
                    <mxGeometry x="378" y="-30" width="120" height="60" as="geometry"/>
                </mxCell>
                <mxCell id="tyZvs1cqWmHK9Q_lpbi--21" style="edgeStyle=orthogonalEdgeStyle;rounded=0;orthogonalLoop=1;jettySize=auto;html=1;startArrow=none;" parent="1" source="tyZvs1cqWmHK9Q_lpbi--26" target="tyZvs1cqWmHK9Q_lpbi--24" edge="1">
                    <mxGeometry relative="1" as="geometry">
                        <Array as="points"/>
                    </mxGeometry>
                </mxCell>
                <mxCell id="tyZvs1cqWmHK9Q_lpbi--22" style="edgeStyle=orthogonalEdgeStyle;rounded=0;orthogonalLoop=1;jettySize=auto;html=1;entryX=0.5;entryY=0;entryDx=0;entryDy=0;" parent="1" source="tyZvs1cqWmHK9Q_lpbi--23" target="tyZvs1cqWmHK9Q_lpbi--43" edge="1">
                    <mxGeometry relative="1" as="geometry"/>
                </mxCell>
                <mxCell id="tyZvs1cqWmHK9Q_lpbi--23" value="create&lt;br&gt;Project" style="rhombus;whiteSpace=wrap;html=1;" parent="1" vertex="1">
                    <mxGeometry x="564" y="-40" width="80" height="80" as="geometry"/>
                </mxCell>
                <mxCell id="tyZvs1cqWmHK9Q_lpbi--24" value="New Project CR&lt;br&gt;Event" style="shape=parallelogram;perimeter=parallelogramPerimeter;whiteSpace=wrap;html=1;fixedSize=1;" parent="1" vertex="1">
                    <mxGeometry x="-71.80000000000001" y="192" width="120" height="60" as="geometry"/>
                </mxCell>
                <mxCell id="tyZvs1cqWmHK9Q_lpbi--25" style="edgeStyle=orthogonalEdgeStyle;rounded=0;orthogonalLoop=1;jettySize=auto;html=1;" parent="1" source="tyZvs1cqWmHK9Q_lpbi--26" target="tyZvs1cqWmHK9Q_lpbi--29" edge="1">
                    <mxGeometry relative="1" as="geometry"/>
                </mxCell>
                <mxCell id="tyZvs1cqWmHK9Q_lpbi--26" value="Project Controller" style="rounded=0;whiteSpace=wrap;html=1;fillColor=#d5e8d4;strokeColor=#82b366;" parent="1" vertex="1">
                    <mxGeometry x="88" y="192" width="120" height="60" as="geometry"/>
                </mxCell>
                <mxCell id="tyZvs1cqWmHK9Q_lpbi--27" style="edgeStyle=orthogonalEdgeStyle;rounded=0;orthogonalLoop=1;jettySize=auto;html=1;" parent="1" source="tyZvs1cqWmHK9Q_lpbi--29" target="tyZvs1cqWmHK9Q_lpbi--31" edge="1">
                    <mxGeometry relative="1" as="geometry"/>
                </mxCell>
                <mxCell id="tyZvs1cqWmHK9Q_lpbi--28" style="edgeStyle=orthogonalEdgeStyle;rounded=0;orthogonalLoop=1;jettySize=auto;html=1;" parent="1" source="tyZvs1cqWmHK9Q_lpbi--29" target="tyZvs1cqWmHK9Q_lpbi--34" edge="1">
                    <mxGeometry relative="1" as="geometry"/>
                </mxCell>
                <mxCell id="tyZvs1cqWmHK9Q_lpbi--29" value="create&lt;br&gt;project&lt;br&gt;ns" style="rhombus;whiteSpace=wrap;html=1;" parent="1" vertex="1">
                    <mxGeometry x="271" y="182" width="80" height="80" as="geometry"/>
                </mxCell>
                <mxCell id="tyZvs1cqWmHK9Q_lpbi--30" value="ServiceAccount" style="rounded=0;whiteSpace=wrap;html=1;fillColor=#f8cecc;strokeColor=#b85450;" parent="1" vertex="1">
                    <mxGeometry x="396" y="293" width="120" height="60" as="geometry"/>
                </mxCell>
                <mxCell id="tyZvs1cqWmHK9Q_lpbi--31" value="Namespace" style="rounded=0;whiteSpace=wrap;html=1;fillColor=#f8cecc;strokeColor=#b85450;" parent="1" vertex="1">
                    <mxGeometry x="251" y="293" width="120" height="60" as="geometry"/>
                </mxCell>
                <mxCell id="tyZvs1cqWmHK9Q_lpbi--32" style="edgeStyle=orthogonalEdgeStyle;rounded=0;orthogonalLoop=1;jettySize=auto;html=1;" parent="1" source="tyZvs1cqWmHK9Q_lpbi--34" target="tyZvs1cqWmHK9Q_lpbi--30" edge="1">
                    <mxGeometry relative="1" as="geometry"/>
                </mxCell>
                <mxCell id="tyZvs1cqWmHK9Q_lpbi--33" style="edgeStyle=orthogonalEdgeStyle;rounded=0;orthogonalLoop=1;jettySize=auto;html=1;" parent="1" source="tyZvs1cqWmHK9Q_lpbi--34" target="tyZvs1cqWmHK9Q_lpbi--49" edge="1">
                    <mxGeometry relative="1" as="geometry"/>
                </mxCell>
                <mxCell id="tyZvs1cqWmHK9Q_lpbi--34" value="create&lt;br&gt;project&lt;br&gt;sa" style="rhombus;whiteSpace=wrap;html=1;" parent="1" vertex="1">
                    <mxGeometry x="416" y="182" width="80" height="80" as="geometry"/>
                </mxCell>
                <mxCell id="tyZvs1cqWmHK9Q_lpbi--35" style="edgeStyle=orthogonalEdgeStyle;rounded=0;orthogonalLoop=1;jettySize=auto;html=1;" parent="1" source="tyZvs1cqWmHK9Q_lpbi--37" target="tyZvs1cqWmHK9Q_lpbi--5" edge="1">
                    <mxGeometry relative="1" as="geometry"/>
                </mxCell>
                <mxCell id="tyZvs1cqWmHK9Q_lpbi--36" style="edgeStyle=orthogonalEdgeStyle;rounded=0;orthogonalLoop=1;jettySize=auto;html=1;" parent="1" source="tyZvs1cqWmHK9Q_lpbi--37" target="tyZvs1cqWmHK9Q_lpbi--51" edge="1">
                    <mxGeometry relative="1" as="geometry"/>
                </mxCell>
                <mxCell id="tyZvs1cqWmHK9Q_lpbi--37" value="create&lt;br&gt;project&lt;br&gt;repo" style="rhombus;whiteSpace=wrap;html=1;" parent="1" vertex="1">
                    <mxGeometry x="713" y="182" width="80" height="80" as="geometry"/>
                </mxCell>
                <mxCell id="tyZvs1cqWmHK9Q_lpbi--38" value="New Repository &lt;br&gt;CR Event" style="shape=parallelogram;perimeter=parallelogramPerimeter;whiteSpace=wrap;html=1;fixedSize=1;" parent="1" vertex="1">
                    <mxGeometry x="-71.80000000000001" y="421" width="120" height="60" as="geometry"/>
                </mxCell>
                <mxCell id="tyZvs1cqWmHK9Q_lpbi--39" style="edgeStyle=orthogonalEdgeStyle;rounded=0;orthogonalLoop=1;jettySize=auto;html=1;" parent="1" source="tyZvs1cqWmHK9Q_lpbi--40" target="tyZvs1cqWmHK9Q_lpbi--41" edge="1">
                    <mxGeometry relative="1" as="geometry"/>
                </mxCell>
                <mxCell id="tyZvs1cqWmHK9Q_lpbi--40" value="configure&lt;br&gt;directories" style="rhombus;whiteSpace=wrap;html=1;" parent="1" vertex="1">
                    <mxGeometry x="408" y="411" width="80" height="80" as="geometry"/>
                </mxCell>
                <mxCell id="tyZvs1cqWmHK9Q_lpbi--41" value="add&lt;br&gt;code-&lt;br&gt;owners" style="rhombus;whiteSpace=wrap;html=1;" parent="1" vertex="1">
                    <mxGeometry x="536" y="411" width="80" height="80" as="geometry"/>
                </mxCell>
                <mxCell id="tyZvs1cqWmHK9Q_lpbi--42" style="edgeStyle=orthogonalEdgeStyle;rounded=0;orthogonalLoop=1;jettySize=auto;html=1;dashed=1;" parent="1" source="tyZvs1cqWmHK9Q_lpbi--43" target="tyZvs1cqWmHK9Q_lpbi--24" edge="1">
                    <mxGeometry relative="1" as="geometry">
                        <Array as="points">
                            <mxPoint x="604" y="161"/>
                            <mxPoint x="-12" y="161"/>
                        </Array>
                    </mxGeometry>
                </mxCell>
                <mxCell id="tyZvs1cqWmHK9Q_lpbi--43" value="Project&lt;br&gt;CR" style="rounded=0;whiteSpace=wrap;html=1;fillColor=#f8cecc;strokeColor=#b85450;" parent="1" vertex="1">
                    <mxGeometry x="544" y="67" width="120" height="60" as="geometry"/>
                </mxCell>
                <mxCell id="tyZvs1cqWmHK9Q_lpbi--44" value="MPAS&lt;br&gt;Management&lt;br&gt;Repository" style="text;html=1;align=center;verticalAlign=middle;resizable=0;points=[];autosize=1;strokeColor=none;fillColor=none;" parent="1" vertex="1">
                    <mxGeometry x="240" y="46" width="88" height="55" as="geometry"/>
                </mxCell>
                <mxCell id="tyZvs1cqWmHK9Q_lpbi--45" value="Project&lt;br&gt;Repository" style="text;html=1;align=center;verticalAlign=middle;resizable=0;points=[];autosize=1;strokeColor=none;fillColor=none;" parent="1" vertex="1">
                    <mxGeometry x="277.5" y="608" width="75" height="41" as="geometry"/>
                </mxCell>
                <mxCell id="tyZvs1cqWmHK9Q_lpbi--46" value="Role&amp;nbsp;&lt;br&gt;Binding" style="rounded=0;whiteSpace=wrap;html=1;fillColor=#f8cecc;strokeColor=#b85450;" parent="1" vertex="1">
                    <mxGeometry x="544" y="293" width="120" height="60" as="geometry"/>
                </mxCell>
                <mxCell id="tyZvs1cqWmHK9Q_lpbi--47" style="edgeStyle=orthogonalEdgeStyle;rounded=0;orthogonalLoop=1;jettySize=auto;html=1;" parent="1" source="tyZvs1cqWmHK9Q_lpbi--49" target="tyZvs1cqWmHK9Q_lpbi--37" edge="1">
                    <mxGeometry relative="1" as="geometry"/>
                </mxCell>
                <mxCell id="tyZvs1cqWmHK9Q_lpbi--48" value="" style="edgeStyle=orthogonalEdgeStyle;rounded=0;orthogonalLoop=1;jettySize=auto;html=1;" parent="1" source="tyZvs1cqWmHK9Q_lpbi--49" target="tyZvs1cqWmHK9Q_lpbi--46" edge="1">
                    <mxGeometry relative="1" as="geometry"/>
                </mxCell>
                <mxCell id="tyZvs1cqWmHK9Q_lpbi--49" value="create&lt;br&gt;rbac" style="rhombus;whiteSpace=wrap;html=1;" parent="1" vertex="1">
                    <mxGeometry x="564" y="182" width="80" height="80" as="geometry"/>
                </mxCell>
                <mxCell id="tyZvs1cqWmHK9Q_lpbi--50" style="edgeStyle=orthogonalEdgeStyle;rounded=0;orthogonalLoop=1;jettySize=auto;html=1;" parent="1" source="tyZvs1cqWmHK9Q_lpbi--51" target="tyZvs1cqWmHK9Q_lpbi--54" edge="1">
                    <mxGeometry relative="1" as="geometry"/>
                </mxCell>
                <mxCell id="tyZvs1cqWmHK9Q_lpbi--51" value="create&lt;br&gt;flux&lt;br&gt;CRs" style="rhombus;whiteSpace=wrap;html=1;" parent="1" vertex="1">
                    <mxGeometry x="869" y="182" width="80" height="80" as="geometry"/>
                </mxCell>
                <mxCell id="tyZvs1cqWmHK9Q_lpbi--52" value="" style="edgeStyle=orthogonalEdgeStyle;rounded=0;orthogonalLoop=1;jettySize=auto;html=1;" parent="1" source="tyZvs1cqWmHK9Q_lpbi--54" target="tyZvs1cqWmHK9Q_lpbi--55" edge="1">
                    <mxGeometry relative="1" as="geometry"/>
                </mxCell>
                <mxCell id="tyZvs1cqWmHK9Q_lpbi--53" style="edgeStyle=orthogonalEdgeStyle;rounded=0;orthogonalLoop=1;jettySize=auto;html=1;dashed=1;" parent="1" source="tyZvs1cqWmHK9Q_lpbi--54" target="tyZvs1cqWmHK9Q_lpbi--14" edge="1">
                    <mxGeometry relative="1" as="geometry">
                        <Array as="points">
                            <mxPoint x="1013" y="323"/>
                            <mxPoint x="1013" y="572"/>
                        </Array>
                    </mxGeometry>
                </mxCell>
                <mxCell id="tyZvs1cqWmHK9Q_lpbi--54" value="GitRepository&lt;br&gt;CR" style="rounded=0;whiteSpace=wrap;html=1;fillColor=#f8cecc;strokeColor=#b85450;" parent="1" vertex="1">
                    <mxGeometry x="849" y="293" width="120" height="60" as="geometry"/>
                </mxCell>
                <mxCell id="tyZvs1cqWmHK9Q_lpbi--55" value="Kustomization&lt;br&gt;CRs" style="rounded=0;whiteSpace=wrap;html=1;fillColor=#f8cecc;strokeColor=#b85450;" parent="1" vertex="1">
                    <mxGeometry x="849" y="381" width="120" height="60" as="geometry"/>
                </mxCell>
            </root>
        </mxGraphModel>
    </diagram>
    <diagram id="kIa3NY-OHxwXN3VY_BYb" name="Product Installation High-level">
        <mxGraphModel dx="1914" dy="1228" grid="0" gridSize="10" guides="1" tooltips="1" connect="1" arrows="1" fold="1" page="0" pageScale="1" pageWidth="850" pageHeight="1100" math="0" shadow="0">
            <root>
                <mxCell id="0"/>
                <mxCell id="1" parent="0"/>
                <mxCell id="ims0uFeycux1JR6k0fGl-1" value="" style="rounded=0;whiteSpace=wrap;html=1;" parent="1" vertex="1">
                    <mxGeometry x="-239" y="-179" width="1111" height="753" as="geometry"/>
                </mxCell>
                <mxCell id="_Gofqan8qYR2WX-uPMvk-16" style="edgeStyle=orthogonalEdgeStyle;rounded=0;orthogonalLoop=1;jettySize=auto;html=1;" parent="1" source="5AaWpjVmNv7n2nTCxuCw-58" target="_Gofqan8qYR2WX-uPMvk-15" edge="1">
                    <mxGeometry relative="1" as="geometry"/>
                </mxCell>
                <mxCell id="5AaWpjVmNv7n2nTCxuCw-58" value="" style="rounded=0;whiteSpace=wrap;html=1;fillColor=#f8cecc;dashed=1;strokeColor=#b85450;opacity=50;" parent="1" vertex="1">
                    <mxGeometry x="281.5" y="-58" width="183" height="339" as="geometry"/>
                </mxCell>
                <mxCell id="5AaWpjVmNv7n2nTCxuCw-56" value="" style="rounded=0;whiteSpace=wrap;html=1;fillColor=#fff2cc;dashed=1;strokeColor=#d6b656;opacity=50;" parent="1" vertex="1">
                    <mxGeometry x="-63" y="-58" width="668" height="118" as="geometry"/>
                </mxCell>
                <mxCell id="5AaWpjVmNv7n2nTCxuCw-2" value="MPAS Product Installation" style="text;html=1;align=center;verticalAlign=middle;resizable=0;points=[];autosize=1;strokeColor=none;fillColor=none;fontStyle=1;fontSize=24;" parent="1" vertex="1">
                    <mxGeometry x="-167" y="-163" width="316" height="41" as="geometry"/>
                </mxCell>
                <mxCell id="5AaWpjVmNv7n2nTCxuCw-47" value="" style="edgeStyle=orthogonalEdgeStyle;rounded=0;orthogonalLoop=1;jettySize=auto;html=1;" parent="1" source="5AaWpjVmNv7n2nTCxuCw-17" target="5AaWpjVmNv7n2nTCxuCw-46" edge="1">
                    <mxGeometry relative="1" as="geometry"/>
                </mxCell>
                <mxCell id="5AaWpjVmNv7n2nTCxuCw-17" value="Product Description" style="rounded=0;whiteSpace=wrap;html=1;fillColor=#f8cecc;strokeColor=#b85450;" parent="1" vertex="1">
                    <mxGeometry x="-52" y="-26" width="120" height="60" as="geometry"/>
                </mxCell>
                <mxCell id="5AaWpjVmNv7n2nTCxuCw-48" value="" style="edgeStyle=orthogonalEdgeStyle;rounded=0;orthogonalLoop=1;jettySize=auto;html=1;" parent="1" source="5AaWpjVmNv7n2nTCxuCw-45" target="5AaWpjVmNv7n2nTCxuCw-46" edge="1">
                    <mxGeometry relative="1" as="geometry"/>
                </mxCell>
                <mxCell id="5AaWpjVmNv7n2nTCxuCw-50" value="" style="edgeStyle=orthogonalEdgeStyle;rounded=0;orthogonalLoop=1;jettySize=auto;html=1;" parent="1" source="5AaWpjVmNv7n2nTCxuCw-45" target="5AaWpjVmNv7n2nTCxuCw-49" edge="1">
                    <mxGeometry relative="1" as="geometry"/>
                </mxCell>
                <mxCell id="5AaWpjVmNv7n2nTCxuCw-45" value="Subscription" style="rounded=0;whiteSpace=wrap;html=1;fillColor=#f8cecc;strokeColor=#b85450;" parent="1" vertex="1">
                    <mxGeometry x="313" y="-26" width="120" height="60" as="geometry"/>
                </mxCell>
                <mxCell id="5AaWpjVmNv7n2nTCxuCw-46" value="Provider&lt;br&gt;OCM" style="shape=cylinder3;whiteSpace=wrap;html=1;boundedLbl=1;backgroundOutline=1;size=15;" parent="1" vertex="1">
                    <mxGeometry x="149" y="-36" width="60" height="80" as="geometry"/>
                </mxCell>
                <mxCell id="5AaWpjVmNv7n2nTCxuCw-49" value="Customer&lt;br&gt;OCM" style="shape=cylinder3;whiteSpace=wrap;html=1;boundedLbl=1;backgroundOutline=1;size=15;" parent="1" vertex="1">
                    <mxGeometry x="523" y="-36" width="60" height="80" as="geometry"/>
                </mxCell>
                <mxCell id="5AaWpjVmNv7n2nTCxuCw-52" style="edgeStyle=orthogonalEdgeStyle;rounded=0;orthogonalLoop=1;jettySize=auto;html=1;" parent="1" source="5AaWpjVmNv7n2nTCxuCw-51" target="5AaWpjVmNv7n2nTCxuCw-45" edge="1">
                    <mxGeometry relative="1" as="geometry"/>
                </mxCell>
                <mxCell id="5AaWpjVmNv7n2nTCxuCw-53" value="" style="edgeStyle=orthogonalEdgeStyle;rounded=0;orthogonalLoop=1;jettySize=auto;html=1;" parent="1" source="5AaWpjVmNv7n2nTCxuCw-51" target="5AaWpjVmNv7n2nTCxuCw-49" edge="1">
                    <mxGeometry relative="1" as="geometry"/>
                </mxCell>
                <mxCell id="5AaWpjVmNv7n2nTCxuCw-55" value="" style="edgeStyle=orthogonalEdgeStyle;rounded=0;orthogonalLoop=1;jettySize=auto;html=1;" parent="1" source="5AaWpjVmNv7n2nTCxuCw-51" target="5AaWpjVmNv7n2nTCxuCw-54" edge="1">
                    <mxGeometry relative="1" as="geometry"/>
                </mxCell>
                <mxCell id="5AaWpjVmNv7n2nTCxuCw-51" value="Product&lt;br&gt;Deployment&lt;br&gt;Generator" style="rounded=0;whiteSpace=wrap;html=1;fillColor=#f8cecc;strokeColor=#b85450;" parent="1" vertex="1">
                    <mxGeometry x="313" y="86" width="120" height="60" as="geometry"/>
                </mxCell>
                <mxCell id="5AaWpjVmNv7n2nTCxuCw-54" value="Product&lt;br&gt;Deployment" style="rounded=0;whiteSpace=wrap;html=1;fillColor=#f8cecc;strokeColor=#b85450;" parent="1" vertex="1">
                    <mxGeometry x="313" y="207" width="120" height="60" as="geometry"/>
                </mxCell>
                <mxCell id="5AaWpjVmNv7n2nTCxuCw-57" style="edgeStyle=orthogonalEdgeStyle;rounded=0;orthogonalLoop=1;jettySize=auto;html=1;exitX=0.5;exitY=1;exitDx=0;exitDy=0;" parent="1" source="5AaWpjVmNv7n2nTCxuCw-56" target="5AaWpjVmNv7n2nTCxuCw-56" edge="1">
                    <mxGeometry relative="1" as="geometry"/>
                </mxCell>
                <mxCell id="5AaWpjVmNv7n2nTCxuCw-59" value="get&lt;br&gt;Product&lt;br&gt;Description" style="text;html=1;align=center;verticalAlign=middle;resizable=0;points=[];autosize=1;strokeColor=none;fillColor=none;" parent="1" vertex="1">
                    <mxGeometry x="462" y="59" width="78" height="55" as="geometry"/>
                </mxCell>
                <mxCell id="5AaWpjVmNv7n2nTCxuCw-60" value="publish&lt;br&gt;product&lt;br&gt;component" style="text;html=1;align=center;verticalAlign=middle;resizable=0;points=[];autosize=1;strokeColor=none;fillColor=none;" parent="1" vertex="1">
                    <mxGeometry x="69" y="-50" width="77" height="55" as="geometry"/>
                </mxCell>
                <mxCell id="5AaWpjVmNv7n2nTCxuCw-61" value="replicate&lt;br&gt;product&lt;br&gt;component" style="text;html=1;align=center;verticalAlign=middle;resizable=0;points=[];autosize=1;strokeColor=none;fillColor=default;" parent="1" vertex="1">
                    <mxGeometry x="285" y="-91" width="77" height="55" as="geometry"/>
                </mxCell>
                <mxCell id="5AaWpjVmNv7n2nTCxuCw-62" value="lookup&lt;br&gt;product" style="text;html=1;align=center;verticalAlign=middle;resizable=0;points=[];autosize=1;strokeColor=none;fillColor=default;" parent="1" vertex="1">
                    <mxGeometry x="296" y="38" width="58" height="41" as="geometry"/>
                </mxCell>
                <mxCell id="5AaWpjVmNv7n2nTCxuCw-63" value="generate&lt;br&gt;deployment" style="text;html=1;align=center;verticalAlign=middle;resizable=0;points=[];autosize=1;strokeColor=none;fillColor=default;" parent="1" vertex="1">
                    <mxGeometry x="285" y="157" width="80" height="41" as="geometry"/>
                </mxCell>
                <mxCell id="_Gofqan8qYR2WX-uPMvk-2" style="edgeStyle=orthogonalEdgeStyle;rounded=0;orthogonalLoop=1;jettySize=auto;html=1;" parent="1" source="_Gofqan8qYR2WX-uPMvk-1" target="5AaWpjVmNv7n2nTCxuCw-17" edge="1">
                    <mxGeometry relative="1" as="geometry">
                        <Array as="points">
                            <mxPoint x="-98" y="4"/>
                            <mxPoint x="-98" y="4"/>
                        </Array>
                    </mxGeometry>
                </mxCell>
                <mxCell id="jY3oFdRYEpoSbkBJEw2v-4" value="creates" style="edgeLabel;html=1;align=center;verticalAlign=middle;resizable=0;points=[];" vertex="1" connectable="0" parent="_Gofqan8qYR2WX-uPMvk-2">
                    <mxGeometry x="-0.7657" y="2" relative="1" as="geometry">
                        <mxPoint x="23" y="2" as="offset"/>
                    </mxGeometry>
                </mxCell>
                <mxCell id="_Gofqan8qYR2WX-uPMvk-1" value="Product&lt;br&gt;Provider" style="shadow=0;dashed=0;html=1;strokeColor=none;fillColor=#4495D1;labelPosition=center;verticalLabelPosition=bottom;verticalAlign=top;align=center;outlineConnect=0;shape=mxgraph.veeam.portal_admin;" parent="1" vertex="1">
                    <mxGeometry x="-192" y="-20.400000000000006" width="44.4" height="48.8" as="geometry"/>
                </mxCell>
                <mxCell id="_Gofqan8qYR2WX-uPMvk-4" style="edgeStyle=orthogonalEdgeStyle;rounded=0;orthogonalLoop=1;jettySize=auto;html=1;" parent="1" source="_Gofqan8qYR2WX-uPMvk-3" target="5AaWpjVmNv7n2nTCxuCw-51" edge="1">
                    <mxGeometry relative="1" as="geometry"/>
                </mxCell>
                <mxCell id="jY3oFdRYEpoSbkBJEw2v-1" value="creates" style="edgeLabel;html=1;align=center;verticalAlign=middle;resizable=0;points=[];" vertex="1" connectable="0" parent="_Gofqan8qYR2WX-uPMvk-4">
                    <mxGeometry x="-0.3045" y="-4" relative="1" as="geometry">
                        <mxPoint y="-4" as="offset"/>
                    </mxGeometry>
                </mxCell>
                <mxCell id="_Gofqan8qYR2WX-uPMvk-3" value="Product&lt;br&gt;Consumer" style="shadow=0;dashed=0;html=1;strokeColor=none;fillColor=#4495D1;labelPosition=center;verticalLabelPosition=bottom;verticalAlign=top;align=center;outlineConnect=0;shape=mxgraph.veeam.portal_admin;" parent="1" vertex="1">
                    <mxGeometry x="130" y="91.6" width="44.4" height="48.8" as="geometry"/>
                </mxCell>
                <mxCell id="_Gofqan8qYR2WX-uPMvk-9" style="edgeStyle=orthogonalEdgeStyle;rounded=0;orthogonalLoop=1;jettySize=auto;html=1;" parent="1" source="_Gofqan8qYR2WX-uPMvk-7" target="5AaWpjVmNv7n2nTCxuCw-54" edge="1">
                    <mxGeometry relative="1" as="geometry"/>
                </mxCell>
                <mxCell id="jY3oFdRYEpoSbkBJEw2v-3" value="creates" style="edgeLabel;html=1;align=center;verticalAlign=middle;resizable=0;points=[];" vertex="1" connectable="0" parent="_Gofqan8qYR2WX-uPMvk-9">
                    <mxGeometry x="-0.29" relative="1" as="geometry">
                        <mxPoint as="offset"/>
                    </mxGeometry>
                </mxCell>
                <mxCell id="_Gofqan8qYR2WX-uPMvk-7" value="MPAS&lt;br&gt;Automation" style="sketch=0;pointerEvents=1;shadow=0;dashed=0;html=1;strokeColor=none;fillColor=#4495D1;labelPosition=center;verticalLabelPosition=bottom;verticalAlign=top;align=center;outlineConnect=0;shape=mxgraph.veeam2.automation;" parent="1" vertex="1">
                    <mxGeometry x="123.4" y="211.5" width="51" height="51" as="geometry"/>
                </mxCell>
                <mxCell id="_Gofqan8qYR2WX-uPMvk-12" style="edgeStyle=orthogonalEdgeStyle;rounded=0;orthogonalLoop=1;jettySize=auto;html=1;" parent="1" source="_Gofqan8qYR2WX-uPMvk-10" target="5AaWpjVmNv7n2nTCxuCw-45" edge="1">
                    <mxGeometry relative="1" as="geometry"/>
                </mxCell>
                <mxCell id="jY3oFdRYEpoSbkBJEw2v-5" value="creates" style="edgeLabel;html=1;align=center;verticalAlign=middle;resizable=0;points=[];" vertex="1" connectable="0" parent="_Gofqan8qYR2WX-uPMvk-12">
                    <mxGeometry x="-0.3056" y="1" relative="1" as="geometry">
                        <mxPoint x="17" y="-1" as="offset"/>
                    </mxGeometry>
                </mxCell>
                <mxCell id="_Gofqan8qYR2WX-uPMvk-10" value="MPAS Operator or &lt;br&gt;Product Consumer" style="shadow=0;dashed=0;html=1;strokeColor=none;fillColor=#4495D1;labelPosition=center;verticalLabelPosition=bottom;verticalAlign=top;align=center;outlineConnect=0;shape=mxgraph.veeam.portal_admin;" parent="1" vertex="1">
                    <mxGeometry x="452" y="-154.00000000000003" width="44.4" height="48.8" as="geometry"/>
                </mxCell>
                <mxCell id="5AaWpjVmNv7n2nTCxuCw-22" value="Localization" style="rounded=0;whiteSpace=wrap;html=1;fillColor=#dae8fc;strokeColor=#6c8ebf;" parent="1" vertex="1">
                    <mxGeometry x="300" y="351" width="120" height="60" as="geometry"/>
                </mxCell>
                <mxCell id="5AaWpjVmNv7n2nTCxuCw-24" value="Configuration" style="rounded=0;whiteSpace=wrap;html=1;fillColor=#dae8fc;strokeColor=#6c8ebf;" parent="1" vertex="1">
                    <mxGeometry x="462" y="351" width="120" height="60" as="geometry"/>
                </mxCell>
                <mxCell id="5AaWpjVmNv7n2nTCxuCw-21" style="edgeStyle=orthogonalEdgeStyle;rounded=0;orthogonalLoop=1;jettySize=auto;html=1;entryX=0;entryY=0.5;entryDx=0;entryDy=0;" parent="1" source="5AaWpjVmNv7n2nTCxuCw-22" target="5AaWpjVmNv7n2nTCxuCw-24" edge="1">
                    <mxGeometry relative="1" as="geometry"/>
                </mxCell>
                <mxCell id="5AaWpjVmNv7n2nTCxuCw-27" value="Flux Kustomization" style="rounded=0;whiteSpace=wrap;html=1;fillColor=#dae8fc;strokeColor=#6c8ebf;" parent="1" vertex="1">
                    <mxGeometry x="622" y="351" width="120" height="60" as="geometry"/>
                </mxCell>
                <mxCell id="_Gofqan8qYR2WX-uPMvk-13" value="" style="edgeStyle=orthogonalEdgeStyle;rounded=0;orthogonalLoop=1;jettySize=auto;html=1;" parent="1" source="5AaWpjVmNv7n2nTCxuCw-24" target="5AaWpjVmNv7n2nTCxuCw-27" edge="1">
                    <mxGeometry relative="1" as="geometry"/>
                </mxCell>
                <mxCell id="5AaWpjVmNv7n2nTCxuCw-28" style="edgeStyle=orthogonalEdgeStyle;rounded=0;orthogonalLoop=1;jettySize=auto;html=1;" parent="1" source="5AaWpjVmNv7n2nTCxuCw-29" target="5AaWpjVmNv7n2nTCxuCw-22" edge="1">
                    <mxGeometry relative="1" as="geometry"/>
                </mxCell>
                <mxCell id="5AaWpjVmNv7n2nTCxuCw-29" value="Resource" style="rounded=0;whiteSpace=wrap;html=1;fillColor=#dae8fc;strokeColor=#6c8ebf;" parent="1" vertex="1">
                    <mxGeometry x="140" y="351" width="120" height="60" as="geometry"/>
                </mxCell>
                <mxCell id="5AaWpjVmNv7n2nTCxuCw-18" style="edgeStyle=orthogonalEdgeStyle;rounded=0;orthogonalLoop=1;jettySize=auto;html=1;entryX=0;entryY=0.5;entryDx=0;entryDy=0;" parent="1" source="5AaWpjVmNv7n2nTCxuCw-19" target="5AaWpjVmNv7n2nTCxuCw-29" edge="1">
                    <mxGeometry relative="1" as="geometry"/>
                </mxCell>
                <mxCell id="5AaWpjVmNv7n2nTCxuCw-19" value="ComponentVersion" style="rounded=0;whiteSpace=wrap;html=1;fillColor=#dae8fc;strokeColor=#6c8ebf;" parent="1" vertex="1">
                    <mxGeometry x="-12" y="351" width="120" height="60" as="geometry"/>
                </mxCell>
                <mxCell id="_Gofqan8qYR2WX-uPMvk-19" style="edgeStyle=orthogonalEdgeStyle;rounded=0;orthogonalLoop=1;jettySize=auto;html=1;" parent="1" source="_Gofqan8qYR2WX-uPMvk-15" edge="1">
                    <mxGeometry relative="1" as="geometry">
                        <mxPoint x="373" y="474" as="targetPoint"/>
                    </mxGeometry>
                </mxCell>
                <mxCell id="_Gofqan8qYR2WX-uPMvk-15" value="" style="rounded=0;whiteSpace=wrap;html=1;dashed=1;fillColor=none;fontStyle=1" parent="1" vertex="1">
                    <mxGeometry x="-25" y="329" width="796" height="103" as="geometry"/>
                </mxCell>
                <mxCell id="_Gofqan8qYR2WX-uPMvk-17" value="generate OCM pipeline" style="text;html=1;align=center;verticalAlign=middle;resizable=0;points=[];autosize=1;strokeColor=none;fillColor=default;" parent="1" vertex="1">
                    <mxGeometry x="218" y="294" width="141" height="26" as="geometry"/>
                </mxCell>
                <mxCell id="_Gofqan8qYR2WX-uPMvk-22" value="Target" style="rounded=0;whiteSpace=wrap;html=1;fillColor=#f8cecc;strokeColor=#b85450;" parent="1" vertex="1">
                    <mxGeometry x="313" y="477" width="120" height="60" as="geometry"/>
                </mxCell>
                <mxCell id="_Gofqan8qYR2WX-uPMvk-23" value="deploy to target" style="text;html=1;align=center;verticalAlign=middle;resizable=0;points=[];autosize=1;strokeColor=none;fillColor=default;" parent="1" vertex="1">
                    <mxGeometry x="250" y="443" width="101" height="26" as="geometry"/>
                </mxCell>
            </root>
        </mxGraphModel>
    </diagram>
    <diagram id="U6D5iE6r2lxp7dr_LsG4" name="Product Installation Detail">
        <mxGraphModel dx="1914" dy="1228" grid="0" gridSize="10" guides="1" tooltips="1" connect="1" arrows="1" fold="1" page="0" pageScale="1" pageWidth="850" pageHeight="1100" math="0" shadow="0">
            <root>
                <mxCell id="0"/>
                <mxCell id="1" parent="0"/>
                <mxCell id="yftn3xoo6vMwy91PrC80-1" value="" style="rounded=0;whiteSpace=wrap;html=1;movable=1;resizable=1;rotatable=1;deletable=1;editable=1;locked=0;connectable=1;" parent="1" vertex="1">
                    <mxGeometry x="-95" y="-55" width="1275" height="1102" as="geometry"/>
                </mxCell>
                <mxCell id="yftn3xoo6vMwy91PrC80-2" value="" style="rounded=0;whiteSpace=wrap;html=1;fillColor=#dae8fc;strokeColor=#6c8ebf;" parent="1" vertex="1">
                    <mxGeometry x="843" y="718" width="298" height="299" as="geometry"/>
                </mxCell>
                <mxCell id="yftn3xoo6vMwy91PrC80-3" value="" style="rounded=0;whiteSpace=wrap;html=1;fillColor=#ffe6cc;strokeColor=#d79b00;" parent="1" vertex="1">
                    <mxGeometry x="229" y="718" width="600" height="299" as="geometry"/>
                </mxCell>
                <mxCell id="yftn3xoo6vMwy91PrC80-4" value="MPAS Product Installation" style="text;html=1;align=center;verticalAlign=middle;resizable=0;points=[];autosize=1;strokeColor=none;fillColor=none;fontStyle=1;fontSize=24;" parent="1" vertex="1">
                    <mxGeometry x="844" y="-38" width="316" height="41" as="geometry"/>
                </mxCell>
                <mxCell id="yftn3xoo6vMwy91PrC80-5" style="edgeStyle=orthogonalEdgeStyle;rounded=0;orthogonalLoop=1;jettySize=auto;html=1;" parent="1" source="yftn3xoo6vMwy91PrC80-20" target="yftn3xoo6vMwy91PrC80-18" edge="1">
                    <mxGeometry relative="1" as="geometry"/>
                </mxCell>
                <mxCell id="yftn3xoo6vMwy91PrC80-6" style="edgeStyle=orthogonalEdgeStyle;rounded=0;orthogonalLoop=1;jettySize=auto;html=1;" parent="1" source="yftn3xoo6vMwy91PrC80-7" target="yftn3xoo6vMwy91PrC80-9" edge="1">
                    <mxGeometry relative="1" as="geometry"/>
                </mxCell>
                <mxCell id="yftn3xoo6vMwy91PrC80-7" value="" style="shadow=0;dashed=0;html=1;strokeColor=none;fillColor=#4495D1;labelPosition=center;verticalLabelPosition=bottom;verticalAlign=top;align=center;outlineConnect=0;shape=mxgraph.veeam.portal_admin;" parent="1" vertex="1">
                    <mxGeometry x="-34" y="-4.400000000000006" width="44.4" height="48.8" as="geometry"/>
                </mxCell>
                <mxCell id="yftn3xoo6vMwy91PrC80-8" style="edgeStyle=orthogonalEdgeStyle;rounded=0;orthogonalLoop=1;jettySize=auto;html=1;" parent="1" source="yftn3xoo6vMwy91PrC80-9" target="yftn3xoo6vMwy91PrC80-10" edge="1">
                    <mxGeometry relative="1" as="geometry">
                        <mxPoint x="250" y="20" as="targetPoint"/>
                    </mxGeometry>
                </mxCell>
                <mxCell id="yftn3xoo6vMwy91PrC80-9" value="Product&lt;br&gt;Deployment&lt;br&gt;Generator" style="rounded=0;whiteSpace=wrap;html=1;fillColor=#f8cecc;strokeColor=#b85450;" parent="1" vertex="1">
                    <mxGeometry x="70" y="-10" width="120" height="60" as="geometry"/>
                </mxCell>
                <mxCell id="yftn3xoo6vMwy91PrC80-10" value="" style="shape=cylinder3;whiteSpace=wrap;html=1;boundedLbl=1;backgroundOutline=1;size=15;" parent="1" vertex="1">
                    <mxGeometry x="254" y="-20" width="60" height="80" as="geometry"/>
                </mxCell>
                <mxCell id="yftn3xoo6vMwy91PrC80-11" value="" style="shape=cylinder3;whiteSpace=wrap;html=1;boundedLbl=1;backgroundOutline=1;size=15;" parent="1" vertex="1">
                    <mxGeometry x="515" y="520" width="60" height="80" as="geometry"/>
                </mxCell>
                <mxCell id="yftn3xoo6vMwy91PrC80-12" style="edgeStyle=orthogonalEdgeStyle;rounded=0;orthogonalLoop=1;jettySize=auto;html=1;" parent="1" source="yftn3xoo6vMwy91PrC80-14" target="yftn3xoo6vMwy91PrC80-10" edge="1">
                    <mxGeometry relative="1" as="geometry"/>
                </mxCell>
                <mxCell id="yftn3xoo6vMwy91PrC80-13" style="edgeStyle=orthogonalEdgeStyle;rounded=0;orthogonalLoop=1;jettySize=auto;html=1;" parent="1" source="yftn3xoo6vMwy91PrC80-14" target="yftn3xoo6vMwy91PrC80-17" edge="1">
                    <mxGeometry relative="1" as="geometry"/>
                </mxCell>
                <mxCell id="yftn3xoo6vMwy91PrC80-14" value="Flux Source&amp;nbsp;Controller" style="rounded=0;whiteSpace=wrap;html=1;fillColor=#dae8fc;strokeColor=#6c8ebf;" parent="1" vertex="1">
                    <mxGeometry x="378" y="-10" width="120" height="60" as="geometry"/>
                </mxCell>
                <mxCell id="yftn3xoo6vMwy91PrC80-15" style="edgeStyle=orthogonalEdgeStyle;rounded=0;orthogonalLoop=1;jettySize=auto;html=1;startArrow=none;" parent="1" source="yftn3xoo6vMwy91PrC80-20" target="yftn3xoo6vMwy91PrC80-18" edge="1">
                    <mxGeometry relative="1" as="geometry">
                        <Array as="points"/>
                    </mxGeometry>
                </mxCell>
                <mxCell id="yftn3xoo6vMwy91PrC80-16" style="edgeStyle=orthogonalEdgeStyle;rounded=0;orthogonalLoop=1;jettySize=auto;html=1;entryX=0.5;entryY=0;entryDx=0;entryDy=0;" parent="1" source="yftn3xoo6vMwy91PrC80-17" target="yftn3xoo6vMwy91PrC80-29" edge="1">
                    <mxGeometry relative="1" as="geometry"/>
                </mxCell>
                <mxCell id="yftn3xoo6vMwy91PrC80-17" value="apply&lt;br&gt;PDG" style="rhombus;whiteSpace=wrap;html=1;" parent="1" vertex="1">
                    <mxGeometry x="564" y="-20" width="80" height="80" as="geometry"/>
                </mxCell>
                <mxCell id="yftn3xoo6vMwy91PrC80-18" value="New PDG CR&lt;br&gt;Event" style="shape=parallelogram;perimeter=parallelogramPerimeter;whiteSpace=wrap;html=1;fixedSize=1;" parent="1" vertex="1">
                    <mxGeometry x="-71.80000000000001" y="192" width="120" height="60" as="geometry"/>
                </mxCell>
                <mxCell id="yftn3xoo6vMwy91PrC80-19" style="edgeStyle=orthogonalEdgeStyle;rounded=0;orthogonalLoop=1;jettySize=auto;html=1;" parent="1" source="yftn3xoo6vMwy91PrC80-20" target="yftn3xoo6vMwy91PrC80-22" edge="1">
                    <mxGeometry relative="1" as="geometry"/>
                </mxCell>
                <mxCell id="yftn3xoo6vMwy91PrC80-20" value="Product Controller" style="rounded=0;whiteSpace=wrap;html=1;fillColor=#d5e8d4;strokeColor=#82b366;" parent="1" vertex="1">
                    <mxGeometry x="88" y="192" width="120" height="60" as="geometry"/>
                </mxCell>
                <mxCell id="yftn3xoo6vMwy91PrC80-21" style="edgeStyle=orthogonalEdgeStyle;rounded=0;orthogonalLoop=1;jettySize=auto;html=1;" parent="1" source="yftn3xoo6vMwy91PrC80-22" target="yftn3xoo6vMwy91PrC80-24" edge="1">
                    <mxGeometry relative="1" as="geometry"/>
                </mxCell>
                <mxCell id="yftn3xoo6vMwy91PrC80-22" value="fetch&lt;br&gt;Subscribed&lt;br&gt;Comp." style="rhombus;whiteSpace=wrap;html=1;" parent="1" vertex="1">
                    <mxGeometry x="271" y="182" width="80" height="80" as="geometry"/>
                </mxCell>
                <mxCell id="yftn3xoo6vMwy91PrC80-23" style="edgeStyle=orthogonalEdgeStyle;rounded=0;orthogonalLoop=1;jettySize=auto;html=1;" parent="1" source="yftn3xoo6vMwy91PrC80-24" edge="1">
                    <mxGeometry relative="1" as="geometry">
                        <mxPoint x="564" y="222" as="targetPoint"/>
                    </mxGeometry>
                </mxCell>
                <mxCell id="yftn3xoo6vMwy91PrC80-24" value="get&lt;br&gt;ProdDesc&lt;br&gt;res." style="rhombus;whiteSpace=wrap;html=1;" parent="1" vertex="1">
                    <mxGeometry x="416" y="182" width="80" height="80" as="geometry"/>
                </mxCell>
                <mxCell id="yftn3xoo6vMwy91PrC80-25" style="edgeStyle=orthogonalEdgeStyle;rounded=0;orthogonalLoop=1;jettySize=auto;html=1;" parent="1" source="yftn3xoo6vMwy91PrC80-27" target="yftn3xoo6vMwy91PrC80-35" edge="1">
                    <mxGeometry relative="1" as="geometry"/>
                </mxCell>
                <mxCell id="yftn3xoo6vMwy91PrC80-26" style="edgeStyle=orthogonalEdgeStyle;rounded=0;orthogonalLoop=1;jettySize=auto;html=1;" parent="1" source="yftn3xoo6vMwy91PrC80-27" target="yftn3xoo6vMwy91PrC80-38" edge="1">
                    <mxGeometry relative="1" as="geometry"/>
                </mxCell>
                <mxCell id="yftn3xoo6vMwy91PrC80-27" value="gen&lt;br&gt;deploy&lt;br&gt;" style="rhombus;whiteSpace=wrap;html=1;" parent="1" vertex="1">
                    <mxGeometry x="564" y="182" width="80" height="80" as="geometry"/>
                </mxCell>
                <mxCell id="yftn3xoo6vMwy91PrC80-28" style="edgeStyle=orthogonalEdgeStyle;rounded=0;orthogonalLoop=1;jettySize=auto;html=1;dashed=1;" parent="1" source="yftn3xoo6vMwy91PrC80-29" target="yftn3xoo6vMwy91PrC80-18" edge="1">
                    <mxGeometry relative="1" as="geometry">
                        <Array as="points">
                            <mxPoint x="604" y="158"/>
                            <mxPoint x="-12" y="158"/>
                        </Array>
                    </mxGeometry>
                </mxCell>
                <mxCell id="yftn3xoo6vMwy91PrC80-29" value="Product&lt;br&gt;Deployment&lt;br&gt;Generator" style="rounded=0;whiteSpace=wrap;html=1;fillColor=#f8cecc;strokeColor=#b85450;" parent="1" vertex="1">
                    <mxGeometry x="544" y="80" width="120" height="60" as="geometry"/>
                </mxCell>
                <mxCell id="yftn3xoo6vMwy91PrC80-30" value="Project Repository" style="text;html=1;align=center;verticalAlign=middle;resizable=0;points=[];autosize=1;strokeColor=none;fillColor=none;" parent="1" vertex="1">
                    <mxGeometry x="229" y="63" width="116" height="26" as="geometry"/>
                </mxCell>
                <mxCell id="yftn3xoo6vMwy91PrC80-31" value="Project&lt;br&gt;Repository" style="text;html=1;align=center;verticalAlign=middle;resizable=0;points=[];autosize=1;strokeColor=none;fillColor=none;" parent="1" vertex="1">
                    <mxGeometry x="510.5" y="600" width="75" height="41" as="geometry"/>
                </mxCell>
                <mxCell id="yftn3xoo6vMwy91PrC80-34" style="edgeStyle=orthogonalEdgeStyle;rounded=0;orthogonalLoop=1;jettySize=auto;html=1;" parent="1" source="yftn3xoo6vMwy91PrC80-35" target="yftn3xoo6vMwy91PrC80-40" edge="1">
                    <mxGeometry relative="1" as="geometry"/>
                </mxCell>
                <mxCell id="yftn3xoo6vMwy91PrC80-35" value="Product Deployment&lt;br&gt;CR" style="rounded=0;whiteSpace=wrap;html=1;" parent="1" vertex="1">
                    <mxGeometry x="544" y="308" width="120" height="60" as="geometry"/>
                </mxCell>
                <mxCell id="yftn3xoo6vMwy91PrC80-36" style="edgeStyle=orthogonalEdgeStyle;rounded=0;orthogonalLoop=1;jettySize=auto;html=1;" parent="1" source="yftn3xoo6vMwy91PrC80-38" target="yftn3xoo6vMwy91PrC80-40" edge="1">
                    <mxGeometry relative="1" as="geometry"/>
                </mxCell>
                <mxCell id="yftn3xoo6vMwy91PrC80-37" style="edgeStyle=orthogonalEdgeStyle;rounded=0;orthogonalLoop=1;jettySize=auto;html=1;" parent="1" source="yftn3xoo6vMwy91PrC80-38" target="yftn3xoo6vMwy91PrC80-42" edge="1">
                    <mxGeometry relative="1" as="geometry"/>
                </mxCell>
                <mxCell id="yftn3xoo6vMwy91PrC80-38" value="create&lt;br&gt;snapshot" style="rhombus;whiteSpace=wrap;html=1;" parent="1" vertex="1">
                    <mxGeometry x="726" y="182" width="80" height="80" as="geometry"/>
                </mxCell>
                <mxCell id="yftn3xoo6vMwy91PrC80-39" value="" style="edgeStyle=orthogonalEdgeStyle;rounded=0;orthogonalLoop=1;jettySize=auto;html=1;" parent="1" source="yftn3xoo6vMwy91PrC80-40" target="yftn3xoo6vMwy91PrC80-44" edge="1">
                    <mxGeometry relative="1" as="geometry"/>
                </mxCell>
                <mxCell id="yftn3xoo6vMwy91PrC80-40" value="Snapshot&lt;br&gt;CR" style="rounded=0;whiteSpace=wrap;html=1;fillColor=#f8cecc;strokeColor=#b85450;" parent="1" vertex="1">
                    <mxGeometry x="706" y="308" width="120" height="60" as="geometry"/>
                </mxCell>
                <mxCell id="yftn3xoo6vMwy91PrC80-41" style="edgeStyle=orthogonalEdgeStyle;rounded=0;orthogonalLoop=1;jettySize=auto;html=1;" parent="1" source="yftn3xoo6vMwy91PrC80-42" target="yftn3xoo6vMwy91PrC80-44" edge="1">
                    <mxGeometry relative="1" as="geometry"/>
                </mxCell>
                <mxCell id="yftn3xoo6vMwy91PrC80-42" value="create git-sync" style="rhombus;whiteSpace=wrap;html=1;" parent="1" vertex="1">
                    <mxGeometry x="882" y="182" width="80" height="80" as="geometry"/>
                </mxCell>
                <mxCell id="yftn3xoo6vMwy91PrC80-43" style="edgeStyle=orthogonalEdgeStyle;rounded=0;orthogonalLoop=1;jettySize=auto;html=1;dashed=1;" parent="1" source="yftn3xoo6vMwy91PrC80-44" target="yftn3xoo6vMwy91PrC80-45" edge="1">
                    <mxGeometry relative="1" as="geometry">
                        <Array as="points">
                            <mxPoint x="1014" y="338"/>
                            <mxPoint x="1014" y="490"/>
                            <mxPoint x="-12" y="490"/>
                        </Array>
                    </mxGeometry>
                </mxCell>
                <mxCell id="yftn3xoo6vMwy91PrC80-44" value="GitSync&lt;br&gt;CR" style="rounded=0;whiteSpace=wrap;html=1;fillColor=#f8cecc;strokeColor=#b85450;" parent="1" vertex="1">
                    <mxGeometry x="862" y="308" width="120" height="60" as="geometry"/>
                </mxCell>
                <mxCell id="yftn3xoo6vMwy91PrC80-45" value="New GitSync &lt;br&gt;CR Event" style="shape=parallelogram;perimeter=parallelogramPerimeter;whiteSpace=wrap;html=1;fixedSize=1;" parent="1" vertex="1">
                    <mxGeometry x="-71.80000000000001" y="530" width="120" height="60" as="geometry"/>
                </mxCell>
                <mxCell id="yftn3xoo6vMwy91PrC80-46" value="" style="edgeStyle=orthogonalEdgeStyle;rounded=0;orthogonalLoop=1;jettySize=auto;html=1;" parent="1" source="yftn3xoo6vMwy91PrC80-48" target="yftn3xoo6vMwy91PrC80-50" edge="1">
                    <mxGeometry relative="1" as="geometry"/>
                </mxCell>
                <mxCell id="yftn3xoo6vMwy91PrC80-47" value="" style="edgeStyle=orthogonalEdgeStyle;rounded=0;orthogonalLoop=1;jettySize=auto;html=1;" parent="1" source="yftn3xoo6vMwy91PrC80-48" target="yftn3xoo6vMwy91PrC80-45" edge="1">
                    <mxGeometry relative="1" as="geometry"/>
                </mxCell>
                <mxCell id="yftn3xoo6vMwy91PrC80-48" value="Git Controller" style="rounded=0;whiteSpace=wrap;html=1;fillColor=#d5e8d4;strokeColor=#82b366;" parent="1" vertex="1">
                    <mxGeometry x="88" y="530" width="120" height="60" as="geometry"/>
                </mxCell>
                <mxCell id="yftn3xoo6vMwy91PrC80-49" value="" style="edgeStyle=orthogonalEdgeStyle;rounded=0;orthogonalLoop=1;jettySize=auto;html=1;" parent="1" source="yftn3xoo6vMwy91PrC80-50" target="yftn3xoo6vMwy91PrC80-59" edge="1">
                    <mxGeometry relative="1" as="geometry"/>
                </mxCell>
                <mxCell id="yftn3xoo6vMwy91PrC80-50" value="commit&lt;br&gt;snapshot" style="rhombus;whiteSpace=wrap;html=1;" parent="1" vertex="1">
                    <mxGeometry x="262" y="520" width="80" height="80" as="geometry"/>
                </mxCell>
                <mxCell id="yftn3xoo6vMwy91PrC80-51" value="" style="edgeStyle=orthogonalEdgeStyle;rounded=0;orthogonalLoop=1;jettySize=auto;html=1;" parent="1" target="yftn3xoo6vMwy91PrC80-11" edge="1">
                    <mxGeometry relative="1" as="geometry">
                        <mxPoint x="654" y="560" as="sourcePoint"/>
                    </mxGeometry>
                </mxCell>
                <mxCell id="yftn3xoo6vMwy91PrC80-52" value="" style="edgeStyle=orthogonalEdgeStyle;rounded=0;orthogonalLoop=1;jettySize=auto;html=1;" parent="1" source="yftn3xoo6vMwy91PrC80-53" target="yftn3xoo6vMwy91PrC80-55" edge="1">
                    <mxGeometry relative="1" as="geometry"/>
                </mxCell>
                <mxCell id="yftn3xoo6vMwy91PrC80-53" value="Flux Source&amp;nbsp;Controller" style="rounded=0;whiteSpace=wrap;html=1;fillColor=#dae8fc;strokeColor=#6c8ebf;" parent="1" vertex="1">
                    <mxGeometry x="638" y="530" width="120" height="60" as="geometry"/>
                </mxCell>
                <mxCell id="yftn3xoo6vMwy91PrC80-54" value="" style="edgeStyle=orthogonalEdgeStyle;rounded=0;orthogonalLoop=1;jettySize=auto;html=1;" parent="1" source="yftn3xoo6vMwy91PrC80-55" target="yftn3xoo6vMwy91PrC80-57" edge="1">
                    <mxGeometry relative="1" as="geometry"/>
                </mxCell>
                <mxCell id="yftn3xoo6vMwy91PrC80-55" value="apply&lt;br&gt;Prod&amp;nbsp;&lt;br&gt;Deploy" style="rhombus;whiteSpace=wrap;html=1;" parent="1" vertex="1">
                    <mxGeometry x="831" y="520" width="80" height="80" as="geometry"/>
                </mxCell>
                <mxCell id="yftn3xoo6vMwy91PrC80-56" style="edgeStyle=orthogonalEdgeStyle;rounded=0;orthogonalLoop=1;jettySize=auto;html=1;dashed=1;" parent="1" source="yftn3xoo6vMwy91PrC80-57" target="yftn3xoo6vMwy91PrC80-60" edge="1">
                    <mxGeometry relative="1" as="geometry">
                        <Array as="points">
                            <mxPoint x="871" y="703"/>
                            <mxPoint x="-12" y="703"/>
                        </Array>
                    </mxGeometry>
                </mxCell>
                <mxCell id="yftn3xoo6vMwy91PrC80-57" value="Product Deployment&lt;br&gt;CR" style="rounded=0;whiteSpace=wrap;html=1;fillColor=#f8cecc;strokeColor=#b85450;" parent="1" vertex="1">
                    <mxGeometry x="811" y="624" width="120" height="60" as="geometry"/>
                </mxCell>
                <mxCell id="yftn3xoo6vMwy91PrC80-58" value="" style="edgeStyle=orthogonalEdgeStyle;rounded=0;orthogonalLoop=1;jettySize=auto;html=1;" parent="1" source="yftn3xoo6vMwy91PrC80-59" target="yftn3xoo6vMwy91PrC80-11" edge="1">
                    <mxGeometry relative="1" as="geometry"/>
                </mxCell>
                <mxCell id="yftn3xoo6vMwy91PrC80-59" value="validation" style="rhombus;whiteSpace=wrap;html=1;" parent="1" vertex="1">
                    <mxGeometry x="386" y="520" width="80" height="80" as="geometry"/>
                </mxCell>
                <mxCell id="yftn3xoo6vMwy91PrC80-60" value="New Product&lt;br&gt;Deployment CR" style="shape=parallelogram;perimeter=parallelogramPerimeter;whiteSpace=wrap;html=1;fixedSize=1;" parent="1" vertex="1">
                    <mxGeometry x="-71.80000000000001" y="748" width="120" height="60" as="geometry"/>
                </mxCell>
                <mxCell id="yftn3xoo6vMwy91PrC80-61" value="" style="edgeStyle=orthogonalEdgeStyle;rounded=0;orthogonalLoop=1;jettySize=auto;html=1;" parent="1" source="yftn3xoo6vMwy91PrC80-63" target="yftn3xoo6vMwy91PrC80-66" edge="1">
                    <mxGeometry relative="1" as="geometry"/>
                </mxCell>
                <mxCell id="yftn3xoo6vMwy91PrC80-62" value="" style="edgeStyle=orthogonalEdgeStyle;rounded=0;orthogonalLoop=1;jettySize=auto;html=1;" parent="1" source="yftn3xoo6vMwy91PrC80-63" target="yftn3xoo6vMwy91PrC80-60" edge="1">
                    <mxGeometry relative="1" as="geometry"/>
                </mxCell>
                <mxCell id="yftn3xoo6vMwy91PrC80-63" value="Product&lt;br&gt;Controller" style="rounded=0;whiteSpace=wrap;html=1;fillColor=#d5e8d4;strokeColor=#82b366;" parent="1" vertex="1">
                    <mxGeometry x="79" y="748" width="120" height="60" as="geometry"/>
                </mxCell>
                <mxCell id="yftn3xoo6vMwy91PrC80-64" value="" style="edgeStyle=orthogonalEdgeStyle;rounded=0;orthogonalLoop=1;jettySize=auto;html=1;" parent="1" source="yftn3xoo6vMwy91PrC80-66" target="yftn3xoo6vMwy91PrC80-67" edge="1">
                    <mxGeometry relative="1" as="geometry"/>
                </mxCell>
                <mxCell id="yftn3xoo6vMwy91PrC80-65" value="" style="edgeStyle=orthogonalEdgeStyle;rounded=0;orthogonalLoop=1;jettySize=auto;html=1;" parent="1" source="yftn3xoo6vMwy91PrC80-66" target="yftn3xoo6vMwy91PrC80-70" edge="1">
                    <mxGeometry relative="1" as="geometry"/>
                </mxCell>
                <mxCell id="yftn3xoo6vMwy91PrC80-66" value="create&lt;br&gt;CV CR" style="rhombus;whiteSpace=wrap;html=1;" parent="1" vertex="1">
                    <mxGeometry x="267" y="738" width="80" height="80" as="geometry"/>
                </mxCell>
                <mxCell id="yftn3xoo6vMwy91PrC80-67" value="ComponentVersion&lt;br&gt;CR" style="rounded=0;whiteSpace=wrap;html=1;fillColor=#f8cecc;strokeColor=#b85450;" parent="1" vertex="1">
                    <mxGeometry x="247" y="856" width="120" height="60" as="geometry"/>
                </mxCell>
                <mxCell id="yftn3xoo6vMwy91PrC80-68" value="" style="edgeStyle=orthogonalEdgeStyle;rounded=0;orthogonalLoop=1;jettySize=auto;html=1;" parent="1" source="yftn3xoo6vMwy91PrC80-70" target="yftn3xoo6vMwy91PrC80-75" edge="1">
                    <mxGeometry relative="1" as="geometry"/>
                </mxCell>
                <mxCell id="yftn3xoo6vMwy91PrC80-69" value="" style="edgeStyle=orthogonalEdgeStyle;rounded=0;orthogonalLoop=1;jettySize=auto;html=1;" parent="1" source="yftn3xoo6vMwy91PrC80-70" target="yftn3xoo6vMwy91PrC80-72" edge="1">
                    <mxGeometry relative="1" as="geometry"/>
                </mxCell>
                <mxCell id="yftn3xoo6vMwy91PrC80-70" value="create&lt;br&gt;Loc CR" style="rhombus;whiteSpace=wrap;html=1;" parent="1" vertex="1">
                    <mxGeometry x="420" y="738" width="80" height="80" as="geometry"/>
                </mxCell>
                <mxCell id="yftn3xoo6vMwy91PrC80-71" style="edgeStyle=orthogonalEdgeStyle;rounded=0;orthogonalLoop=1;jettySize=auto;html=1;entryX=0;entryY=0.5;entryDx=0;entryDy=0;" parent="1" source="yftn3xoo6vMwy91PrC80-72" target="yftn3xoo6vMwy91PrC80-96" edge="1">
                    <mxGeometry relative="1" as="geometry"/>
                </mxCell>
                <mxCell id="yftn3xoo6vMwy91PrC80-72" value="Localization&lt;br&gt;CR" style="rounded=0;whiteSpace=wrap;html=1;fillColor=#f8cecc;strokeColor=#b85450;" parent="1" vertex="1">
                    <mxGeometry x="400" y="856" width="120" height="60" as="geometry"/>
                </mxCell>
                <mxCell id="yftn3xoo6vMwy91PrC80-73" value="" style="edgeStyle=orthogonalEdgeStyle;rounded=0;orthogonalLoop=1;jettySize=auto;html=1;" parent="1" source="yftn3xoo6vMwy91PrC80-75" target="yftn3xoo6vMwy91PrC80-78" edge="1">
                    <mxGeometry relative="1" as="geometry"/>
                </mxCell>
                <mxCell id="yftn3xoo6vMwy91PrC80-74" value="" style="edgeStyle=orthogonalEdgeStyle;rounded=0;orthogonalLoop=1;jettySize=auto;html=1;" parent="1" source="yftn3xoo6vMwy91PrC80-75" target="yftn3xoo6vMwy91PrC80-81" edge="1">
                    <mxGeometry relative="1" as="geometry"/>
                </mxCell>
                <mxCell id="yftn3xoo6vMwy91PrC80-75" value="create&lt;br&gt;Conf CR" style="rhombus;whiteSpace=wrap;html=1;" parent="1" vertex="1">
                    <mxGeometry x="576" y="738" width="80" height="80" as="geometry"/>
                </mxCell>
                <mxCell id="yftn3xoo6vMwy91PrC80-76" style="edgeStyle=orthogonalEdgeStyle;rounded=0;orthogonalLoop=1;jettySize=auto;html=1;entryX=1;entryY=0.5;entryDx=0;entryDy=0;exitX=0.338;exitY=0.983;exitDx=0;exitDy=0;exitPerimeter=0;" parent="1" source="yftn3xoo6vMwy91PrC80-78" target="yftn3xoo6vMwy91PrC80-96" edge="1">
                    <mxGeometry relative="1" as="geometry"/>
                </mxCell>
                <mxCell id="yftn3xoo6vMwy91PrC80-77" style="edgeStyle=orthogonalEdgeStyle;rounded=0;orthogonalLoop=1;jettySize=auto;html=1;entryX=0;entryY=0.5;entryDx=0;entryDy=0;exitX=0.615;exitY=0.994;exitDx=0;exitDy=0;exitPerimeter=0;" parent="1" source="yftn3xoo6vMwy91PrC80-78" target="yftn3xoo6vMwy91PrC80-97" edge="1">
                    <mxGeometry relative="1" as="geometry"/>
                </mxCell>
                <mxCell id="yftn3xoo6vMwy91PrC80-78" value="Configuration CR" style="rounded=0;whiteSpace=wrap;html=1;fillColor=#f8cecc;strokeColor=#b85450;" parent="1" vertex="1">
                    <mxGeometry x="556" y="856" width="120" height="60" as="geometry"/>
                </mxCell>
                <mxCell id="yftn3xoo6vMwy91PrC80-79" value="" style="edgeStyle=orthogonalEdgeStyle;rounded=0;orthogonalLoop=1;jettySize=auto;html=1;" parent="1" source="yftn3xoo6vMwy91PrC80-81" target="yftn3xoo6vMwy91PrC80-83" edge="1">
                    <mxGeometry relative="1" as="geometry"/>
                </mxCell>
                <mxCell id="yftn3xoo6vMwy91PrC80-80" value="" style="edgeStyle=orthogonalEdgeStyle;rounded=0;orthogonalLoop=1;jettySize=auto;html=1;" parent="1" source="yftn3xoo6vMwy91PrC80-81" target="yftn3xoo6vMwy91PrC80-85" edge="1">
                    <mxGeometry relative="1" as="geometry"/>
                </mxCell>
                <mxCell id="yftn3xoo6vMwy91PrC80-81" value="create&lt;br&gt;Flux&lt;br&gt;OCI" style="rhombus;whiteSpace=wrap;html=1;" parent="1" vertex="1">
                    <mxGeometry x="723" y="738" width="80" height="80" as="geometry"/>
                </mxCell>
                <mxCell id="yftn3xoo6vMwy91PrC80-82" style="edgeStyle=orthogonalEdgeStyle;rounded=0;orthogonalLoop=1;jettySize=auto;html=1;entryX=1;entryY=0.5;entryDx=0;entryDy=0;" parent="1" source="yftn3xoo6vMwy91PrC80-83" target="yftn3xoo6vMwy91PrC80-97" edge="1">
                    <mxGeometry relative="1" as="geometry"/>
                </mxCell>
                <mxCell id="yftn3xoo6vMwy91PrC80-83" value="Flux OCI Repository&lt;br&gt;CR" style="rounded=0;whiteSpace=wrap;html=1;fillColor=#f8cecc;strokeColor=#b85450;" parent="1" vertex="1">
                    <mxGeometry x="703" y="856" width="120" height="60" as="geometry"/>
                </mxCell>
                <mxCell id="yftn3xoo6vMwy91PrC80-84" value="" style="edgeStyle=orthogonalEdgeStyle;rounded=0;orthogonalLoop=1;jettySize=auto;html=1;" parent="1" source="yftn3xoo6vMwy91PrC80-85" target="yftn3xoo6vMwy91PrC80-87" edge="1">
                    <mxGeometry relative="1" as="geometry"/>
                </mxCell>
                <mxCell id="yftn3xoo6vMwy91PrC80-85" value="select&lt;br&gt;Target" style="rhombus;whiteSpace=wrap;html=1;" parent="1" vertex="1">
                    <mxGeometry x="882" y="738" width="80" height="80" as="geometry"/>
                </mxCell>
                <mxCell id="yftn3xoo6vMwy91PrC80-86" value="" style="edgeStyle=orthogonalEdgeStyle;rounded=0;orthogonalLoop=1;jettySize=auto;html=1;" parent="1" source="yftn3xoo6vMwy91PrC80-87" target="yftn3xoo6vMwy91PrC80-93" edge="1">
                    <mxGeometry relative="1" as="geometry"/>
                </mxCell>
                <mxCell id="yftn3xoo6vMwy91PrC80-87" value="create&lt;br&gt;Flux&lt;br&gt;Kust" style="rhombus;whiteSpace=wrap;html=1;" parent="1" vertex="1">
                    <mxGeometry x="1023" y="738" width="80" height="80" as="geometry"/>
                </mxCell>
                <mxCell id="yftn3xoo6vMwy91PrC80-88" value="" style="edgeStyle=orthogonalEdgeStyle;rounded=0;orthogonalLoop=1;jettySize=auto;html=1;" parent="1" source="yftn3xoo6vMwy91PrC80-89" target="yftn3xoo6vMwy91PrC80-85" edge="1">
                    <mxGeometry relative="1" as="geometry"/>
                </mxCell>
                <mxCell id="yftn3xoo6vMwy91PrC80-89" value="Target" style="rounded=0;whiteSpace=wrap;html=1;fillColor=#f8cecc;strokeColor=#b85450;" parent="1" vertex="1">
                    <mxGeometry x="862" y="856" width="120" height="60" as="geometry"/>
                </mxCell>
                <mxCell id="yftn3xoo6vMwy91PrC80-90" value="" style="edgeStyle=orthogonalEdgeStyle;rounded=0;orthogonalLoop=1;jettySize=auto;html=1;" parent="1" source="yftn3xoo6vMwy91PrC80-91" target="yftn3xoo6vMwy91PrC80-89" edge="1">
                    <mxGeometry relative="1" as="geometry"/>
                </mxCell>
                <mxCell id="yftn3xoo6vMwy91PrC80-91" value="access credentials&lt;br&gt;(kube-config)" style="rounded=0;whiteSpace=wrap;html=1;fillColor=#f8cecc;strokeColor=#b85450;" parent="1" vertex="1">
                    <mxGeometry x="866" y="942" width="112" height="56" as="geometry"/>
                </mxCell>
                <mxCell id="yftn3xoo6vMwy91PrC80-92" style="edgeStyle=orthogonalEdgeStyle;rounded=0;orthogonalLoop=1;jettySize=auto;html=1;curved=1;dashed=1;" parent="1" source="yftn3xoo6vMwy91PrC80-93" target="yftn3xoo6vMwy91PrC80-83" edge="1">
                    <mxGeometry relative="1" as="geometry">
                        <Array as="points">
                            <mxPoint x="1054" y="827"/>
                            <mxPoint x="787" y="827"/>
                        </Array>
                    </mxGeometry>
                </mxCell>
                <mxCell id="yftn3xoo6vMwy91PrC80-93" value="Kustomization" style="rounded=0;whiteSpace=wrap;html=1;fillColor=#f8cecc;strokeColor=#b85450;" parent="1" vertex="1">
                    <mxGeometry x="1003" y="856" width="120" height="60" as="geometry"/>
                </mxCell>
                <mxCell id="yftn3xoo6vMwy91PrC80-94" value="Product Deployment Generation Pipeline" style="text;html=1;align=center;verticalAlign=middle;resizable=0;points=[];autosize=1;strokeColor=none;fillColor=none;" parent="1" vertex="1">
                    <mxGeometry x="231" y="987" width="235" height="26" as="geometry"/>
                </mxCell>
                <mxCell id="yftn3xoo6vMwy91PrC80-95" value="Product Deployment" style="text;html=1;align=center;verticalAlign=middle;resizable=0;points=[];autosize=1;strokeColor=none;fillColor=none;" parent="1" vertex="1">
                    <mxGeometry x="1011" y="985" width="127" height="26" as="geometry"/>
                </mxCell>
                <mxCell id="yftn3xoo6vMwy91PrC80-96" value="Snapshot" style="rounded=0;whiteSpace=wrap;html=1;fillColor=#f8cecc;strokeColor=#b85450;" parent="1" vertex="1">
                    <mxGeometry x="495" y="945" width="80" height="40" as="geometry"/>
                </mxCell>
                <mxCell id="yftn3xoo6vMwy91PrC80-97" value="Snapshot" style="rounded=0;whiteSpace=wrap;html=1;fillColor=#f8cecc;strokeColor=#b85450;" parent="1" vertex="1">
                    <mxGeometry x="649" y="945" width="80" height="40" as="geometry"/>
                </mxCell>
                <mxCell id="yftn3xoo6vMwy91PrC80-99" style="rounded=0;orthogonalLoop=1;jettySize=auto;html=1;" parent="1" source="yftn3xoo6vMwy91PrC80-98" target="yftn3xoo6vMwy91PrC80-40" edge="1">
                    <mxGeometry relative="1" as="geometry"/>
                </mxCell>
                <mxCell id="yftn3xoo6vMwy91PrC80-98" value="values.yaml" style="rounded=0;whiteSpace=wrap;html=1;" parent="1" vertex="1">
                    <mxGeometry x="556" y="355" width="120" height="60" as="geometry"/>
                </mxCell>
                <mxCell id="yftn3xoo6vMwy91PrC80-101" style="rounded=0;orthogonalLoop=1;jettySize=auto;html=1;" parent="1" source="yftn3xoo6vMwy91PrC80-100" target="yftn3xoo6vMwy91PrC80-40" edge="1">
                    <mxGeometry relative="1" as="geometry"/>
                </mxCell>
                <mxCell id="yftn3xoo6vMwy91PrC80-100" value="README.md" style="rounded=0;whiteSpace=wrap;html=1;" parent="1" vertex="1">
                    <mxGeometry x="569" y="404" width="120" height="60" as="geometry"/>
                </mxCell>
            </root>
        </mxGraphModel>
    </diagram>
    <diagram id="IUNLdwWUBFMB9rBkChJ-" name="Resource Model">
        <mxGraphModel dx="1482" dy="1300" grid="0" gridSize="10" guides="1" tooltips="1" connect="1" arrows="1" fold="1" page="0" pageScale="1" pageWidth="850" pageHeight="1100" math="0" shadow="0">
            <root>
                <mxCell id="0"/>
                <mxCell id="1" parent="0"/>
                <mxCell id="ogEDFsBAaEp7HwdF366j-1" value="Core" parent="0"/>
                <mxCell id="ogEDFsBAaEp7HwdF366j-4" value="Project" style="shape=hexagon;perimeter=hexagonPerimeter2;whiteSpace=wrap;html=1;fixedSize=1;fillColor=#dae8fc;strokeColor=#6c8ebf;" parent="ogEDFsBAaEp7HwdF366j-1" vertex="1">
                    <mxGeometry x="-171" y="-319" width="120" height="80" as="geometry"/>
                </mxCell>
                <mxCell id="ogEDFsBAaEp7HwdF366j-5" value="Subscription" style="shape=hexagon;perimeter=hexagonPerimeter2;whiteSpace=wrap;html=1;fixedSize=1;fillColor=#dae8fc;strokeColor=#6c8ebf;" parent="ogEDFsBAaEp7HwdF366j-1" vertex="1">
                    <mxGeometry x="-468" y="-250" width="120" height="80" as="geometry"/>
                </mxCell>
                <mxCell id="ogEDFsBAaEp7HwdF366j-6" value="Target" style="shape=hexagon;perimeter=hexagonPerimeter2;whiteSpace=wrap;html=1;fixedSize=1;fillColor=#dae8fc;strokeColor=#6c8ebf;" parent="ogEDFsBAaEp7HwdF366j-1" vertex="1">
                    <mxGeometry x="153" y="-250" width="120" height="80" as="geometry"/>
                </mxCell>
                <mxCell id="ogEDFsBAaEp7HwdF366j-121" style="edgeStyle=none;rounded=0;orthogonalLoop=1;jettySize=auto;html=1;" parent="ogEDFsBAaEp7HwdF366j-1" target="ogEDFsBAaEp7HwdF366j-123" edge="1">
                    <mxGeometry relative="1" as="geometry">
                        <mxPoint x="243" y="-170" as="sourcePoint"/>
                    </mxGeometry>
                </mxCell>
                <mxCell id="ogEDFsBAaEp7HwdF366j-122" value="refers to" style="edgeLabel;html=1;align=center;verticalAlign=middle;resizable=0;points=[];" parent="ogEDFsBAaEp7HwdF366j-121" connectable="0" vertex="1">
                    <mxGeometry x="-0.3476" y="1" relative="1" as="geometry">
                        <mxPoint x="-3" as="offset"/>
                    </mxGeometry>
                </mxCell>
                <mxCell id="ogEDFsBAaEp7HwdF366j-123" value="Secret" style="rounded=0;whiteSpace=wrap;html=1;" parent="ogEDFsBAaEp7HwdF366j-1" vertex="1">
                    <mxGeometry x="252" y="-123" width="80" height="40" as="geometry"/>
                </mxCell>
                <mxCell id="fZTbGMtsahvQNK_KcCpF-2" value="" style="group" parent="ogEDFsBAaEp7HwdF366j-1" vertex="1" connectable="0">
                    <mxGeometry x="454" y="162" width="90" height="90" as="geometry"/>
                </mxCell>
                <mxCell id="ogEDFsBAaEp7HwdF366j-7" value="MPAS&lt;br&gt;Entity (CRD)" style="rounded=0;whiteSpace=wrap;html=1;fillColor=#dae8fc;strokeColor=none;" parent="fZTbGMtsahvQNK_KcCpF-2" vertex="1">
                    <mxGeometry width="90" height="45" as="geometry"/>
                </mxCell>
                <mxCell id="ogEDFsBAaEp7HwdF366j-8" value="OCM&lt;br&gt;Element" style="rounded=0;whiteSpace=wrap;html=1;fillColor=#d5e8d4;strokeColor=none;" parent="fZTbGMtsahvQNK_KcCpF-2" vertex="1">
                    <mxGeometry y="45" width="90" height="45" as="geometry"/>
                </mxCell>
                <mxCell id="ogEDFsBAaEp7HwdF366j-15" value="Subscriptions" parent="0"/>
                <mxCell id="ogEDFsBAaEp7HwdF366j-16" style="edgeStyle=none;rounded=0;orthogonalLoop=1;jettySize=auto;html=1;entryX=1;entryY=0;entryDx=0;entryDy=52.5;entryPerimeter=0;dashed=1;" parent="ogEDFsBAaEp7HwdF366j-15" target="ogEDFsBAaEp7HwdF366j-24" edge="1">
                    <mxGeometry relative="1" as="geometry">
                        <mxPoint x="-456" y="-234" as="sourcePoint"/>
                    </mxGeometry>
                </mxCell>
                <mxCell id="ogEDFsBAaEp7HwdF366j-17" value="refers to (optional)" style="edgeLabel;html=1;align=center;verticalAlign=middle;resizable=0;points=[];" parent="ogEDFsBAaEp7HwdF366j-16" connectable="0" vertex="1">
                    <mxGeometry x="0.5436" y="-1" relative="1" as="geometry">
                        <mxPoint x="39" y="20" as="offset"/>
                    </mxGeometry>
                </mxCell>
                <mxCell id="ogEDFsBAaEp7HwdF366j-18" style="edgeStyle=none;rounded=0;orthogonalLoop=1;jettySize=auto;html=1;" parent="ogEDFsBAaEp7HwdF366j-15" target="ogEDFsBAaEp7HwdF366j-25" edge="1">
                    <mxGeometry relative="1" as="geometry">
                        <mxPoint x="-460" y="-194" as="sourcePoint"/>
                    </mxGeometry>
                </mxCell>
                <mxCell id="ogEDFsBAaEp7HwdF366j-19" value="refers to&lt;br&gt;(required)" style="edgeLabel;html=1;align=center;verticalAlign=middle;resizable=0;points=[];" parent="ogEDFsBAaEp7HwdF366j-18" connectable="0" vertex="1">
                    <mxGeometry x="-0.2617" y="-4" relative="1" as="geometry">
                        <mxPoint x="-8" y="4" as="offset"/>
                    </mxGeometry>
                </mxCell>
                <mxCell id="ogEDFsBAaEp7HwdF366j-20" value="" style="edgeStyle=none;rounded=0;orthogonalLoop=1;jettySize=auto;html=1;" parent="ogEDFsBAaEp7HwdF366j-15" target="ogEDFsBAaEp7HwdF366j-28" edge="1">
                    <mxGeometry relative="1" as="geometry">
                        <mxPoint x="-425" y="-170" as="sourcePoint"/>
                    </mxGeometry>
                </mxCell>
                <mxCell id="ogEDFsBAaEp7HwdF366j-21" value="specifies" style="edgeLabel;html=1;align=center;verticalAlign=middle;resizable=0;points=[];" parent="ogEDFsBAaEp7HwdF366j-20" connectable="0" vertex="1">
                    <mxGeometry x="0.5585" y="3" relative="1" as="geometry">
                        <mxPoint x="22" y="-27" as="offset"/>
                    </mxGeometry>
                </mxCell>
                <mxCell id="ogEDFsBAaEp7HwdF366j-22" style="edgeStyle=none;rounded=0;orthogonalLoop=1;jettySize=auto;html=1;dashed=1;" parent="ogEDFsBAaEp7HwdF366j-15" source="ogEDFsBAaEp7HwdF366j-24" target="ogEDFsBAaEp7HwdF366j-25" edge="1">
                    <mxGeometry relative="1" as="geometry"/>
                </mxCell>
                <mxCell id="ogEDFsBAaEp7HwdF366j-23" value="replicates (if necessary)" style="edgeLabel;html=1;align=center;verticalAlign=middle;resizable=0;points=[];" parent="ogEDFsBAaEp7HwdF366j-22" connectable="0" vertex="1">
                    <mxGeometry x="-0.2861" y="-4" relative="1" as="geometry">
                        <mxPoint x="-1" y="13" as="offset"/>
                    </mxGeometry>
                </mxCell>
                <mxCell id="ogEDFsBAaEp7HwdF366j-24" value="Provider&lt;br&gt;OCM&lt;br&gt;Repo" style="shape=cylinder3;whiteSpace=wrap;html=1;boundedLbl=1;backgroundOutline=1;size=15;fillColor=#d5e8d4;strokeColor=#82b366;" parent="ogEDFsBAaEp7HwdF366j-15" vertex="1">
                    <mxGeometry x="-719" y="-365" width="60" height="80" as="geometry"/>
                </mxCell>
                <mxCell id="ogEDFsBAaEp7HwdF366j-25" value="Customer&lt;br&gt;OCM&lt;br&gt;Repo" style="shape=cylinder3;whiteSpace=wrap;html=1;boundedLbl=1;backgroundOutline=1;size=15;fillColor=#d5e8d4;strokeColor=#82b366;" parent="ogEDFsBAaEp7HwdF366j-15" vertex="1">
                    <mxGeometry x="-719" y="-194" width="60" height="80" as="geometry"/>
                </mxCell>
                <mxCell id="ogEDFsBAaEp7HwdF366j-26" style="rounded=0;orthogonalLoop=1;jettySize=auto;html=1;" parent="ogEDFsBAaEp7HwdF366j-15" source="ogEDFsBAaEp7HwdF366j-28" target="ogEDFsBAaEp7HwdF366j-25" edge="1">
                    <mxGeometry relative="1" as="geometry"/>
                </mxCell>
                <mxCell id="ogEDFsBAaEp7HwdF366j-27" value="stored in" style="edgeLabel;html=1;align=center;verticalAlign=middle;resizable=0;points=[];" parent="ogEDFsBAaEp7HwdF366j-26" connectable="0" vertex="1">
                    <mxGeometry x="-0.2862" relative="1" as="geometry">
                        <mxPoint as="offset"/>
                    </mxGeometry>
                </mxCell>
                <mxCell id="ogEDFsBAaEp7HwdF366j-28" value="Component" style="shape=cube;whiteSpace=wrap;html=1;boundedLbl=1;backgroundOutline=1;darkOpacity=0.05;darkOpacity2=0.1;fillColor=#d5e8d4;strokeColor=#82b366;" parent="ogEDFsBAaEp7HwdF366j-15" vertex="1">
                    <mxGeometry x="-587" y="-94.5" width="102.75" height="68.5" as="geometry"/>
                </mxCell>
                <mxCell id="ogEDFsBAaEp7HwdF366j-9" value="Generator" parent="0"/>
                <mxCell id="ogEDFsBAaEp7HwdF366j-10" style="rounded=0;orthogonalLoop=1;jettySize=auto;html=1;exitX=0;exitY=0.25;exitDx=0;exitDy=0;" parent="ogEDFsBAaEp7HwdF366j-9" edge="1">
                    <mxGeometry relative="1" as="geometry">
                        <mxPoint x="-364" y="-178" as="targetPoint"/>
                        <mxPoint x="-162.42857142857156" y="-83.14285714285711" as="sourcePoint"/>
                    </mxGeometry>
                </mxCell>
                <mxCell id="ogEDFsBAaEp7HwdF366j-11" value="refers to" style="edgeLabel;html=1;align=center;verticalAlign=middle;resizable=0;points=[];" parent="ogEDFsBAaEp7HwdF366j-10" connectable="0" vertex="1">
                    <mxGeometry x="-0.214" y="-1" relative="1" as="geometry">
                        <mxPoint as="offset"/>
                    </mxGeometry>
                </mxCell>
                <mxCell id="ogEDFsBAaEp7HwdF366j-108" value="Product&lt;br&gt;Deployment&lt;br&gt;Generator" style="shape=hexagon;perimeter=hexagonPerimeter2;whiteSpace=wrap;html=1;fixedSize=1;fillColor=#dae8fc;strokeColor=#6c8ebf;" parent="ogEDFsBAaEp7HwdF366j-9" vertex="1">
                    <mxGeometry x="-171" y="-106" width="120" height="80" as="geometry"/>
                </mxCell>
                <mxCell id="ogEDFsBAaEp7HwdF366j-109" style="rounded=0;orthogonalLoop=1;jettySize=auto;html=1;" parent="ogEDFsBAaEp7HwdF366j-9" source="ogEDFsBAaEp7HwdF366j-110" edge="1">
                    <mxGeometry relative="1" as="geometry">
                        <mxPoint x="-484" y="-60" as="targetPoint"/>
                    </mxGeometry>
                </mxCell>
                <mxCell id="ogEDFsBAaEp7HwdF366j-110" value="Product Deployment&lt;br&gt;Description" style="shape=hexagon;perimeter=hexagonPerimeter2;whiteSpace=wrap;html=1;fixedSize=1;fillColor=#dae8fc;strokeColor=#6c8ebf;" parent="ogEDFsBAaEp7HwdF366j-9" vertex="1">
                    <mxGeometry x="-408" y="-23" width="103.5" height="69" as="geometry"/>
                </mxCell>
                <mxCell id="ogEDFsBAaEp7HwdF366j-111" style="rounded=0;orthogonalLoop=1;jettySize=auto;html=1;entryX=1;entryY=0.5;entryDx=0;entryDy=0;exitX=0;exitY=0.5;exitDx=0;exitDy=0;" parent="ogEDFsBAaEp7HwdF366j-9" target="ogEDFsBAaEp7HwdF366j-110" edge="1">
                    <mxGeometry relative="1" as="geometry">
                        <mxPoint x="-171" y="-66" as="sourcePoint"/>
                    </mxGeometry>
                </mxCell>
                <mxCell id="ogEDFsBAaEp7HwdF366j-112" value="fetches" style="edgeLabel;html=1;align=center;verticalAlign=middle;resizable=0;points=[];" parent="ogEDFsBAaEp7HwdF366j-9" connectable="0" vertex="1">
                    <mxGeometry x="-236.00326527411204" y="-66.99819858623093" as="geometry">
                        <mxPoint x="3" y="35" as="offset"/>
                    </mxGeometry>
                </mxCell>
                <mxCell id="ogEDFsBAaEp7HwdF366j-113" value="part of" style="edgeLabel;html=1;align=center;verticalAlign=middle;resizable=0;points=[];" parent="ogEDFsBAaEp7HwdF366j-9" connectable="0" vertex="1">
                    <mxGeometry x="-254.00326527411204" y="-127.9981985862309" as="geometry">
                        <mxPoint x="-188" y="90" as="offset"/>
                    </mxGeometry>
                </mxCell>
                <mxCell id="ogEDFsBAaEp7HwdF366j-36" value="Product Deployment Pipeline" parent="0"/>
                <mxCell id="ogEDFsBAaEp7HwdF366j-37" style="edgeStyle=none;rounded=0;orthogonalLoop=1;jettySize=auto;html=1;" parent="ogEDFsBAaEp7HwdF366j-36" edge="1">
                    <mxGeometry relative="1" as="geometry">
                        <mxPoint x="-111.97469596829842" y="-20.51314276361154" as="sourcePoint"/>
                        <mxPoint x="-111.98951271050692" y="36" as="targetPoint"/>
                    </mxGeometry>
                </mxCell>
                <mxCell id="ogEDFsBAaEp7HwdF366j-38" value="generates" style="edgeLabel;html=1;align=center;verticalAlign=middle;resizable=0;points=[];" parent="ogEDFsBAaEp7HwdF366j-37" connectable="0" vertex="1">
                    <mxGeometry x="-0.5858" y="3" relative="1" as="geometry">
                        <mxPoint x="-4" y="12" as="offset"/>
                    </mxGeometry>
                </mxCell>
                <mxCell id="ogEDFsBAaEp7HwdF366j-39" value="" style="group" parent="ogEDFsBAaEp7HwdF366j-36" connectable="0" vertex="1">
                    <mxGeometry x="-350" y="168" width="480" height="80" as="geometry"/>
                </mxCell>
                <mxCell id="ogEDFsBAaEp7HwdF366j-40" value="Component&lt;br&gt;Version" style="shape=step;perimeter=stepPerimeter;whiteSpace=wrap;html=1;fixedSize=1;fillColor=#cdeb8b;strokeColor=#36393d;gradientColor=none;opacity=25;" parent="ogEDFsBAaEp7HwdF366j-39" vertex="1">
                    <mxGeometry width="112" height="80" as="geometry"/>
                </mxCell>
                <mxCell id="ogEDFsBAaEp7HwdF366j-41" value="&amp;nbsp; &amp;nbsp; &amp;nbsp;Resource" style="shape=step;perimeter=stepPerimeter;whiteSpace=wrap;html=1;fixedSize=1;fillColor=#cdeb8b;strokeColor=#36393d;opacity=50;" parent="ogEDFsBAaEp7HwdF366j-39" vertex="1">
                    <mxGeometry x="92" width="112" height="80" as="geometry"/>
                </mxCell>
                <mxCell id="ogEDFsBAaEp7HwdF366j-42" value="&amp;nbsp; &amp;nbsp; Localization" style="shape=step;perimeter=stepPerimeter;whiteSpace=wrap;html=1;fixedSize=1;fillColor=#cdeb8b;strokeColor=#36393d;opacity=65;" parent="ogEDFsBAaEp7HwdF366j-39" vertex="1">
                    <mxGeometry x="184" width="112" height="80" as="geometry"/>
                </mxCell>
                <mxCell id="ogEDFsBAaEp7HwdF366j-43" value="&amp;nbsp; &amp;nbsp; Configuration" style="shape=step;perimeter=stepPerimeter;whiteSpace=wrap;html=1;fixedSize=1;fillColor=#cdeb8b;strokeColor=#36393d;opacity=80;" parent="ogEDFsBAaEp7HwdF366j-39" vertex="1">
                    <mxGeometry x="276" width="112" height="80" as="geometry"/>
                </mxCell>
                <mxCell id="ogEDFsBAaEp7HwdF366j-44" value="&amp;nbsp; &amp;nbsp; Kustomization" style="shape=step;perimeter=stepPerimeter;whiteSpace=wrap;html=1;fixedSize=1;fillColor=#cdeb8b;strokeColor=#36393d;" parent="ogEDFsBAaEp7HwdF366j-39" vertex="1">
                    <mxGeometry x="368" width="112" height="80" as="geometry"/>
                </mxCell>
                <mxCell id="ogEDFsBAaEp7HwdF366j-46" style="edgeStyle=orthogonalEdgeStyle;rounded=0;orthogonalLoop=1;jettySize=auto;html=1;" parent="ogEDFsBAaEp7HwdF366j-36" source="ogEDFsBAaEp7HwdF366j-40" target="ogEDFsBAaEp7HwdF366j-25" edge="1">
                    <mxGeometry relative="1" as="geometry">
                        <mxPoint x="-627" y="-104" as="targetPoint"/>
                    </mxGeometry>
                </mxCell>
                <mxCell id="ogEDFsBAaEp7HwdF366j-47" value="reads component from" style="edgeLabel;html=1;align=center;verticalAlign=middle;resizable=0;points=[];" parent="ogEDFsBAaEp7HwdF366j-46" connectable="0" vertex="1">
                    <mxGeometry x="-0.5651" relative="1" as="geometry">
                        <mxPoint x="-51" y="-3" as="offset"/>
                    </mxGeometry>
                </mxCell>
                <mxCell id="ogEDFsBAaEp7HwdF366j-48" style="edgeStyle=orthogonalEdgeStyle;rounded=0;orthogonalLoop=1;jettySize=auto;html=1;" parent="ogEDFsBAaEp7HwdF366j-36" source="ogEDFsBAaEp7HwdF366j-44" edge="1">
                    <mxGeometry relative="1" as="geometry">
                        <mxPoint x="213" y="-170" as="targetPoint"/>
                        <mxPoint x="161.99999999999955" y="208" as="sourcePoint"/>
                    </mxGeometry>
                </mxCell>
                <mxCell id="ogEDFsBAaEp7HwdF366j-49" value="deploys result to" style="edgeLabel;html=1;align=center;verticalAlign=middle;resizable=0;points=[];" parent="ogEDFsBAaEp7HwdF366j-48" connectable="0" vertex="1">
                    <mxGeometry x="-0.7649" y="2" relative="1" as="geometry">
                        <mxPoint x="29" y="-30" as="offset"/>
                    </mxGeometry>
                </mxCell>
                <mxCell id="ogEDFsBAaEp7HwdF366j-50" value="Product Deployment&amp;nbsp; Pipeline" style="text;html=1;align=center;verticalAlign=middle;resizable=0;points=[];autosize=1;strokeColor=none;fillColor=none;" parent="ogEDFsBAaEp7HwdF366j-36" vertex="1">
                    <mxGeometry x="-356" y="140" width="176" height="26" as="geometry"/>
                </mxCell>
                <mxCell id="ogEDFsBAaEp7HwdF366j-114" style="orthogonalLoop=1;jettySize=auto;html=1;entryX=0;entryY=0.75;entryDx=0;entryDy=0;curved=1;" parent="ogEDFsBAaEp7HwdF366j-36" source="ogEDFsBAaEp7HwdF366j-116" edge="1">
                    <mxGeometry relative="1" as="geometry">
                        <mxPoint x="162" y="-193" as="targetPoint"/>
                        <Array as="points">
                            <mxPoint x="125" y="2"/>
                        </Array>
                    </mxGeometry>
                </mxCell>
                <mxCell id="ogEDFsBAaEp7HwdF366j-115" value="binds&lt;br&gt;to" style="edgeLabel;html=1;align=center;verticalAlign=middle;resizable=0;points=[];" parent="ogEDFsBAaEp7HwdF366j-114" vertex="1" connectable="0">
                    <mxGeometry x="-0.2672" y="30" relative="1" as="geometry">
                        <mxPoint x="-77" y="52" as="offset"/>
                    </mxGeometry>
                </mxCell>
                <mxCell id="ogEDFsBAaEp7HwdF366j-124" style="edgeStyle=orthogonalEdgeStyle;rounded=0;orthogonalLoop=1;jettySize=auto;html=1;" parent="ogEDFsBAaEp7HwdF366j-36" source="ogEDFsBAaEp7HwdF366j-116" target="ogEDFsBAaEp7HwdF366j-42" edge="1">
                    <mxGeometry relative="1" as="geometry">
                        <Array as="points">
                            <mxPoint x="-110" y="142"/>
                            <mxPoint x="-110" y="142"/>
                        </Array>
                    </mxGeometry>
                </mxCell>
                <mxCell id="ogEDFsBAaEp7HwdF366j-116" value="ProductDeployment" style="shape=hexagon;perimeter=hexagonPerimeter2;whiteSpace=wrap;html=1;fixedSize=1;fillColor=#dae8fc;strokeColor=#6c8ebf;" parent="ogEDFsBAaEp7HwdF366j-36" vertex="1">
                    <mxGeometry x="-171" y="36" width="120" height="80" as="geometry"/>
                </mxCell>
                <mxCell id="ogEDFsBAaEp7HwdF366j-118" style="edgeStyle=orthogonalEdgeStyle;rounded=0;orthogonalLoop=1;jettySize=auto;html=1;entryX=0.5;entryY=1;entryDx=0;entryDy=0;" parent="ogEDFsBAaEp7HwdF366j-36" source="ogEDFsBAaEp7HwdF366j-108" target="ogEDFsBAaEp7HwdF366j-4" edge="1">
                    <mxGeometry relative="1" as="geometry"/>
                </mxCell>
                <mxCell id="ogEDFsBAaEp7HwdF366j-120" value="part of" style="edgeLabel;html=1;align=center;verticalAlign=middle;resizable=0;points=[];" parent="ogEDFsBAaEp7HwdF366j-118" vertex="1" connectable="0">
                    <mxGeometry x="-0.7639" y="2" relative="1" as="geometry">
                        <mxPoint y="-30" as="offset"/>
                    </mxGeometry>
                </mxCell>
                <mxCell id="ogEDFsBAaEp7HwdF366j-125" value="generates" style="edgeLabel;html=1;align=center;verticalAlign=middle;resizable=0;points=[];" parent="ogEDFsBAaEp7HwdF366j-36" connectable="0" vertex="1">
                    <mxGeometry x="-103.99764562147631" y="31.997643396413434" as="geometry">
                        <mxPoint x="-10" y="102" as="offset"/>
                    </mxGeometry>
                </mxCell>
                <mxCell id="fZTbGMtsahvQNK_KcCpF-1" value="MPAS Entity&lt;br&gt;&lt;div style=&quot;text-align: left;&quot;&gt;&lt;span style=&quot;background-color: initial;&quot;&gt;Relations&lt;/span&gt;&lt;/div&gt;&lt;font style=&quot;font-size: 14px; font-weight: normal;&quot;&gt;note: please use Layers&lt;/font&gt;" style="text;html=1;align=center;verticalAlign=middle;resizable=0;points=[];autosize=1;strokeColor=none;fillColor=none;fontStyle=1;fontSize=24;" parent="ogEDFsBAaEp7HwdF366j-36" vertex="1">
                    <mxGeometry x="277" y="159" width="167" height="98" as="geometry"/>
                </mxCell>
                <mxCell id="ogEDFsBAaEp7HwdF366j-57" value="Project Namespace" parent="0"/>
                <mxCell id="ogEDFsBAaEp7HwdF366j-58" value="" style="group;fillColor=#f5f5f5;fontColor=#333333;strokeColor=#666666;" parent="ogEDFsBAaEp7HwdF366j-57" connectable="0" vertex="1">
                    <mxGeometry x="-402" y="-653" width="587" height="242" as="geometry"/>
                </mxCell>
                <mxCell id="ogEDFsBAaEp7HwdF366j-59" value="" style="rounded=0;whiteSpace=wrap;html=1;strokeColor=#7EA6E0;strokeWidth=3;" parent="ogEDFsBAaEp7HwdF366j-58" vertex="1">
                    <mxGeometry x="-11" width="598" height="242" as="geometry"/>
                </mxCell>
                <mxCell id="ogEDFsBAaEp7HwdF366j-60" value="ServiceAccount" style="rounded=0;whiteSpace=wrap;html=1;" parent="ogEDFsBAaEp7HwdF366j-58" vertex="1">
                    <mxGeometry x="12" y="35" width="120" height="60" as="geometry"/>
                </mxCell>
                <mxCell id="ogEDFsBAaEp7HwdF366j-61" style="edgeStyle=none;rounded=0;orthogonalLoop=1;jettySize=auto;html=1;" parent="ogEDFsBAaEp7HwdF366j-58" source="ogEDFsBAaEp7HwdF366j-63" target="ogEDFsBAaEp7HwdF366j-60" edge="1">
                    <mxGeometry relative="1" as="geometry"/>
                </mxCell>
                <mxCell id="ogEDFsBAaEp7HwdF366j-62" value="refers to" style="edgeLabel;html=1;align=center;verticalAlign=middle;resizable=0;points=[];" parent="ogEDFsBAaEp7HwdF366j-61" connectable="0" vertex="1">
                    <mxGeometry x="-0.3947" y="2" relative="1" as="geometry">
                        <mxPoint x="2" y="-13" as="offset"/>
                    </mxGeometry>
                </mxCell>
                <mxCell id="ogEDFsBAaEp7HwdF366j-63" value="RoleBinding" style="rounded=0;whiteSpace=wrap;html=1;" parent="ogEDFsBAaEp7HwdF366j-58" vertex="1">
                    <mxGeometry x="12" y="170.5" width="120" height="60" as="geometry"/>
                </mxCell>
                <mxCell id="ogEDFsBAaEp7HwdF366j-64" value="Flux&lt;br&gt;GitRepository" style="rounded=0;whiteSpace=wrap;html=1;" parent="ogEDFsBAaEp7HwdF366j-58" vertex="1">
                    <mxGeometry x="431" y="165" width="120" height="60" as="geometry"/>
                </mxCell>
                <mxCell id="ogEDFsBAaEp7HwdF366j-65" value="impersonates" style="edgeStyle=none;rounded=0;orthogonalLoop=1;jettySize=auto;html=1;" parent="ogEDFsBAaEp7HwdF366j-58" source="ogEDFsBAaEp7HwdF366j-69" target="ogEDFsBAaEp7HwdF366j-60" edge="1">
                    <mxGeometry x="-0.3328" relative="1" as="geometry">
                        <mxPoint as="offset"/>
                    </mxGeometry>
                </mxCell>
                <mxCell id="ogEDFsBAaEp7HwdF366j-66" value="" style="edgeStyle=none;rounded=0;orthogonalLoop=1;jettySize=auto;html=1;" parent="ogEDFsBAaEp7HwdF366j-58" source="ogEDFsBAaEp7HwdF366j-69" target="ogEDFsBAaEp7HwdF366j-64" edge="1">
                    <mxGeometry relative="1" as="geometry"/>
                </mxCell>
                <mxCell id="ogEDFsBAaEp7HwdF366j-67" style="edgeStyle=none;rounded=0;orthogonalLoop=1;jettySize=auto;html=1;" parent="ogEDFsBAaEp7HwdF366j-58" source="ogEDFsBAaEp7HwdF366j-69" target="ogEDFsBAaEp7HwdF366j-64" edge="1">
                    <mxGeometry relative="1" as="geometry"/>
                </mxCell>
                <mxCell id="ogEDFsBAaEp7HwdF366j-68" value="refers to" style="edgeLabel;html=1;align=center;verticalAlign=middle;resizable=0;points=[];" parent="ogEDFsBAaEp7HwdF366j-67" connectable="0" vertex="1">
                    <mxGeometry x="-0.5671" y="-2" relative="1" as="geometry">
                        <mxPoint y="14" as="offset"/>
                    </mxGeometry>
                </mxCell>
                <mxCell id="ogEDFsBAaEp7HwdF366j-69" value="Flux&lt;br&gt;Kustomization" style="rounded=0;whiteSpace=wrap;html=1;" parent="ogEDFsBAaEp7HwdF366j-58" vertex="1">
                    <mxGeometry x="431" y="35" width="120" height="60" as="geometry"/>
                </mxCell>
                <mxCell id="ogEDFsBAaEp7HwdF366j-70" value="Project&lt;br&gt;Repository" style="rounded=0;whiteSpace=wrap;html=1;fillColor=#dae8fc;strokeColor=#6c8ebf;" parent="ogEDFsBAaEp7HwdF366j-58" vertex="1">
                    <mxGeometry x="221" y="101" width="120" height="60" as="geometry"/>
                </mxCell>
                <mxCell id="ogEDFsBAaEp7HwdF366j-71" value="Project Namespace" style="text;html=1;align=center;verticalAlign=middle;resizable=0;points=[];autosize=1;strokeColor=none;fillColor=none;" parent="ogEDFsBAaEp7HwdF366j-58" vertex="1">
                    <mxGeometry x="-10" y="2" width="123" height="26" as="geometry"/>
                </mxCell>
                <mxCell id="ogEDFsBAaEp7HwdF366j-72" style="rounded=0;orthogonalLoop=1;jettySize=auto;html=1;entryX=0.5;entryY=1;entryDx=0;entryDy=0;exitX=0.5;exitY=0;exitDx=0;exitDy=0;" parent="ogEDFsBAaEp7HwdF366j-57" source="ogEDFsBAaEp7HwdF366j-4" target="ogEDFsBAaEp7HwdF366j-59" edge="1">
                    <mxGeometry relative="1" as="geometry">
                        <mxPoint x="-60" y="-215" as="sourcePoint"/>
                    </mxGeometry>
                </mxCell>
                <mxCell id="ogEDFsBAaEp7HwdF366j-73" value="bootstraps" style="edgeLabel;html=1;align=center;verticalAlign=middle;resizable=0;points=[];" parent="ogEDFsBAaEp7HwdF366j-72" connectable="0" vertex="1">
                    <mxGeometry x="-0.7197" y="8" relative="1" as="geometry">
                        <mxPoint x="5" y="-26" as="offset"/>
                    </mxGeometry>
                </mxCell>
                <mxCell id="ogEDFsBAaEp7HwdF366j-74" style="edgeStyle=orthogonalEdgeStyle;rounded=0;orthogonalLoop=1;jettySize=auto;html=1;curved=1;" parent="ogEDFsBAaEp7HwdF366j-57" target="ogEDFsBAaEp7HwdF366j-60" edge="1">
                    <mxGeometry relative="1" as="geometry">
                        <Array as="points">
                            <mxPoint x="-234" y="-210"/>
                            <mxPoint x="-234" y="-524"/>
                        </Array>
                        <mxPoint x="-348" y="-210" as="sourcePoint"/>
                    </mxGeometry>
                </mxCell>
                <mxCell id="ogEDFsBAaEp7HwdF366j-75" value="authenticates&lt;br&gt;using" style="edgeLabel;html=1;align=center;verticalAlign=middle;resizable=0;points=[];" parent="ogEDFsBAaEp7HwdF366j-74" connectable="0" vertex="1">
                    <mxGeometry x="-0.2223" y="1" relative="1" as="geometry">
                        <mxPoint x="-33" y="70" as="offset"/>
                    </mxGeometry>
                </mxCell>
                <mxCell id="ogEDFsBAaEp7HwdF366j-76" style="edgeStyle=orthogonalEdgeStyle;rounded=0;orthogonalLoop=1;jettySize=auto;html=1;curved=1;entryX=0;entryY=0.5;entryDx=0;entryDy=0;exitX=0;exitY=0.25;exitDx=0;exitDy=0;" parent="ogEDFsBAaEp7HwdF366j-57" source="ogEDFsBAaEp7HwdF366j-40" target="ogEDFsBAaEp7HwdF366j-60" edge="1">
                    <mxGeometry relative="1" as="geometry">
                        <mxPoint x="-488" y="164" as="sourcePoint"/>
                        <mxPoint x="-66" y="-721" as="targetPoint"/>
                        <Array as="points">
                            <mxPoint x="-767" y="192"/>
                            <mxPoint x="-767" y="-588"/>
                        </Array>
                    </mxGeometry>
                </mxCell>
                <mxCell id="ogEDFsBAaEp7HwdF366j-77" value="authenticates&lt;br&gt;using" style="edgeLabel;html=1;align=center;verticalAlign=middle;resizable=0;points=[];" parent="ogEDFsBAaEp7HwdF366j-76" connectable="0" vertex="1">
                    <mxGeometry x="-0.8825" y="-23" relative="1" as="geometry">
                        <mxPoint x="-155" y="-26" as="offset"/>
                    </mxGeometry>
                </mxCell>
                <mxCell id="ogEDFsBAaEp7HwdF366j-78" value="Project Git" parent="0"/>
                <mxCell id="ogEDFsBAaEp7HwdF366j-79" style="edgeStyle=orthogonalEdgeStyle;curved=1;rounded=0;orthogonalLoop=1;jettySize=auto;html=1;fillColor=#f8cecc;strokeColor=#b85450;" parent="ogEDFsBAaEp7HwdF366j-78" target="ogEDFsBAaEp7HwdF366j-81" edge="1">
                    <mxGeometry relative="1" as="geometry">
                        <mxPoint x="-50" y="78" as="sourcePoint"/>
                        <mxPoint x="443" y="-443" as="targetPoint"/>
                    </mxGeometry>
                </mxCell>
                <mxCell id="ogEDFsBAaEp7HwdF366j-80" value="is committed to" style="edgeLabel;html=1;align=center;verticalAlign=middle;resizable=0;points=[];" parent="ogEDFsBAaEp7HwdF366j-79" connectable="0" vertex="1">
                    <mxGeometry x="-0.8607" y="-1" relative="1" as="geometry">
                        <mxPoint x="13" y="-3" as="offset"/>
                    </mxGeometry>
                </mxCell>
                <mxCell id="ogEDFsBAaEp7HwdF366j-81" value="Project Git&lt;br&gt;Repository" style="shape=cylinder3;whiteSpace=wrap;html=1;boundedLbl=1;backgroundOutline=1;size=15;fillColor=#f8cecc;strokeColor=#b85450;" parent="ogEDFsBAaEp7HwdF366j-78" vertex="1">
                    <mxGeometry x="444" y="-71" width="78" height="80" as="geometry"/>
                </mxCell>
                <mxCell id="ogEDFsBAaEp7HwdF366j-82" style="rounded=0;orthogonalLoop=1;jettySize=auto;html=1;edgeStyle=orthogonalEdgeStyle;curved=1;" parent="ogEDFsBAaEp7HwdF366j-78" source="ogEDFsBAaEp7HwdF366j-70" target="ogEDFsBAaEp7HwdF366j-81" edge="1">
                    <mxGeometry relative="1" as="geometry">
                        <Array as="points">
                            <mxPoint x="-121" y="-389"/>
                            <mxPoint x="203" y="-389"/>
                            <mxPoint x="203" y="-260"/>
                            <mxPoint x="565" y="-260"/>
                            <mxPoint x="565" y="-31"/>
                        </Array>
                        <mxPoint x="203" y="-625" as="sourcePoint"/>
                    </mxGeometry>
                </mxCell>
                <mxCell id="ogEDFsBAaEp7HwdF366j-83" value="creates" style="edgeLabel;html=1;align=center;verticalAlign=middle;resizable=0;points=[];" parent="ogEDFsBAaEp7HwdF366j-82" connectable="0" vertex="1">
                    <mxGeometry x="-0.2514" y="38" relative="1" as="geometry">
                        <mxPoint x="-230" y="-20" as="offset"/>
                    </mxGeometry>
                </mxCell>
                <mxCell id="ogEDFsBAaEp7HwdF366j-84" style="edgeStyle=orthogonalEdgeStyle;rounded=0;orthogonalLoop=1;jettySize=auto;html=1;curved=1;" parent="ogEDFsBAaEp7HwdF366j-78" source="ogEDFsBAaEp7HwdF366j-64" target="ogEDFsBAaEp7HwdF366j-81" edge="1">
                    <mxGeometry relative="1" as="geometry">
                        <mxPoint x="413" y="-561" as="sourcePoint"/>
                    </mxGeometry>
                </mxCell>
                <mxCell id="ogEDFsBAaEp7HwdF366j-85" value="reconciles&lt;br&gt;contents of" style="edgeLabel;html=1;align=center;verticalAlign=middle;resizable=0;points=[];" parent="ogEDFsBAaEp7HwdF366j-84" connectable="0" vertex="1">
                    <mxGeometry x="0.1349" relative="1" as="geometry">
                        <mxPoint x="-232" y="-65" as="offset"/>
                    </mxGeometry>
                </mxCell>
                <mxCell id="ogEDFsBAaEp7HwdF366j-88" style="edgeStyle=orthogonalEdgeStyle;curved=1;rounded=0;orthogonalLoop=1;jettySize=auto;html=1;dashed=1;exitX=0.625;exitY=0;exitDx=0;exitDy=0;entryX=1;entryY=0.5;entryDx=0;entryDy=0;entryPerimeter=0;fillColor=#f8cecc;strokeColor=#b85450;" parent="ogEDFsBAaEp7HwdF366j-78" target="ogEDFsBAaEp7HwdF366j-81" edge="1">
                    <mxGeometry relative="1" as="geometry">
                        <mxPoint x="-393" y="-250" as="sourcePoint"/>
                        <mxPoint x="383" y="-428" as="targetPoint"/>
                        <Array as="points">
                            <mxPoint x="-393" y="-348"/>
                            <mxPoint x="570" y="-348"/>
                            <mxPoint x="570" y="-31"/>
                        </Array>
                    </mxGeometry>
                </mxCell>
                <mxCell id="ogEDFsBAaEp7HwdF366j-89" value="is committed to&lt;br style=&quot;border-color: var(--border-color);&quot;&gt;(optional)" style="edgeLabel;html=1;align=center;verticalAlign=middle;resizable=0;points=[];" parent="ogEDFsBAaEp7HwdF366j-88" connectable="0" vertex="1">
                    <mxGeometry x="-0.2513" y="-19" relative="1" as="geometry">
                        <mxPoint x="-300" y="49" as="offset"/>
                    </mxGeometry>
                </mxCell>
                <mxCell id="ogEDFsBAaEp7HwdF366j-90" style="edgeStyle=orthogonalEdgeStyle;rounded=0;orthogonalLoop=1;jettySize=auto;html=1;fillColor=#f8cecc;strokeColor=#b85450;dashed=1;curved=1;exitX=1;exitY=0.75;exitDx=0;exitDy=0;entryX=0.145;entryY=0;entryDx=0;entryDy=4.35;entryPerimeter=0;" parent="ogEDFsBAaEp7HwdF366j-78" source="ogEDFsBAaEp7HwdF366j-6" target="ogEDFsBAaEp7HwdF366j-81" edge="1">
                    <mxGeometry relative="1" as="geometry"/>
                </mxCell>
                <mxCell id="ogEDFsBAaEp7HwdF366j-91" value="is committed to&lt;br&gt;(optional)" style="edgeLabel;html=1;align=center;verticalAlign=middle;resizable=0;points=[];" parent="ogEDFsBAaEp7HwdF366j-90" connectable="0" vertex="1">
                    <mxGeometry x="-0.2659" y="-22" relative="1" as="geometry">
                        <mxPoint x="6" y="14" as="offset"/>
                    </mxGeometry>
                </mxCell>
                <mxCell id="ogEDFsBAaEp7HwdF366j-92" value="MPAS Git" parent="0" visible="0"/>
                <mxCell id="ogEDFsBAaEp7HwdF366j-93" style="edgeStyle=orthogonalEdgeStyle;curved=1;rounded=0;orthogonalLoop=1;jettySize=auto;html=1;dashed=1;exitX=0.375;exitY=0;exitDx=0;exitDy=0;fillColor=#f8cecc;strokeColor=#b85450;" parent="ogEDFsBAaEp7HwdF366j-92" edge="1">
                    <mxGeometry relative="1" as="geometry">
                        <mxPoint x="-423" y="-250" as="sourcePoint"/>
                        <mxPoint x="-729" y="-589" as="targetPoint"/>
                        <Array as="points">
                            <mxPoint x="-423" y="-297"/>
                            <mxPoint x="-586" y="-297"/>
                            <mxPoint x="-586" y="-589"/>
                        </Array>
                    </mxGeometry>
                </mxCell>
                <mxCell id="ogEDFsBAaEp7HwdF366j-94" value="is committed to&lt;br&gt;(optional)" style="edgeLabel;html=1;align=center;verticalAlign=middle;resizable=0;points=[];" parent="ogEDFsBAaEp7HwdF366j-93" connectable="0" vertex="1">
                    <mxGeometry x="-0.9057" y="1" relative="1" as="geometry">
                        <mxPoint x="-25" y="-5" as="offset"/>
                    </mxGeometry>
                </mxCell>
                <mxCell id="ogEDFsBAaEp7HwdF366j-95" style="edgeStyle=orthogonalEdgeStyle;curved=1;rounded=0;orthogonalLoop=1;jettySize=auto;html=1;dashed=1;fillColor=#f8cecc;strokeColor=#b85450;entryX=1;entryY=0.5;entryDx=0;entryDy=0;entryPerimeter=0;" parent="ogEDFsBAaEp7HwdF366j-92" target="ogEDFsBAaEp7HwdF366j-99" edge="1">
                    <mxGeometry relative="1" as="geometry">
                        <mxPoint x="176" y="-250" as="sourcePoint"/>
                        <mxPoint x="-76" y="-443" as="targetPoint"/>
                        <Array as="points">
                            <mxPoint x="176" y="-330"/>
                            <mxPoint x="-524" y="-330"/>
                            <mxPoint x="-524" y="-627"/>
                        </Array>
                    </mxGeometry>
                </mxCell>
                <mxCell id="ogEDFsBAaEp7HwdF366j-96" value="is committed to&lt;br&gt;(optional)" style="edgeLabel;html=1;align=center;verticalAlign=middle;resizable=0;points=[];" parent="ogEDFsBAaEp7HwdF366j-95" connectable="0" vertex="1">
                    <mxGeometry x="-0.8465" y="1" relative="1" as="geometry">
                        <mxPoint x="4" y="51" as="offset"/>
                    </mxGeometry>
                </mxCell>
                <mxCell id="ogEDFsBAaEp7HwdF366j-97" style="rounded=0;orthogonalLoop=1;jettySize=auto;html=1;entryX=1;entryY=0;entryDx=0;entryDy=72;entryPerimeter=0;fillColor=#f8cecc;strokeColor=#b85450;edgeStyle=orthogonalEdgeStyle;curved=1;exitX=0;exitY=0.5;exitDx=0;exitDy=0;" parent="ogEDFsBAaEp7HwdF366j-92" source="ogEDFsBAaEp7HwdF366j-4" target="ogEDFsBAaEp7HwdF366j-99" edge="1">
                    <mxGeometry relative="1" as="geometry">
                        <mxPoint x="-117" y="-250" as="sourcePoint"/>
                        <Array as="points">
                            <mxPoint x="-174" y="-324"/>
                            <mxPoint x="-552" y="-324"/>
                            <mxPoint x="-552" y="-608"/>
                        </Array>
                    </mxGeometry>
                </mxCell>
                <mxCell id="ogEDFsBAaEp7HwdF366j-98" value="is committed to" style="edgeLabel;html=1;align=center;verticalAlign=middle;resizable=0;points=[];" parent="ogEDFsBAaEp7HwdF366j-97" connectable="0" vertex="1">
                    <mxGeometry x="-0.8984" relative="1" as="geometry">
                        <mxPoint x="-80" y="8" as="offset"/>
                    </mxGeometry>
                </mxCell>
                <mxCell id="ogEDFsBAaEp7HwdF366j-99" value="MPAS&lt;br&gt;Admin&lt;br&gt;Git &lt;br&gt;Repository" style="shape=cylinder3;whiteSpace=wrap;html=1;boundedLbl=1;backgroundOutline=1;size=15;fillColor=#f8cecc;strokeColor=#b85450;" parent="ogEDFsBAaEp7HwdF366j-92" vertex="1">
                    <mxGeometry x="-809" y="-680" width="79.5" height="106" as="geometry"/>
                </mxCell>
            </root>
        </mxGraphModel>
    </diagram>
    <diagram id="7Qcakr80dsfdQpsE4oaU" name="Repository Structure">
        <mxGraphModel dx="1082" dy="900" grid="0" gridSize="10" guides="1" tooltips="1" connect="1" arrows="1" fold="1" page="0" pageScale="1" pageWidth="850" pageHeight="1100" math="0" shadow="0">
            <root>
                <mxCell id="0"/>
                <mxCell id="1" parent="0"/>
                <mxCell id="6gbwt0FmWzmQCfAVqbZ9-1" value="" style="rounded=0;whiteSpace=wrap;html=1;fontSize=14;movable=1;resizable=1;rotatable=1;deletable=1;editable=1;locked=0;connectable=1;" parent="1" vertex="1">
                    <mxGeometry x="-51" y="11" width="428" height="523" as="geometry"/>
                </mxCell>
                <mxCell id="6gbwt0FmWzmQCfAVqbZ9-2" value="apiVersion: mpas.sap.ocm/v1alpha1&#10;kind: Project&#10;metadata:&#10;  name: some-project&#10;  namespace: mpas-system&#10;spec:&#10;  git:&#10;    provider: github&#10;    org: ocm&#10;    credentials:&#10;      secretRef:&#10;        name: test&#10;    name: some-project&#10;    maintainers:&#10;    - phoban01&#10;    - skarlso&#10;    - mandelsoft" style="text;align=left;verticalAlign=middle;resizable=0;points=[];autosize=1;strokeColor=default;fillColor=#B8B8B8;fontSize=12;fontFamily=Courier New;spacing=0;labelBackgroundColor=none;fontColor=#080808;spacingLeft=9;labelBorderColor=none;horizontal=1;perimeterSpacing=2;spacingTop=2;spacingBottom=0;" parent="1" vertex="1">
                    <mxGeometry x="409" y="16" width="259" height="251" as="geometry"/>
                </mxCell>
                <mxCell id="6gbwt0FmWzmQCfAVqbZ9-3" style="edgeStyle=orthogonalEdgeStyle;rounded=0;orthogonalLoop=1;jettySize=auto;html=1;fontFamily=Courier New;fontSize=12;fontColor=#080808;curved=1;dashed=1;" parent="1" source="6gbwt0FmWzmQCfAVqbZ9-14" target="6gbwt0FmWzmQCfAVqbZ9-2" edge="1">
                    <mxGeometry relative="1" as="geometry">
                        <Array as="points">
                            <mxPoint x="228" y="98"/>
                            <mxPoint x="228" y="-58"/>
                        </Array>
                    </mxGeometry>
                </mxCell>
                <mxCell id="6gbwt0FmWzmQCfAVqbZ9-4" value="apiVersion: mpas.sap.ocm/v1alpha1&#10;kind: Subscription&#10;metadata:&#10;  name: flux&#10;  namespace: mpas-system&#10;spec:&#10;  component: github.com/fluxcd/flux&#10;  version: &gt;=v0.36.0&#10;" style="text;align=left;verticalAlign=middle;resizable=0;points=[];autosize=1;strokeColor=default;fillColor=#B8B8B8;fontSize=12;fontFamily=Courier New;spacing=0;labelBackgroundColor=none;fontColor=#080808;spacingLeft=9;labelBorderColor=none;horizontal=1;perimeterSpacing=2;spacingTop=8;spacingBottom=0;" parent="1" vertex="1">
                    <mxGeometry x="409" y="294.4" width="273" height="127" as="geometry"/>
                </mxCell>
                <mxCell id="6gbwt0FmWzmQCfAVqbZ9-5" value="" style="group" parent="1" connectable="0" vertex="1">
                    <mxGeometry x="-31" y="224" width="102" height="70.40322580645162" as="geometry"/>
                </mxCell>
                <mxCell id="6gbwt0FmWzmQCfAVqbZ9-6" value="" style="sketch=0;pointerEvents=1;shadow=0;dashed=0;html=1;strokeColor=none;fillColor=#434445;aspect=fixed;labelPosition=center;verticalLabelPosition=bottom;verticalAlign=top;align=center;outlineConnect=0;shape=mxgraph.vvd.folder;" parent="6gbwt0FmWzmQCfAVqbZ9-5" vertex="1">
                    <mxGeometry x="6.5" width="49.193548387096776" height="37.38709677419355" as="geometry"/>
                </mxCell>
                <mxCell id="6gbwt0FmWzmQCfAVqbZ9-7" value="subscriptions&lt;br&gt;catalog" style="text;html=1;align=center;verticalAlign=middle;resizable=0;points=[];autosize=1;strokeColor=none;fillColor=none;container=1;spacing=0;fontSize=14;" parent="6gbwt0FmWzmQCfAVqbZ9-5" vertex="1">
                    <mxGeometry x="-15" y="34.403225806451616" width="96" height="42" as="geometry"/>
                </mxCell>
                <mxCell id="6gbwt0FmWzmQCfAVqbZ9-8" value="" style="group" parent="1" connectable="0" vertex="1">
                    <mxGeometry x="129" y="274" width="133" height="80" as="geometry"/>
                </mxCell>
                <mxCell id="6gbwt0FmWzmQCfAVqbZ9-9" value="" style="shape=image;html=1;verticalAlign=top;verticalLabelPosition=bottom;labelBackgroundColor=#ffffff;imageAspect=0;aspect=fixed;image=https://cdn4.iconfinder.com/data/icons/48-bubbles/48/12.File-128.png;strokeWidth=1;fontSize=12;" parent="6gbwt0FmWzmQCfAVqbZ9-8" vertex="1">
                    <mxGeometry x="39" width="54" height="54" as="geometry"/>
                </mxCell>
                <mxCell id="6gbwt0FmWzmQCfAVqbZ9-10" value="flux-sub.yaml&lt;br&gt;" style="text;html=1;align=center;verticalAlign=middle;resizable=0;points=[];autosize=1;strokeColor=none;fillColor=none;fontSize=12;" parent="6gbwt0FmWzmQCfAVqbZ9-8" vertex="1">
                    <mxGeometry x="22" y="54" width="89" height="26" as="geometry"/>
                </mxCell>
                <mxCell id="6gbwt0FmWzmQCfAVqbZ9-11" value="" style="group" parent="1" connectable="0" vertex="1">
                    <mxGeometry x="-35" y="29" width="63" height="62" as="geometry"/>
                </mxCell>
                <mxCell id="6gbwt0FmWzmQCfAVqbZ9-12" value="" style="sketch=0;pointerEvents=1;shadow=0;dashed=0;html=1;strokeColor=none;fillColor=#434445;aspect=fixed;labelPosition=center;verticalLabelPosition=bottom;verticalAlign=top;align=center;outlineConnect=0;shape=mxgraph.vvd.folder;" parent="6gbwt0FmWzmQCfAVqbZ9-11" vertex="1">
                    <mxGeometry x="6.5" width="50" height="38" as="geometry"/>
                </mxCell>
                <mxCell id="6gbwt0FmWzmQCfAVqbZ9-13" value="projects" style="text;html=1;align=center;verticalAlign=middle;resizable=0;points=[];autosize=1;strokeColor=none;fillColor=none;container=1;spacing=0;fontSize=14;" parent="6gbwt0FmWzmQCfAVqbZ9-11" vertex="1">
                    <mxGeometry y="37" width="63" height="25" as="geometry"/>
                </mxCell>
                <mxCell id="6gbwt0FmWzmQCfAVqbZ9-14" value="" style="shape=image;html=1;verticalAlign=top;verticalLabelPosition=bottom;labelBackgroundColor=#ffffff;imageAspect=0;aspect=fixed;image=https://cdn4.iconfinder.com/data/icons/48-bubbles/48/12.File-128.png;strokeWidth=1;fontSize=12;" parent="1" vertex="1">
                    <mxGeometry x="168.5" y="71" width="54" height="54" as="geometry"/>
                </mxCell>
                <mxCell id="6gbwt0FmWzmQCfAVqbZ9-15" value="" style="shape=image;html=1;verticalAlign=top;verticalLabelPosition=bottom;labelBackgroundColor=#ffffff;imageAspect=0;aspect=fixed;image=https://cdn4.iconfinder.com/data/icons/48-bubbles/48/12.File-128.png;strokeWidth=1;fontSize=12;" parent="1" vertex="1">
                    <mxGeometry x="225.5" y="116" width="54" height="54" as="geometry"/>
                </mxCell>
                <mxCell id="6gbwt0FmWzmQCfAVqbZ9-16" style="edgeStyle=orthogonalEdgeStyle;rounded=0;orthogonalLoop=1;jettySize=auto;html=1;fontSize=12;" parent="1" source="6gbwt0FmWzmQCfAVqbZ9-12" target="6gbwt0FmWzmQCfAVqbZ9-14" edge="1">
                    <mxGeometry relative="1" as="geometry"/>
                </mxCell>
                <mxCell id="6gbwt0FmWzmQCfAVqbZ9-17" style="edgeStyle=orthogonalEdgeStyle;rounded=0;orthogonalLoop=1;jettySize=auto;html=1;fontSize=12;" parent="1" source="6gbwt0FmWzmQCfAVqbZ9-12" target="6gbwt0FmWzmQCfAVqbZ9-15" edge="1">
                    <mxGeometry relative="1" as="geometry"/>
                </mxCell>
                <mxCell id="6gbwt0FmWzmQCfAVqbZ9-18" value="" style="shape=image;html=1;verticalAlign=top;verticalLabelPosition=bottom;labelBackgroundColor=#ffffff;imageAspect=0;aspect=fixed;image=https://cdn4.iconfinder.com/data/icons/48-bubbles/48/12.File-128.png;strokeWidth=1;fontSize=12;" parent="1" vertex="1">
                    <mxGeometry x="283.5" y="160" width="54" height="54" as="geometry"/>
                </mxCell>
                <mxCell id="6gbwt0FmWzmQCfAVqbZ9-19" style="edgeStyle=orthogonalEdgeStyle;rounded=0;orthogonalLoop=1;jettySize=auto;html=1;fontSize=12;" parent="1" source="6gbwt0FmWzmQCfAVqbZ9-12" target="6gbwt0FmWzmQCfAVqbZ9-18" edge="1">
                    <mxGeometry relative="1" as="geometry"/>
                </mxCell>
                <mxCell id="6gbwt0FmWzmQCfAVqbZ9-20" value="proj-x.yaml" style="text;html=1;align=center;verticalAlign=middle;resizable=0;points=[];autosize=1;strokeColor=none;fillColor=none;fontSize=12;" parent="1" vertex="1">
                    <mxGeometry x="157.5" y="125" width="77" height="26" as="geometry"/>
                </mxCell>
                <mxCell id="6gbwt0FmWzmQCfAVqbZ9-21" value="proj-y.yaml" style="text;html=1;align=center;verticalAlign=middle;resizable=0;points=[];autosize=1;strokeColor=none;fillColor=none;fontSize=12;" parent="1" vertex="1">
                    <mxGeometry x="213.5" y="170" width="76" height="26" as="geometry"/>
                </mxCell>
                <mxCell id="6gbwt0FmWzmQCfAVqbZ9-22" value="proj-z.yaml" style="text;html=1;align=center;verticalAlign=middle;resizable=0;points=[];autosize=1;strokeColor=none;fillColor=none;fontSize=12;" parent="1" vertex="1">
                    <mxGeometry x="277.5" y="216" width="77" height="26" as="geometry"/>
                </mxCell>
                <mxCell id="6gbwt0FmWzmQCfAVqbZ9-23" value="" style="verticalLabelPosition=bottom;html=1;verticalAlign=top;align=center;strokeColor=none;fillColor=#F25900;shape=mxgraph.azure.git_repository;sketch=0;strokeWidth=1;fontSize=12;" parent="1" vertex="1">
                    <mxGeometry x="-31" y="469" width="50" height="50" as="geometry"/>
                </mxCell>
                <mxCell id="6gbwt0FmWzmQCfAVqbZ9-24" value="MPAS Repository" style="rounded=0;whiteSpace=wrap;html=1;sketch=0;strokeWidth=1;fontSize=12;" parent="1" vertex="1">
                    <mxGeometry x="248.5" width="116" height="28" as="geometry"/>
                </mxCell>
                <mxCell id="6gbwt0FmWzmQCfAVqbZ9-28" style="orthogonalLoop=1;jettySize=auto;html=1;fontFamily=Courier New;fontSize=12;fontColor=#080808;edgeStyle=orthogonalEdgeStyle;rounded=0;" parent="1" source="6gbwt0FmWzmQCfAVqbZ9-6" target="6gbwt0FmWzmQCfAVqbZ9-9" edge="1">
                    <mxGeometry relative="1" as="geometry">
                        <Array as="points">
                            <mxPoint x="187" y="243"/>
                        </Array>
                    </mxGeometry>
                </mxCell>
                <mxCell id="6gbwt0FmWzmQCfAVqbZ9-30" style="edgeStyle=orthogonalEdgeStyle;orthogonalLoop=1;jettySize=auto;html=1;dashed=1;fontFamily=Courier New;fontSize=12;fontColor=#080808;curved=1;" parent="1" source="6gbwt0FmWzmQCfAVqbZ9-9" target="6gbwt0FmWzmQCfAVqbZ9-4" edge="1">
                    <mxGeometry relative="1" as="geometry">
                        <Array as="points">
                            <mxPoint x="195" y="459"/>
                            <mxPoint x="568" y="459"/>
                        </Array>
                    </mxGeometry>
                </mxCell>
                <mxCell id="6gbwt0FmWzmQCfAVqbZ9-31" value="" style="rounded=0;whiteSpace=wrap;html=1;fontSize=14;movable=1;resizable=1;rotatable=1;deletable=1;editable=1;locked=0;connectable=1;" parent="1" vertex="1">
                    <mxGeometry x="965" y="-171" width="520" height="698" as="geometry"/>
                </mxCell>
                <mxCell id="6gbwt0FmWzmQCfAVqbZ9-32" value="apiVersion: mpas.sap.ocm/v1alpha1&#10;kind: ProductDeployment&#10;metadata:&#10;  name: flux&#10;  namespace: mpas-system&#10;  labels:&#10;    mpas.sap.com/project: some-project&#10;    mpas.sap.com/subscription: flux&#10;spec:&#10;  component:&#10;    name: github.com/fluxcd/flux&#10;  pipelines:&#10;  - name: controllers&#10;    source: # creates a Resource CR&#10;      name: controllers&#10;      version: v0.30.2&#10;    localization: # creates a Localization CR&#10;      rules:&#10;        name: controllers-localization&#10;        version: v1.0.0&#10;    configuration: # creates a Configuration CR&#10;      rules:&#10;        name: controllers-configuration&#10;        version: v1.0.0&#10;      valuesFromFile:&#10;        path: flux-values.yaml&#10;    targetRole:&#10;      type: kubernetes&#10;      selector: &#10;        matchLabels:&#10;          &quot;target.mpas.ocm.software/private-network&quot;: &quot;true&quot;" style="text;align=left;verticalAlign=middle;resizable=0;points=[];autosize=1;strokeColor=default;fillColor=#B8B8B8;fontSize=12;fontFamily=Courier New;spacing=0;labelBackgroundColor=none;fontColor=#080808;spacingLeft=9;labelBorderColor=none;horizontal=1;perimeterSpacing=2;spacingTop=8;spacingBottom=0;" parent="1" vertex="1">
                    <mxGeometry x="1549" y="88" width="453" height="458" as="geometry"/>
                </mxCell>
                <mxCell id="6gbwt0FmWzmQCfAVqbZ9-33" value="apiVersion: mpas.sap.ocm/v1alpha1&#10;kind: Target&#10;metadata:&#10;  name: k8s-eu-west-1&#10;  namespace: k8s-estate&#10;  labels:&#10;     &quot;target.mpas.ocm.software/private-network&quot;: &quot;true&quot;&#10;spec:&#10;  type: kubernetes&#10;  access:&#10;    secretRef:&#10;      name: cluster-creds&#10;" style="text;align=left;verticalAlign=middle;resizable=0;points=[];autosize=1;strokeColor=default;fillColor=#B8B8B8;fontSize=12;fontFamily=Courier New;spacing=0;labelBackgroundColor=none;fontColor=#080808;spacingLeft=9;labelBorderColor=none;horizontal=1;perimeterSpacing=2;spacingTop=8;spacingBottom=0;" parent="1" vertex="1">
                    <mxGeometry x="1229" y="573" width="417" height="185" as="geometry"/>
                </mxCell>
                <mxCell id="6gbwt0FmWzmQCfAVqbZ9-34" value="" style="verticalLabelPosition=bottom;html=1;verticalAlign=top;align=center;strokeColor=none;fillColor=#F25900;shape=mxgraph.azure.git_repository;strokeWidth=1;fontSize=12;" parent="1" vertex="1">
                    <mxGeometry x="978" y="463" width="50" height="50" as="geometry"/>
                </mxCell>
                <mxCell id="6gbwt0FmWzmQCfAVqbZ9-35" value="" style="group" parent="1" connectable="0" vertex="1">
                    <mxGeometry x="980" y="382" width="80" height="62" as="geometry"/>
                </mxCell>
                <mxCell id="6gbwt0FmWzmQCfAVqbZ9-36" value="" style="pointerEvents=1;shadow=0;dashed=0;html=1;strokeColor=none;fillColor=#434445;aspect=fixed;labelPosition=center;verticalLabelPosition=bottom;verticalAlign=top;align=center;outlineConnect=0;shape=mxgraph.vvd.folder;" parent="6gbwt0FmWzmQCfAVqbZ9-35" vertex="1">
                    <mxGeometry x="6.5" width="50" height="38" as="geometry"/>
                </mxCell>
                <mxCell id="6gbwt0FmWzmQCfAVqbZ9-37" value="targets" style="text;html=1;align=center;verticalAlign=middle;resizable=0;points=[];autosize=1;strokeColor=none;fillColor=none;container=1;spacing=0;fontSize=14;" parent="6gbwt0FmWzmQCfAVqbZ9-35" vertex="1">
                    <mxGeometry x="4" y="37" width="57" height="25" as="geometry"/>
                </mxCell>
                <mxCell id="6gbwt0FmWzmQCfAVqbZ9-38" value="Project Repository" style="rounded=0;whiteSpace=wrap;html=1;strokeWidth=1;fontSize=12;" parent="1" vertex="1">
                    <mxGeometry x="1352" y="-183" width="116" height="28" as="geometry"/>
                </mxCell>
                <mxCell id="6gbwt0FmWzmQCfAVqbZ9-39" value="" style="group" parent="1" connectable="0" vertex="1">
                    <mxGeometry x="1060" y="373" width="133" height="80" as="geometry"/>
                </mxCell>
                <mxCell id="6gbwt0FmWzmQCfAVqbZ9-40" value="" style="shape=image;html=1;verticalAlign=top;verticalLabelPosition=bottom;labelBackgroundColor=#ffffff;imageAspect=0;aspect=fixed;image=https://cdn4.iconfinder.com/data/icons/48-bubbles/48/12.File-128.png;strokeWidth=1;fontSize=12;" parent="6gbwt0FmWzmQCfAVqbZ9-39" vertex="1">
                    <mxGeometry x="39" width="54" height="54" as="geometry"/>
                </mxCell>
                <mxCell id="6gbwt0FmWzmQCfAVqbZ9-41" value="k8s-eu-west-1" style="text;html=1;align=center;verticalAlign=middle;resizable=0;points=[];autosize=1;strokeColor=none;fillColor=none;fontSize=12;" parent="6gbwt0FmWzmQCfAVqbZ9-39" vertex="1">
                    <mxGeometry x="20" y="54" width="93" height="26" as="geometry"/>
                </mxCell>
                <mxCell id="6gbwt0FmWzmQCfAVqbZ9-42" style="orthogonalLoop=1;jettySize=auto;html=1;fontFamily=Courier New;fontSize=12;fontColor=#080808;" parent="1" source="6gbwt0FmWzmQCfAVqbZ9-36" target="6gbwt0FmWzmQCfAVqbZ9-40" edge="1">
                    <mxGeometry relative="1" as="geometry"/>
                </mxCell>
                <mxCell id="6gbwt0FmWzmQCfAVqbZ9-43" style="edgeStyle=orthogonalEdgeStyle;orthogonalLoop=1;jettySize=auto;html=1;fontFamily=Courier New;fontSize=12;fontColor=#080808;rounded=0;" parent="1" source="6gbwt0FmWzmQCfAVqbZ9-95" target="6gbwt0FmWzmQCfAVqbZ9-87" edge="1">
                    <mxGeometry relative="1" as="geometry"/>
                </mxCell>
                <mxCell id="6gbwt0FmWzmQCfAVqbZ9-44" style="edgeStyle=orthogonalEdgeStyle;curved=1;orthogonalLoop=1;jettySize=auto;html=1;dashed=1;fontFamily=Courier New;fontSize=12;fontColor=#080808;" parent="1" source="6gbwt0FmWzmQCfAVqbZ9-40" target="6gbwt0FmWzmQCfAVqbZ9-33" edge="1">
                    <mxGeometry relative="1" as="geometry"/>
                </mxCell>
                <mxCell id="6gbwt0FmWzmQCfAVqbZ9-45" style="edgeStyle=orthogonalEdgeStyle;rounded=0;orthogonalLoop=1;jettySize=auto;html=1;fontFamily=Courier New;fontSize=12;fontColor=#080808;" parent="1" source="6gbwt0FmWzmQCfAVqbZ9-95" target="6gbwt0FmWzmQCfAVqbZ9-81" edge="1">
                    <mxGeometry relative="1" as="geometry"/>
                </mxCell>
                <mxCell id="6gbwt0FmWzmQCfAVqbZ9-46" style="edgeStyle=orthogonalEdgeStyle;hachureGap=4;orthogonalLoop=1;jettySize=auto;html=1;fontFamily=Architects Daughter;fontSource=https%3A%2F%2Ffonts.googleapis.com%2Fcss%3Ffamily%3DArchitects%2BDaughter;fontSize=16;rounded=1;dashed=1;startArrow=classic;startFill=1;endArrow=none;endFill=0;" parent="1" source="6gbwt0FmWzmQCfAVqbZ9-47" target="6gbwt0FmWzmQCfAVqbZ9-50" edge="1">
                    <mxGeometry relative="1" as="geometry">
                        <Array as="points">
                            <mxPoint x="1237" y="-38"/>
                            <mxPoint x="1237" y="21"/>
                        </Array>
                    </mxGeometry>
                </mxCell>
                <mxCell id="6gbwt0FmWzmQCfAVqbZ9-47" value="apiVersion: mpas.sap.ocm/v1alpha1&#10;kind: ProductDeploymentGenerator&#10;metadata:&#10;  name: flux&#10;  namespace: mpas-system&#10;spec:&#10;  subscriptionRef:&#10;    name: flux&#10;    namespace: mpas-system" style="text;align=left;verticalAlign=middle;resizable=0;points=[];autosize=1;strokeColor=default;fillColor=#B8B8B8;fontSize=12;fontFamily=Courier New;spacing=0;labelBackgroundColor=none;fontColor=#080808;spacingLeft=9;labelBorderColor=none;horizontal=1;perimeterSpacing=2;spacingTop=8;spacingBottom=0;" parent="1" vertex="1">
                    <mxGeometry x="1541" y="-114" width="259" height="142" as="geometry"/>
                </mxCell>
                <mxCell id="6gbwt0FmWzmQCfAVqbZ9-48" style="edgeStyle=orthogonalEdgeStyle;rounded=0;orthogonalLoop=1;jettySize=auto;html=1;fontFamily=Courier New;fontSize=12;fontColor=#080808;" parent="1" source="6gbwt0FmWzmQCfAVqbZ9-97" target="6gbwt0FmWzmQCfAVqbZ9-95" edge="1">
                    <mxGeometry relative="1" as="geometry"/>
                </mxCell>
                <mxCell id="6gbwt0FmWzmQCfAVqbZ9-49" value="" style="group" parent="1" connectable="0" vertex="1">
                    <mxGeometry x="1080" y="6" width="133" height="80" as="geometry"/>
                </mxCell>
                <mxCell id="6gbwt0FmWzmQCfAVqbZ9-50" value="" style="shape=image;html=1;verticalAlign=top;verticalLabelPosition=bottom;labelBackgroundColor=#ffffff;imageAspect=0;aspect=fixed;image=https://cdn4.iconfinder.com/data/icons/48-bubbles/48/12.File-128.png;strokeWidth=1;fontSize=12;" parent="6gbwt0FmWzmQCfAVqbZ9-49" vertex="1">
                    <mxGeometry x="35.5" width="54" height="54" as="geometry"/>
                </mxCell>
                <mxCell id="6gbwt0FmWzmQCfAVqbZ9-51" value="" style="group" parent="6gbwt0FmWzmQCfAVqbZ9-49" connectable="0" vertex="1">
                    <mxGeometry width="133" height="80" as="geometry"/>
                </mxCell>
                <mxCell id="6gbwt0FmWzmQCfAVqbZ9-52" value="flux" style="text;html=1;align=center;verticalAlign=middle;resizable=0;points=[];autosize=1;strokeColor=none;fillColor=none;fontSize=12;" parent="6gbwt0FmWzmQCfAVqbZ9-51" vertex="1">
                    <mxGeometry x="50" y="54" width="37" height="26" as="geometry"/>
                </mxCell>
                <mxCell id="6gbwt0FmWzmQCfAVqbZ9-53" style="edgeStyle=orthogonalEdgeStyle;rounded=0;orthogonalLoop=1;jettySize=auto;html=1;fontFamily=Courier New;fontSize=12;fontColor=#080808;strokeColor=default;" parent="1" source="6gbwt0FmWzmQCfAVqbZ9-95" target="6gbwt0FmWzmQCfAVqbZ9-89" edge="1">
                    <mxGeometry relative="1" as="geometry"/>
                </mxCell>
                <mxCell id="6gbwt0FmWzmQCfAVqbZ9-54" value="" style="group" parent="1" connectable="0" vertex="1">
                    <mxGeometry x="978" y="-44" width="81" height="62" as="geometry"/>
                </mxCell>
                <mxCell id="6gbwt0FmWzmQCfAVqbZ9-55" value="" style="pointerEvents=1;shadow=0;dashed=0;html=1;strokeColor=none;fillColor=#434445;aspect=fixed;labelPosition=center;verticalLabelPosition=bottom;verticalAlign=top;align=center;outlineConnect=0;shape=mxgraph.vvd.folder;" parent="6gbwt0FmWzmQCfAVqbZ9-54" vertex="1">
                    <mxGeometry x="6.5" width="50" height="38" as="geometry"/>
                </mxCell>
                <mxCell id="6gbwt0FmWzmQCfAVqbZ9-56" value="generators" style="text;html=1;align=center;verticalAlign=middle;resizable=0;points=[];autosize=1;strokeColor=none;fillColor=none;container=1;spacing=0;fontSize=14;" parent="6gbwt0FmWzmQCfAVqbZ9-54" vertex="1">
                    <mxGeometry x="-7" y="37" width="81" height="25" as="geometry"/>
                </mxCell>
                <mxCell id="6gbwt0FmWzmQCfAVqbZ9-57" style="edgeStyle=orthogonalEdgeStyle;rounded=0;orthogonalLoop=1;jettySize=auto;html=1;strokeColor=default;fontFamily=Courier New;fontSize=12;fontColor=#080808;" parent="1" source="6gbwt0FmWzmQCfAVqbZ9-55" target="6gbwt0FmWzmQCfAVqbZ9-50" edge="1">
                    <mxGeometry relative="1" as="geometry">
                        <Array as="points">
                            <mxPoint x="1138" y="-25"/>
                        </Array>
                    </mxGeometry>
                </mxCell>
                <mxCell id="6gbwt0FmWzmQCfAVqbZ9-58" value="" style="group" parent="1" connectable="0" vertex="1">
                    <mxGeometry x="1217.5" y="6" width="145" height="78.65" as="geometry"/>
                </mxCell>
                <mxCell id="6gbwt0FmWzmQCfAVqbZ9-59" value="" style="shape=image;html=1;verticalAlign=top;verticalLabelPosition=bottom;labelBackgroundColor=#ffffff;imageAspect=0;aspect=fixed;image=https://cdn4.iconfinder.com/data/icons/48-bubbles/48/12.File-128.png;strokeWidth=1;fontSize=12;" parent="6gbwt0FmWzmQCfAVqbZ9-58" vertex="1">
                    <mxGeometry x="35.5" width="52.65" height="52.65" as="geometry"/>
                </mxCell>
                <mxCell id="6gbwt0FmWzmQCfAVqbZ9-60" value="" style="group" parent="6gbwt0FmWzmQCfAVqbZ9-58" connectable="0" vertex="1">
                    <mxGeometry width="145" height="78.65" as="geometry"/>
                </mxCell>
                <mxCell id="6gbwt0FmWzmQCfAVqbZ9-61" value="promethues" style="text;html=1;align=center;verticalAlign=middle;resizable=0;points=[];autosize=1;strokeColor=none;fillColor=none;fontSize=12;" parent="6gbwt0FmWzmQCfAVqbZ9-60" vertex="1">
                    <mxGeometry x="28" y="52.65" width="81" height="26" as="geometry"/>
                </mxCell>
                <mxCell id="6gbwt0FmWzmQCfAVqbZ9-62" style="edgeStyle=orthogonalEdgeStyle;rounded=0;orthogonalLoop=1;jettySize=auto;html=1;entryX=0.5;entryY=0;entryDx=0;entryDy=0;strokeColor=default;fontFamily=Courier New;fontSize=12;fontColor=#080808;" parent="1" source="6gbwt0FmWzmQCfAVqbZ9-55" target="6gbwt0FmWzmQCfAVqbZ9-59" edge="1">
                    <mxGeometry relative="1" as="geometry"/>
                </mxCell>
                <mxCell id="6gbwt0FmWzmQCfAVqbZ9-63" style="edgeStyle=orthogonalEdgeStyle;rounded=0;orthogonalLoop=1;jettySize=auto;html=1;strokeColor=default;fontFamily=Courier New;fontSize=12;fontColor=#080808;" parent="1" source="6gbwt0FmWzmQCfAVqbZ9-97" target="6gbwt0FmWzmQCfAVqbZ9-93" edge="1">
                    <mxGeometry relative="1" as="geometry">
                        <Array as="points">
                            <mxPoint x="1068" y="106"/>
                            <mxPoint x="1068" y="248"/>
                        </Array>
                    </mxGeometry>
                </mxCell>
                <mxCell id="6gbwt0FmWzmQCfAVqbZ9-64" style="edgeStyle=orthogonalEdgeStyle;orthogonalLoop=1;jettySize=auto;html=1;fontFamily=Courier New;fontSize=12;fontColor=#080808;rounded=0;" parent="1" source="6gbwt0FmWzmQCfAVqbZ9-93" target="6gbwt0FmWzmQCfAVqbZ9-85" edge="1">
                    <mxGeometry relative="1" as="geometry"/>
                </mxCell>
                <mxCell id="6gbwt0FmWzmQCfAVqbZ9-65" style="edgeStyle=orthogonalEdgeStyle;rounded=0;orthogonalLoop=1;jettySize=auto;html=1;fontFamily=Courier New;fontSize=12;fontColor=#080808;" parent="1" source="6gbwt0FmWzmQCfAVqbZ9-93" target="6gbwt0FmWzmQCfAVqbZ9-83" edge="1">
                    <mxGeometry relative="1" as="geometry"/>
                </mxCell>
                <mxCell id="6gbwt0FmWzmQCfAVqbZ9-66" style="edgeStyle=orthogonalEdgeStyle;rounded=0;orthogonalLoop=1;jettySize=auto;html=1;fontFamily=Courier New;fontSize=12;fontColor=#080808;strokeColor=default;" parent="1" source="6gbwt0FmWzmQCfAVqbZ9-93" target="6gbwt0FmWzmQCfAVqbZ9-91" edge="1">
                    <mxGeometry relative="1" as="geometry"/>
                </mxCell>
                <mxCell id="6gbwt0FmWzmQCfAVqbZ9-67" style="edgeStyle=orthogonalEdgeStyle;hachureGap=4;orthogonalLoop=1;jettySize=auto;html=1;fontFamily=Architects Daughter;fontSource=https%3A%2F%2Ffonts.googleapis.com%2Fcss%3Ffamily%3DArchitects%2BDaughter;fontSize=16;dashed=1;" parent="1" source="6gbwt0FmWzmQCfAVqbZ9-89" target="6gbwt0FmWzmQCfAVqbZ9-32" edge="1">
                    <mxGeometry relative="1" as="geometry">
                        <Array as="points">
                            <mxPoint x="1290" y="190"/>
                            <mxPoint x="1290" y="98"/>
                            <mxPoint x="1504" y="98"/>
                            <mxPoint x="1504" y="340"/>
                        </Array>
                    </mxGeometry>
                </mxCell>
                <mxCell id="6gbwt0FmWzmQCfAVqbZ9-68" style="edgeStyle=orthogonalEdgeStyle;orthogonalLoop=1;jettySize=auto;html=1;curved=1;dashed=1;" parent="1" source="6gbwt0FmWzmQCfAVqbZ9-69" target="6gbwt0FmWzmQCfAVqbZ9-86" edge="1">
                    <mxGeometry relative="1" as="geometry">
                        <Array as="points">
                            <mxPoint x="789" y="309"/>
                            <mxPoint x="1154" y="309"/>
                            <mxPoint x="1154" y="381"/>
                            <mxPoint x="1317" y="381"/>
                        </Array>
                    </mxGeometry>
                </mxCell>
                <mxCell id="6gbwt0FmWzmQCfAVqbZ9-69" value="CUSTOMER VALUES" style="text;html=1;align=center;verticalAlign=middle;resizable=0;points=[];autosize=1;strokeColor=none;fillColor=none;" parent="1" vertex="1">
                    <mxGeometry x="820" y="255" width="136" height="26" as="geometry"/>
                </mxCell>
                <mxCell id="6gbwt0FmWzmQCfAVqbZ9-70" value="" style="group" parent="1" connectable="0" vertex="1">
                    <mxGeometry x="978" y="-147" width="81" height="62" as="geometry"/>
                </mxCell>
                <mxCell id="6gbwt0FmWzmQCfAVqbZ9-71" value="" style="pointerEvents=1;shadow=0;dashed=0;html=1;strokeColor=none;fillColor=#434445;aspect=fixed;labelPosition=center;verticalLabelPosition=bottom;verticalAlign=top;align=center;outlineConnect=0;shape=mxgraph.vvd.folder;" parent="6gbwt0FmWzmQCfAVqbZ9-70" vertex="1">
                    <mxGeometry x="6.5" width="50" height="38" as="geometry"/>
                </mxCell>
                <mxCell id="6gbwt0FmWzmQCfAVqbZ9-72" value="subscriptions" style="text;html=1;align=center;verticalAlign=middle;resizable=0;points=[];autosize=1;strokeColor=none;fillColor=none;container=1;spacing=0;fontSize=14;" parent="6gbwt0FmWzmQCfAVqbZ9-70" vertex="1">
                    <mxGeometry x="-15" y="37" width="96" height="25" as="geometry"/>
                </mxCell>
                <mxCell id="6gbwt0FmWzmQCfAVqbZ9-73" value="apiVersion: mpas.sap.ocm/v1alpha1&#10;kind: Subscription&#10;metadata:&#10;  name: prometheus&#10;  namespace: some-project-system&#10;spec:&#10;  component: github.com/prometheus/prom&#10;  version: v0.35.0&#10;" style="text;align=left;verticalAlign=middle;resizable=0;points=[];autosize=1;strokeColor=default;fillColor=#B8B8B8;fontSize=12;fontFamily=Courier New;spacing=0;labelBackgroundColor=none;fontColor=#080808;spacingLeft=9;labelBorderColor=none;horizontal=1;perimeterSpacing=2;spacingTop=8;spacingBottom=0;" parent="1" vertex="1">
                    <mxGeometry x="1508" y="-308" width="302" height="127" as="geometry"/>
                </mxCell>
                <mxCell id="6gbwt0FmWzmQCfAVqbZ9-74" value="" style="group" parent="1" connectable="0" vertex="1">
                    <mxGeometry x="1080" y="-107" width="160" height="80" as="geometry"/>
                </mxCell>
                <mxCell id="6gbwt0FmWzmQCfAVqbZ9-75" value="" style="shape=image;html=1;verticalAlign=top;verticalLabelPosition=bottom;labelBackgroundColor=#ffffff;imageAspect=0;aspect=fixed;image=https://cdn4.iconfinder.com/data/icons/48-bubbles/48/12.File-128.png;strokeWidth=1;fontSize=12;" parent="6gbwt0FmWzmQCfAVqbZ9-74" vertex="1">
                    <mxGeometry x="35.5" width="54" height="54" as="geometry"/>
                </mxCell>
                <mxCell id="6gbwt0FmWzmQCfAVqbZ9-76" value="" style="group" parent="6gbwt0FmWzmQCfAVqbZ9-74" connectable="0" vertex="1">
                    <mxGeometry width="160" height="80" as="geometry"/>
                </mxCell>
                <mxCell id="6gbwt0FmWzmQCfAVqbZ9-77" value="prometheus-subsscription.yaml" style="text;html=1;align=center;verticalAlign=middle;resizable=0;points=[];autosize=1;strokeColor=none;fillColor=none;fontSize=12;" parent="6gbwt0FmWzmQCfAVqbZ9-76" vertex="1">
                    <mxGeometry x="-24" y="54" width="184" height="26" as="geometry"/>
                </mxCell>
                <mxCell id="6gbwt0FmWzmQCfAVqbZ9-78" style="edgeStyle=orthogonalEdgeStyle;rounded=0;orthogonalLoop=1;jettySize=auto;html=1;" parent="1" source="6gbwt0FmWzmQCfAVqbZ9-71" target="6gbwt0FmWzmQCfAVqbZ9-75" edge="1">
                    <mxGeometry relative="1" as="geometry">
                        <Array as="points">
                            <mxPoint x="1137" y="-128"/>
                        </Array>
                    </mxGeometry>
                </mxCell>
                <mxCell id="6gbwt0FmWzmQCfAVqbZ9-79" style="edgeStyle=orthogonalEdgeStyle;orthogonalLoop=1;jettySize=auto;html=1;exitX=1;exitY=0.5;exitDx=0;exitDy=0;dashed=1;curved=1;" parent="1" source="6gbwt0FmWzmQCfAVqbZ9-75" target="6gbwt0FmWzmQCfAVqbZ9-73" edge="1">
                    <mxGeometry relative="1" as="geometry">
                        <Array as="points">
                            <mxPoint x="1170" y="-217"/>
                        </Array>
                    </mxGeometry>
                </mxCell>
                <mxCell id="6gbwt0FmWzmQCfAVqbZ9-81" value="" style="shape=image;html=1;verticalAlign=top;verticalLabelPosition=bottom;labelBackgroundColor=#ffffff;imageAspect=0;aspect=fixed;image=https://cdn4.iconfinder.com/data/icons/48-bubbles/48/12.File-128.png;strokeWidth=1;fontSize=12;" parent="1" vertex="1">
                    <mxGeometry x="1401.5" y="166" width="54" height="54" as="geometry"/>
                </mxCell>
                <mxCell id="6gbwt0FmWzmQCfAVqbZ9-82" value="README.md" style="text;html=1;align=center;verticalAlign=middle;resizable=0;points=[];autosize=1;strokeColor=none;fillColor=none;fontSize=12;" parent="1" vertex="1">
                    <mxGeometry x="1385.5" y="220" width="89" height="26" as="geometry"/>
                </mxCell>
                <mxCell id="6gbwt0FmWzmQCfAVqbZ9-83" value="" style="shape=image;html=1;verticalAlign=top;verticalLabelPosition=bottom;labelBackgroundColor=#ffffff;imageAspect=0;aspect=fixed;image=https://cdn4.iconfinder.com/data/icons/48-bubbles/48/12.File-128.png;strokeWidth=1;fontSize=12;" parent="1" vertex="1">
                    <mxGeometry x="1404.5" y="278" width="54" height="54" as="geometry"/>
                </mxCell>
                <mxCell id="6gbwt0FmWzmQCfAVqbZ9-84" value="README.md" style="text;html=1;align=center;verticalAlign=middle;resizable=0;points=[];autosize=1;strokeColor=none;fillColor=none;fontSize=12;" parent="1" vertex="1">
                    <mxGeometry x="1388.5" y="332" width="89" height="26" as="geometry"/>
                </mxCell>
                <mxCell id="6gbwt0FmWzmQCfAVqbZ9-85" value="" style="shape=image;html=1;verticalAlign=top;verticalLabelPosition=bottom;labelBackgroundColor=#ffffff;imageAspect=0;aspect=fixed;image=https://cdn4.iconfinder.com/data/icons/48-bubbles/48/12.File-128.png;strokeWidth=1;fontSize=12;" parent="1" vertex="1">
                    <mxGeometry x="1308" y="278" width="54" height="54" as="geometry"/>
                </mxCell>
                <mxCell id="6gbwt0FmWzmQCfAVqbZ9-86" value="prom-values.yaml" style="text;html=1;align=center;verticalAlign=middle;resizable=0;points=[];autosize=1;strokeColor=none;fillColor=none;fontSize=12;" parent="1" vertex="1">
                    <mxGeometry x="1280" y="332" width="113" height="26" as="geometry"/>
                </mxCell>
                <mxCell id="6gbwt0FmWzmQCfAVqbZ9-87" value="" style="shape=image;html=1;verticalAlign=top;verticalLabelPosition=bottom;labelBackgroundColor=#ffffff;imageAspect=0;aspect=fixed;image=https://cdn4.iconfinder.com/data/icons/48-bubbles/48/12.File-128.png;strokeWidth=1;fontSize=12;" parent="1" vertex="1">
                    <mxGeometry x="1312.5" y="166" width="54" height="54" as="geometry"/>
                </mxCell>
                <mxCell id="6gbwt0FmWzmQCfAVqbZ9-88" value="flux-values.yaml" style="text;html=1;align=center;verticalAlign=middle;resizable=0;points=[];autosize=1;strokeColor=none;fillColor=none;fontSize=12;" parent="1" vertex="1">
                    <mxGeometry x="1288.5" y="220" width="104" height="26" as="geometry"/>
                </mxCell>
                <mxCell id="6gbwt0FmWzmQCfAVqbZ9-89" value="" style="shape=image;html=1;verticalAlign=top;verticalLabelPosition=bottom;labelBackgroundColor=#ffffff;imageAspect=0;aspect=fixed;image=https://cdn4.iconfinder.com/data/icons/48-bubbles/48/12.File-128.png;strokeWidth=1;fontSize=12;" parent="1" vertex="1">
                    <mxGeometry x="1216.5" y="163" width="54" height="54" as="geometry"/>
                </mxCell>
                <mxCell id="6gbwt0FmWzmQCfAVqbZ9-90" value="flux-pd.yaml" style="text;html=1;align=center;verticalAlign=middle;resizable=0;points=[];autosize=1;strokeColor=none;fillColor=none;fontSize=12;" parent="1" vertex="1">
                    <mxGeometry x="1202" y="217" width="83" height="26" as="geometry"/>
                </mxCell>
                <mxCell id="6gbwt0FmWzmQCfAVqbZ9-91" value="" style="shape=image;html=1;verticalAlign=top;verticalLabelPosition=bottom;labelBackgroundColor=#ffffff;imageAspect=0;aspect=fixed;image=https://cdn4.iconfinder.com/data/icons/48-bubbles/48/12.File-128.png;strokeWidth=1;fontSize=12;" parent="1" vertex="1">
                    <mxGeometry x="1211.5" y="278" width="54" height="54" as="geometry"/>
                </mxCell>
                <mxCell id="6gbwt0FmWzmQCfAVqbZ9-92" value="prom-pd.yaml" style="text;html=1;align=center;verticalAlign=middle;resizable=0;points=[];autosize=1;strokeColor=none;fillColor=none;fontSize=12;" parent="1" vertex="1">
                    <mxGeometry x="1194" y="332" width="91" height="26" as="geometry"/>
                </mxCell>
                <mxCell id="6gbwt0FmWzmQCfAVqbZ9-93" value="" style="pointerEvents=1;shadow=0;dashed=0;html=1;strokeColor=none;fillColor=#434445;aspect=fixed;labelPosition=center;verticalLabelPosition=bottom;verticalAlign=top;align=center;outlineConnect=0;shape=mxgraph.vvd.folder;" parent="1" vertex="1">
                    <mxGeometry x="1107.5" y="229" width="50" height="38" as="geometry"/>
                </mxCell>
                <mxCell id="6gbwt0FmWzmQCfAVqbZ9-94" value="prometheus" style="text;html=1;align=center;verticalAlign=middle;resizable=0;points=[];autosize=1;strokeColor=none;fillColor=none;container=1;spacing=0;fontSize=14;" parent="1" vertex="1">
                    <mxGeometry x="1089" y="266" width="88" height="25" as="geometry"/>
                </mxCell>
                <mxCell id="6gbwt0FmWzmQCfAVqbZ9-95" value="" style="pointerEvents=1;shadow=0;dashed=0;html=1;strokeColor=none;fillColor=#434445;aspect=fixed;labelPosition=center;verticalLabelPosition=bottom;verticalAlign=top;align=center;outlineConnect=0;shape=mxgraph.vvd.folder;" parent="1" vertex="1">
                    <mxGeometry x="1104.5" y="117" width="50" height="38" as="geometry"/>
                </mxCell>
                <mxCell id="6gbwt0FmWzmQCfAVqbZ9-96" value="flux" style="text;html=1;align=center;verticalAlign=middle;resizable=0;points=[];autosize=1;strokeColor=none;fillColor=none;container=1;spacing=0;fontSize=14;" parent="1" vertex="1">
                    <mxGeometry x="1112" y="154" width="36" height="25" as="geometry"/>
                </mxCell>
                <mxCell id="6gbwt0FmWzmQCfAVqbZ9-97" value="" style="pointerEvents=1;shadow=0;dashed=0;html=1;strokeColor=none;fillColor=#434445;aspect=fixed;labelPosition=center;verticalLabelPosition=bottom;verticalAlign=top;align=center;outlineConnect=0;shape=mxgraph.vvd.folder;" parent="1" vertex="1">
                    <mxGeometry x="984.5" y="87" width="50" height="38" as="geometry"/>
                </mxCell>
                <mxCell id="6gbwt0FmWzmQCfAVqbZ9-98" value="deployments" style="text;html=1;align=center;verticalAlign=middle;resizable=0;points=[];autosize=1;strokeColor=none;fillColor=none;container=1;spacing=0;fontSize=14;" parent="1" vertex="1">
                    <mxGeometry x="965" y="124" width="93" height="25" as="geometry"/>
                </mxCell>
                <mxCell id="6gbwt0FmWzmQCfAVqbZ9-99" value="" style="group" parent="1" connectable="0" vertex="1">
                    <mxGeometry x="-31" y="370" width="80" height="62" as="geometry"/>
                </mxCell>
                <mxCell id="6gbwt0FmWzmQCfAVqbZ9-100" value="" style="pointerEvents=1;shadow=0;dashed=0;html=1;strokeColor=none;fillColor=#434445;aspect=fixed;labelPosition=center;verticalLabelPosition=bottom;verticalAlign=top;align=center;outlineConnect=0;shape=mxgraph.vvd.folder;" parent="6gbwt0FmWzmQCfAVqbZ9-99" vertex="1">
                    <mxGeometry x="6.5" width="50" height="38" as="geometry"/>
                </mxCell>
                <mxCell id="6gbwt0FmWzmQCfAVqbZ9-101" value="targets" style="text;html=1;align=center;verticalAlign=middle;resizable=0;points=[];autosize=1;strokeColor=none;fillColor=none;container=1;spacing=0;fontSize=14;" parent="6gbwt0FmWzmQCfAVqbZ9-99" vertex="1">
                    <mxGeometry x="4" y="37" width="57" height="25" as="geometry"/>
                </mxCell>
                <mxCell id="6gbwt0FmWzmQCfAVqbZ9-102" value="" style="group" parent="1" connectable="0" vertex="1">
                    <mxGeometry x="49" y="361" width="133" height="81" as="geometry"/>
                </mxCell>
                <mxCell id="6gbwt0FmWzmQCfAVqbZ9-103" value="" style="shape=image;html=1;verticalAlign=top;verticalLabelPosition=bottom;labelBackgroundColor=#ffffff;imageAspect=0;aspect=fixed;image=https://cdn4.iconfinder.com/data/icons/48-bubbles/48/12.File-128.png;strokeWidth=1;fontSize=12;" parent="6gbwt0FmWzmQCfAVqbZ9-102" vertex="1">
                    <mxGeometry x="39" width="54" height="54" as="geometry"/>
                </mxCell>
                <mxCell id="6gbwt0FmWzmQCfAVqbZ9-104" value="k8s-us-east-1" style="text;html=1;align=center;verticalAlign=middle;resizable=0;points=[];autosize=1;strokeColor=none;fillColor=none;fontSize=12;" parent="6gbwt0FmWzmQCfAVqbZ9-102" vertex="1">
                    <mxGeometry x="21" y="54.675" width="91" height="26" as="geometry"/>
                </mxCell>
                <mxCell id="6gbwt0FmWzmQCfAVqbZ9-105" value="" style="edgeStyle=orthogonalEdgeStyle;rounded=0;orthogonalLoop=1;jettySize=auto;html=1;" parent="1" source="6gbwt0FmWzmQCfAVqbZ9-100" target="6gbwt0FmWzmQCfAVqbZ9-103" edge="1">
                    <mxGeometry relative="1" as="geometry">
                        <Array as="points">
                            <mxPoint x="85" y="389"/>
                            <mxPoint x="85" y="389"/>
                        </Array>
                    </mxGeometry>
                </mxCell>
            </root>
        </mxGraphModel>
    </diagram>
    <diagram id="iIxz-Y5LS6I6MXBJ0far" name="Control Plane">
        <mxGraphModel dx="1082" dy="900" grid="0" gridSize="10" guides="1" tooltips="1" connect="1" arrows="1" fold="1" page="0" pageScale="1" pageWidth="850" pageHeight="1100" math="0" shadow="0">
            <root>
                <mxCell id="0"/>
                <mxCell id="1" parent="0"/>
                <mxCell id="Tznm5bnDykIh9OkD78Vx-1" value="" style="rounded=0;whiteSpace=wrap;html=1;fillColor=none;" vertex="1" parent="1">
                    <mxGeometry x="142" y="150" width="297" height="242" as="geometry"/>
                </mxCell>
                <mxCell id="Tznm5bnDykIh9OkD78Vx-2" value="project&lt;br&gt;controller" style="rounded=1;whiteSpace=wrap;html=1;fillColor=#f5f5f5;fontColor=#333333;strokeColor=#666666;" vertex="1" parent="1">
                    <mxGeometry x="153" y="163" width="120" height="60" as="geometry"/>
                </mxCell>
                <mxCell id="Tznm5bnDykIh9OkD78Vx-3" value="git&lt;br&gt;controller" style="rounded=1;whiteSpace=wrap;html=1;fillColor=#fff2cc;strokeColor=#d6b656;" vertex="1" parent="1">
                    <mxGeometry x="306" y="237" width="120" height="60" as="geometry"/>
                </mxCell>
                <mxCell id="Tznm5bnDykIh9OkD78Vx-4" value="ocm&lt;br&gt;controller" style="rounded=1;whiteSpace=wrap;html=1;fillColor=#ffe6cc;strokeColor=#d79b00;" vertex="1" parent="1">
                    <mxGeometry x="304" y="163" width="120" height="60" as="geometry"/>
                </mxCell>
                <mxCell id="Tznm5bnDykIh9OkD78Vx-5" value="product&lt;br&gt;controller" style="rounded=1;whiteSpace=wrap;html=1;fillColor=#dae8fc;strokeColor=#6c8ebf;" vertex="1" parent="1">
                    <mxGeometry x="153" y="237" width="120" height="60" as="geometry"/>
                </mxCell>
                <mxCell id="Tznm5bnDykIh9OkD78Vx-6" value="replication&lt;br&gt;controller" style="rounded=1;whiteSpace=wrap;html=1;fillColor=#d5e8d4;strokeColor=#82b366;" vertex="1" parent="1">
                    <mxGeometry x="153" y="320" width="120" height="60" as="geometry"/>
                </mxCell>
                <mxCell id="Tznm5bnDykIh9OkD78Vx-7" value="flux&lt;br&gt;controller" style="rounded=1;whiteSpace=wrap;html=1;fillColor=#f8cecc;strokeColor=#b85450;" vertex="1" parent="1">
                    <mxGeometry x="306" y="320" width="120" height="60" as="geometry"/>
                </mxCell>
                <mxCell id="Tznm5bnDykIh9OkD78Vx-8" style="edgeStyle=none;rounded=0;orthogonalLoop=1;jettySize=auto;html=1;" edge="1" parent="1" source="Tznm5bnDykIh9OkD78Vx-9" target="Tznm5bnDykIh9OkD78Vx-2">
                    <mxGeometry relative="1" as="geometry"/>
                </mxCell>
                <mxCell id="Tznm5bnDykIh9OkD78Vx-9" value="Project&lt;br&gt;CR" style="shape=document;whiteSpace=wrap;html=1;boundedLbl=1;" vertex="1" parent="1">
                    <mxGeometry y="22" width="120" height="79" as="geometry"/>
                </mxCell>
                <mxCell id="Tznm5bnDykIh9OkD78Vx-10" style="edgeStyle=none;rounded=0;orthogonalLoop=1;jettySize=auto;html=1;" edge="1" parent="1" source="Tznm5bnDykIh9OkD78Vx-11" target="Tznm5bnDykIh9OkD78Vx-2">
                    <mxGeometry relative="1" as="geometry"/>
                </mxCell>
                <mxCell id="Tznm5bnDykIh9OkD78Vx-11" value="Target&lt;br&gt;CR" style="shape=document;whiteSpace=wrap;html=1;boundedLbl=1;" vertex="1" parent="1">
                    <mxGeometry x="5" y="76" width="120" height="80" as="geometry"/>
                </mxCell>
                <mxCell id="Tznm5bnDykIh9OkD78Vx-12" style="edgeStyle=none;rounded=0;orthogonalLoop=1;jettySize=auto;html=1;" edge="1" parent="1" source="Tznm5bnDykIh9OkD78Vx-13" target="Tznm5bnDykIh9OkD78Vx-6">
                    <mxGeometry relative="1" as="geometry"/>
                </mxCell>
                <mxCell id="Tznm5bnDykIh9OkD78Vx-13" value="Subscription&lt;br&gt;CR" style="shape=document;whiteSpace=wrap;html=1;boundedLbl=1;" vertex="1" parent="1">
                    <mxGeometry y="355" width="120" height="80" as="geometry"/>
                </mxCell>
                <mxCell id="Tznm5bnDykIh9OkD78Vx-14" style="edgeStyle=none;rounded=0;orthogonalLoop=1;jettySize=auto;html=1;" edge="1" parent="1" source="Tznm5bnDykIh9OkD78Vx-15" target="Tznm5bnDykIh9OkD78Vx-5">
                    <mxGeometry relative="1" as="geometry"/>
                </mxCell>
                <mxCell id="Tznm5bnDykIh9OkD78Vx-15" value="Product Deployment&lt;br&gt;Generator CR" style="shape=document;whiteSpace=wrap;html=1;boundedLbl=1;" vertex="1" parent="1">
                    <mxGeometry x="-89" y="195" width="120" height="80" as="geometry"/>
                </mxCell>
                <mxCell id="Tznm5bnDykIh9OkD78Vx-16" style="rounded=0;orthogonalLoop=1;jettySize=auto;html=1;" edge="1" parent="1" source="Tznm5bnDykIh9OkD78Vx-17" target="Tznm5bnDykIh9OkD78Vx-5">
                    <mxGeometry relative="1" as="geometry"/>
                </mxCell>
                <mxCell id="Tznm5bnDykIh9OkD78Vx-17" value="Product Deployment&lt;br&gt;CR" style="shape=document;whiteSpace=wrap;html=1;boundedLbl=1;" vertex="1" parent="1">
                    <mxGeometry x="-45" y="245" width="120" height="80" as="geometry"/>
                </mxCell>
                <mxCell id="Tznm5bnDykIh9OkD78Vx-18" style="edgeStyle=none;rounded=0;orthogonalLoop=1;jettySize=auto;html=1;" edge="1" parent="1" source="Tznm5bnDykIh9OkD78Vx-19" target="Tznm5bnDykIh9OkD78Vx-3">
                    <mxGeometry relative="1" as="geometry"/>
                </mxCell>
                <mxCell id="Tznm5bnDykIh9OkD78Vx-19" value="Repository&lt;br&gt;CR" style="shape=document;whiteSpace=wrap;html=1;boundedLbl=1;" vertex="1" parent="1">
                    <mxGeometry x="493" y="217" width="120" height="80" as="geometry"/>
                </mxCell>
                <mxCell id="Tznm5bnDykIh9OkD78Vx-20" style="edgeStyle=none;rounded=0;orthogonalLoop=1;jettySize=auto;html=1;" edge="1" parent="1" source="Tznm5bnDykIh9OkD78Vx-21" target="Tznm5bnDykIh9OkD78Vx-3">
                    <mxGeometry relative="1" as="geometry"/>
                </mxCell>
                <mxCell id="Tznm5bnDykIh9OkD78Vx-21" value="Git Sync&lt;br&gt;CR" style="shape=document;whiteSpace=wrap;html=1;boundedLbl=1;" vertex="1" parent="1">
                    <mxGeometry x="518" y="267" width="120" height="80" as="geometry"/>
                </mxCell>
                <mxCell id="Tznm5bnDykIh9OkD78Vx-22" style="edgeStyle=none;rounded=0;orthogonalLoop=1;jettySize=auto;html=1;" edge="1" parent="1" source="Tznm5bnDykIh9OkD78Vx-23" target="Tznm5bnDykIh9OkD78Vx-4">
                    <mxGeometry relative="1" as="geometry"/>
                </mxCell>
                <mxCell id="Tznm5bnDykIh9OkD78Vx-23" value="Component Version&lt;br&gt;CR" style="shape=document;whiteSpace=wrap;html=1;boundedLbl=1;" vertex="1" parent="1">
                    <mxGeometry x="257" width="120" height="80" as="geometry"/>
                </mxCell>
                <mxCell id="Tznm5bnDykIh9OkD78Vx-24" style="edgeStyle=none;rounded=0;orthogonalLoop=1;jettySize=auto;html=1;" edge="1" parent="1" source="Tznm5bnDykIh9OkD78Vx-25" target="Tznm5bnDykIh9OkD78Vx-4">
                    <mxGeometry relative="1" as="geometry"/>
                </mxCell>
                <mxCell id="Tznm5bnDykIh9OkD78Vx-25" value="Resource&lt;br&gt;CR" style="shape=document;whiteSpace=wrap;html=1;boundedLbl=1;" vertex="1" parent="1">
                    <mxGeometry x="334" y="36" width="120" height="80" as="geometry"/>
                </mxCell>
                <mxCell id="Tznm5bnDykIh9OkD78Vx-26" style="edgeStyle=none;rounded=0;orthogonalLoop=1;jettySize=auto;html=1;" edge="1" parent="1" source="Tznm5bnDykIh9OkD78Vx-27" target="Tznm5bnDykIh9OkD78Vx-4">
                    <mxGeometry relative="1" as="geometry"/>
                </mxCell>
                <mxCell id="Tznm5bnDykIh9OkD78Vx-27" value="Localization&lt;br&gt;CR" style="shape=document;whiteSpace=wrap;html=1;boundedLbl=1;" vertex="1" parent="1">
                    <mxGeometry x="433" y="4" width="120" height="80" as="geometry"/>
                </mxCell>
                <mxCell id="Tznm5bnDykIh9OkD78Vx-28" style="edgeStyle=none;rounded=0;orthogonalLoop=1;jettySize=auto;html=1;" edge="1" parent="1" source="Tznm5bnDykIh9OkD78Vx-29" target="Tznm5bnDykIh9OkD78Vx-4">
                    <mxGeometry relative="1" as="geometry"/>
                </mxCell>
                <mxCell id="Tznm5bnDykIh9OkD78Vx-29" value="Configuration&lt;br&gt;CR" style="shape=document;whiteSpace=wrap;html=1;boundedLbl=1;" vertex="1" parent="1">
                    <mxGeometry x="518" y="49" width="120" height="80" as="geometry"/>
                </mxCell>
                <mxCell id="Tznm5bnDykIh9OkD78Vx-30" style="edgeStyle=none;rounded=0;orthogonalLoop=1;jettySize=auto;html=1;" edge="1" parent="1" source="Tznm5bnDykIh9OkD78Vx-31" target="Tznm5bnDykIh9OkD78Vx-7">
                    <mxGeometry relative="1" as="geometry"/>
                </mxCell>
                <mxCell id="Tznm5bnDykIh9OkD78Vx-31" value="OCI Repository&lt;br&gt;CR" style="shape=document;whiteSpace=wrap;html=1;boundedLbl=1;" vertex="1" parent="1">
                    <mxGeometry x="459" y="380" width="120" height="80" as="geometry"/>
                </mxCell>
                <mxCell id="Tznm5bnDykIh9OkD78Vx-32" style="edgeStyle=none;rounded=0;orthogonalLoop=1;jettySize=auto;html=1;" edge="1" parent="1" source="Tznm5bnDykIh9OkD78Vx-33" target="Tznm5bnDykIh9OkD78Vx-7">
                    <mxGeometry relative="1" as="geometry"/>
                </mxCell>
                <mxCell id="Tznm5bnDykIh9OkD78Vx-33" value="Kustomization&lt;br&gt;CR" style="shape=document;whiteSpace=wrap;html=1;boundedLbl=1;" vertex="1" parent="1">
                    <mxGeometry x="424" y="433" width="120" height="80" as="geometry"/>
                </mxCell>
                <mxCell id="Tznm5bnDykIh9OkD78Vx-34" style="edgeStyle=none;rounded=0;orthogonalLoop=1;jettySize=auto;html=1;" edge="1" parent="1" source="Tznm5bnDykIh9OkD78Vx-35" target="Tznm5bnDykIh9OkD78Vx-4">
                    <mxGeometry relative="1" as="geometry"/>
                </mxCell>
                <mxCell id="Tznm5bnDykIh9OkD78Vx-35" value="Snapshot&lt;br&gt;CR" style="shape=document;whiteSpace=wrap;html=1;boundedLbl=1;" vertex="1" parent="1">
                    <mxGeometry x="477" y="101" width="120" height="80" as="geometry"/>
                </mxCell>
                <mxCell id="Tznm5bnDykIh9OkD78Vx-36" value="MPAS Control Plane" style="text;html=1;align=center;verticalAlign=middle;resizable=0;points=[];autosize=1;strokeColor=none;fillColor=none;fontStyle=1;fontSize=24;" vertex="1" parent="1">
                    <mxGeometry x="-123" y="-41" width="248" height="41" as="geometry"/>
                </mxCell>
            </root>
        </mxGraphModel>
    </diagram>
    <diagram id="EJuczYlO0-78Cw3Vgd31" name="Target Scheduling">
        <mxGraphModel dx="1082" dy="900" grid="0" gridSize="10" guides="1" tooltips="1" connect="1" arrows="1" fold="1" page="0" pageScale="1" pageWidth="850" pageHeight="1100" math="0" shadow="0">
            <root>
                <mxCell id="0"/>
                <mxCell id="1" parent="0"/>
                <mxCell id="knPfXEhnfcZ6NG7xSkIM-1" value="" style="edgeStyle=none;rounded=0;orthogonalLoop=1;jettySize=auto;html=1;" edge="1" parent="1" source="knPfXEhnfcZ6NG7xSkIM-2" target="knPfXEhnfcZ6NG7xSkIM-4">
                    <mxGeometry relative="1" as="geometry"/>
                </mxCell>
                <mxCell id="knPfXEhnfcZ6NG7xSkIM-2" value="Product&lt;br&gt;Deployment CR" style="shape=document;whiteSpace=wrap;html=1;boundedLbl=1;" vertex="1" parent="1">
                    <mxGeometry x="-205" y="42" width="120" height="80" as="geometry"/>
                </mxCell>
                <mxCell id="knPfXEhnfcZ6NG7xSkIM-3" value="" style="edgeStyle=none;rounded=0;orthogonalLoop=1;jettySize=auto;html=1;" edge="1" parent="1" source="knPfXEhnfcZ6NG7xSkIM-4" target="knPfXEhnfcZ6NG7xSkIM-5">
                    <mxGeometry relative="1" as="geometry"/>
                </mxCell>
                <mxCell id="knPfXEhnfcZ6NG7xSkIM-4" value="kube-api" style="rounded=1;whiteSpace=wrap;html=1;" vertex="1" parent="1">
                    <mxGeometry x="22" y="52" width="120" height="60" as="geometry"/>
                </mxCell>
                <mxCell id="knPfXEhnfcZ6NG7xSkIM-5" value="Product &lt;br&gt;Deployment&lt;br&gt;create/update &lt;br&gt;event" style="shape=parallelogram;perimeter=parallelogramPerimeter;whiteSpace=wrap;html=1;fixedSize=1;" vertex="1" parent="1">
                    <mxGeometry x="204" y="55" width="120" height="60" as="geometry"/>
                </mxCell>
                <mxCell id="knPfXEhnfcZ6NG7xSkIM-6" value="" style="edgeStyle=none;rounded=0;orthogonalLoop=1;jettySize=auto;html=1;" edge="1" parent="1" source="knPfXEhnfcZ6NG7xSkIM-8" target="knPfXEhnfcZ6NG7xSkIM-5">
                    <mxGeometry relative="1" as="geometry"/>
                </mxCell>
                <mxCell id="knPfXEhnfcZ6NG7xSkIM-7" value="" style="edgeStyle=none;rounded=0;orthogonalLoop=1;jettySize=auto;html=1;" edge="1" parent="1" source="knPfXEhnfcZ6NG7xSkIM-8" target="knPfXEhnfcZ6NG7xSkIM-20">
                    <mxGeometry relative="1" as="geometry"/>
                </mxCell>
                <mxCell id="knPfXEhnfcZ6NG7xSkIM-8" value="product controller" style="rounded=1;whiteSpace=wrap;html=1;" vertex="1" parent="1">
                    <mxGeometry x="204" y="155" width="120" height="60" as="geometry"/>
                </mxCell>
                <mxCell id="knPfXEhnfcZ6NG7xSkIM-9" value="" style="edgeStyle=none;rounded=0;orthogonalLoop=1;jettySize=auto;html=1;" edge="1" parent="1" source="knPfXEhnfcZ6NG7xSkIM-10" target="knPfXEhnfcZ6NG7xSkIM-12">
                    <mxGeometry relative="1" as="geometry"/>
                </mxCell>
                <mxCell id="knPfXEhnfcZ6NG7xSkIM-10" value="get&lt;br&gt;Product &lt;br&gt;Deployment&lt;br&gt;spec.targetRole" style="shape=step;perimeter=stepPerimeter;whiteSpace=wrap;html=1;fixedSize=1;" vertex="1" parent="1">
                    <mxGeometry x="354" y="263" width="120" height="80" as="geometry"/>
                </mxCell>
                <mxCell id="knPfXEhnfcZ6NG7xSkIM-11" value="" style="edgeStyle=none;rounded=0;orthogonalLoop=1;jettySize=auto;html=1;" edge="1" parent="1" source="knPfXEhnfcZ6NG7xSkIM-12" target="knPfXEhnfcZ6NG7xSkIM-14">
                    <mxGeometry relative="1" as="geometry"/>
                </mxCell>
                <mxCell id="knPfXEhnfcZ6NG7xSkIM-12" value="list&lt;br&gt;targets&lt;br&gt;matching&lt;br&gt;targetRole" style="shape=step;perimeter=stepPerimeter;whiteSpace=wrap;html=1;fixedSize=1;" vertex="1" parent="1">
                    <mxGeometry x="514" y="263" width="120" height="80" as="geometry"/>
                </mxCell>
                <mxCell id="knPfXEhnfcZ6NG7xSkIM-13" value="" style="edgeStyle=none;rounded=0;orthogonalLoop=1;jettySize=auto;html=1;" edge="1" parent="1" source="knPfXEhnfcZ6NG7xSkIM-14">
                    <mxGeometry relative="1" as="geometry">
                        <mxPoint x="832" y="303" as="targetPoint"/>
                    </mxGeometry>
                </mxCell>
                <mxCell id="knPfXEhnfcZ6NG7xSkIM-14" value="select one&lt;br&gt;target" style="shape=step;perimeter=stepPerimeter;whiteSpace=wrap;html=1;fixedSize=1;" vertex="1" parent="1">
                    <mxGeometry x="660" y="263" width="120" height="80" as="geometry"/>
                </mxCell>
                <mxCell id="knPfXEhnfcZ6NG7xSkIM-15" style="edgeStyle=orthogonalEdgeStyle;rounded=0;orthogonalLoop=1;jettySize=auto;html=1;" edge="1" parent="1" source="knPfXEhnfcZ6NG7xSkIM-16" target="knPfXEhnfcZ6NG7xSkIM-4">
                    <mxGeometry relative="1" as="geometry">
                        <Array as="points">
                            <mxPoint x="968" y="303"/>
                            <mxPoint x="968" y="-11"/>
                            <mxPoint x="82" y="-11"/>
                        </Array>
                    </mxGeometry>
                </mxCell>
                <mxCell id="knPfXEhnfcZ6NG7xSkIM-16" value="patch&lt;br&gt;spec.targetRef&lt;br&gt;on Product&lt;br&gt;Deployment" style="shape=step;perimeter=stepPerimeter;whiteSpace=wrap;html=1;fixedSize=1;" vertex="1" parent="1">
                    <mxGeometry x="817" y="263" width="120" height="80" as="geometry"/>
                </mxCell>
                <mxCell id="knPfXEhnfcZ6NG7xSkIM-17" value="" style="edgeStyle=none;rounded=0;orthogonalLoop=1;jettySize=auto;html=1;" edge="1" parent="1" source="knPfXEhnfcZ6NG7xSkIM-20" target="knPfXEhnfcZ6NG7xSkIM-10">
                    <mxGeometry relative="1" as="geometry"/>
                </mxCell>
                <mxCell id="knPfXEhnfcZ6NG7xSkIM-18" value="YES" style="edgeLabel;html=1;align=center;verticalAlign=middle;resizable=0;points=[];" vertex="1" connectable="0" parent="knPfXEhnfcZ6NG7xSkIM-17">
                    <mxGeometry x="-0.3603" y="1" relative="1" as="geometry">
                        <mxPoint x="5" y="-1" as="offset"/>
                    </mxGeometry>
                </mxCell>
                <mxCell id="knPfXEhnfcZ6NG7xSkIM-19" style="edgeStyle=none;rounded=0;orthogonalLoop=1;jettySize=auto;html=1;" edge="1" parent="1" source="knPfXEhnfcZ6NG7xSkIM-20" target="knPfXEhnfcZ6NG7xSkIM-21">
                    <mxGeometry relative="1" as="geometry"/>
                </mxCell>
                <mxCell id="knPfXEhnfcZ6NG7xSkIM-20" value="spec.targetRef&lt;br&gt;null?" style="rhombus;whiteSpace=wrap;html=1;" vertex="1" parent="1">
                    <mxGeometry x="216" y="255" width="96" height="96" as="geometry"/>
                </mxCell>
                <mxCell id="knPfXEhnfcZ6NG7xSkIM-21" value="create deployer&lt;br&gt;&amp;nbsp;using &lt;br&gt;spec.targetRef" style="shape=step;perimeter=stepPerimeter;whiteSpace=wrap;html=1;fixedSize=1;" vertex="1" parent="1">
                    <mxGeometry x="204" y="407" width="120" height="80" as="geometry"/>
                </mxCell>
                <mxCell id="knPfXEhnfcZ6NG7xSkIM-22" value="NO" style="edgeLabel;html=1;align=center;verticalAlign=middle;resizable=0;points=[];" vertex="1" connectable="0" parent="1">
                    <mxGeometry x="350.0000000000002" y="311" as="geometry">
                        <mxPoint x="-87" y="63" as="offset"/>
                    </mxGeometry>
                </mxCell>
                <mxCell id="knPfXEhnfcZ6NG7xSkIM-23" value="MPAS Target Scheduling" style="text;html=1;align=center;verticalAlign=middle;resizable=0;points=[];autosize=1;strokeColor=none;fillColor=none;fontStyle=1;fontSize=24;" vertex="1" parent="1">
                    <mxGeometry x="-233" y="-53" width="300" height="41" as="geometry"/>
                </mxCell>
            </root>
        </mxGraphModel>
    </diagram>
</mxfile>